<?xml version="1.0" encoding="utf-8" standalone="no"?>
<!DOCTYPE svg PUBLIC "-//W3C//DTD SVG 1.1//EN"
  "http://www.w3.org/Graphics/SVG/1.1/DTD/svg11.dtd">
<!-- Created with matplotlib (https://matplotlib.org/) -->
<svg height="307.762pt" version="1.1" viewBox="0 0 400.645 307.762" width="400.645pt" xmlns="http://www.w3.org/2000/svg" xmlns:xlink="http://www.w3.org/1999/xlink">
 <defs>
  <style type="text/css">
*{stroke-linecap:butt;stroke-linejoin:round;}
  </style>
 </defs>
 <g id="figure_1">
  <g id="patch_1">
   <path d="M 0 307.762 
L 400.645 307.762 
L 400.645 0 
L 0 0 
z
" style="fill:#ffffff;"/>
  </g>
  <g id="axes_1">
   <g id="patch_2">
    <path d="M 36.325 273.312 
L 393.445 273.312 
L 393.445 7.2 
L 36.325 7.2 
z
" style="fill:#ffffff;"/>
   </g>
   <g id="matplotlib.axis_1">
    <g id="xtick_1">
     <g id="line2d_1">
      <defs>
       <path d="M 0 0 
L 0 3.5 
" id="m8a9e4f7584" style="stroke:#000000;stroke-width:0.8;"/>
      </defs>
      <g>
       <use style="stroke:#000000;stroke-width:0.8;" x="52.557727" xlink:href="#m8a9e4f7584" y="273.312"/>
      </g>
     </g>
     <g id="text_1">
      <!-- 0 -->
      <defs>
       <path d="M 3.125 29.296875 
Q 3.90625 50 6.4375 56.046875 
Q 8.984375 62.109375 13.671875 66.015625 
Q 18.359375 69.921875 25.1875 69.921875 
Q 32.03125 69.921875 37.109375 64.25 
Q 42.1875 58.59375 43.75 50 
Q 45.3125 41.40625 44.71875 30.265625 
Q 44.140625 19.140625 40.8125 12.109375 
Q 37.5 5.078125 30.859375 2.34375 
Q 24.21875 -0.390625 17.578125 2.921875 
Q 10.9375 6.25 8.203125 11.71875 
Q 5.46875 17.1875 4.296875 23.234375 
Q 3.125 29.296875 3.90625 50 
z
M 12.890625 52.734375 
Q 10.546875 31.25 12.5 22.84375 
Q 14.453125 14.453125 18.9375 10.9375 
Q 23.4375 7.421875 28.125 9.5625 
Q 32.8125 11.71875 34.953125 18.15625 
Q 37.109375 24.609375 37.109375 32.21875 
Q 37.109375 39.84375 36.515625 46.09375 
Q 35.9375 52.34375 33 57.421875 
Q 30.078125 62.5 25.1875 62.6875 
Q 20.3125 62.890625 16.59375 57.8125 
Q 12.890625 52.734375 10.546875 31.25 
z
" id="SimHei-48"/>
      </defs>
      <g transform="translate(50.057727 287.187)scale(0.1 -0.1)">
       <use xlink:href="#SimHei-48"/>
      </g>
     </g>
    </g>
    <g id="xtick_2">
     <g id="line2d_2">
      <g>
       <use style="stroke:#000000;stroke-width:0.8;" x="117.553632" xlink:href="#m8a9e4f7584" y="273.312"/>
      </g>
     </g>
     <g id="text_2">
      <!-- 200 -->
      <defs>
       <path d="M 4.6875 3.90625 
Q 5.078125 9.765625 10.15625 14.453125 
Q 15.234375 19.140625 23.046875 29.09375 
Q 30.859375 39.0625 33.203125 44.53125 
Q 35.546875 50 34.953125 53.90625 
Q 34.375 57.8125 31.25 60.34375 
Q 28.125 62.890625 24.015625 62.5 
Q 19.921875 62.109375 16.203125 59.375 
Q 12.5 56.640625 10.546875 51.171875 
L 3.125 52.34375 
Q 6.25 61.328125 11.125 65.421875 
Q 16.015625 69.53125 22.65625 69.921875 
Q 26.5625 70.3125 29.6875 69.71875 
Q 32.8125 69.140625 36.125 66.984375 
Q 39.453125 64.84375 41.59375 60.546875 
Q 43.75 56.25 43.15625 50.1875 
Q 42.578125 44.140625 37.109375 35.734375 
Q 31.640625 27.34375 16.015625 9.375 
L 44.140625 9.375 
L 44.140625 2.34375 
L 4.6875 2.34375 
z
" id="SimHei-50"/>
      </defs>
      <g transform="translate(110.053632 287.187)scale(0.1 -0.1)">
       <use xlink:href="#SimHei-50"/>
       <use x="50" xlink:href="#SimHei-48"/>
       <use x="100" xlink:href="#SimHei-48"/>
      </g>
     </g>
    </g>
    <g id="xtick_3">
     <g id="line2d_3">
      <g>
       <use style="stroke:#000000;stroke-width:0.8;" x="182.549537" xlink:href="#m8a9e4f7584" y="273.312"/>
      </g>
     </g>
     <g id="text_3">
      <!-- 400 -->
      <defs>
       <path d="M 31.25 17.1875 
L 1.171875 17.1875 
L 1.171875 23.828125 
L 32.8125 69.53125 
L 38.671875 69.53125 
L 38.671875 23.828125 
L 48.046875 23.828125 
L 48.046875 17.1875 
L 38.671875 17.1875 
L 38.671875 2.34375 
L 31.25 2.34375 
z
M 31.25 23.828125 
L 31.25 54.6875 
L 9.375 23.828125 
z
" id="SimHei-52"/>
      </defs>
      <g transform="translate(175.049537 287.187)scale(0.1 -0.1)">
       <use xlink:href="#SimHei-52"/>
       <use x="50" xlink:href="#SimHei-48"/>
       <use x="100" xlink:href="#SimHei-48"/>
      </g>
     </g>
    </g>
    <g id="xtick_4">
     <g id="line2d_4">
      <g>
       <use style="stroke:#000000;stroke-width:0.8;" x="247.545442" xlink:href="#m8a9e4f7584" y="273.312"/>
      </g>
     </g>
     <g id="text_4">
      <!-- 600 -->
      <defs>
       <path d="M 3.515625 19.53125 
Q 4.296875 30.859375 6.046875 34.765625 
Q 7.8125 38.671875 11.328125 44.53125 
L 27.34375 69.53125 
L 36.328125 69.53125 
L 19.921875 43.75 
Q 30.46875 46.484375 36.71875 42.96875 
Q 42.96875 39.453125 45.109375 34.953125 
Q 47.265625 30.46875 47.453125 25.1875 
Q 47.65625 19.921875 45.890625 14.84375 
Q 44.140625 9.765625 39.640625 5.65625 
Q 35.15625 1.5625 27.140625 1.171875 
Q 19.140625 0.78125 13.46875 4.09375 
Q 7.8125 7.421875 5.65625 13.46875 
Q 3.515625 19.53125 4.296875 30.859375 
z
M 12.5 16.015625 
Q 19.53125 8.59375 25.390625 8.203125 
Q 31.25 7.8125 35.15625 12.109375 
Q 39.0625 16.40625 39.0625 24.609375 
Q 39.0625 32.8125 34.171875 35.9375 
Q 29.296875 39.0625 23.234375 38.28125 
Q 17.1875 37.5 14.453125 32.421875 
Q 11.71875 27.34375 12.109375 21.671875 
Q 12.5 16.015625 19.53125 8.59375 
z
" id="SimHei-54"/>
      </defs>
      <g transform="translate(240.045442 287.187)scale(0.1 -0.1)">
       <use xlink:href="#SimHei-54"/>
       <use x="50" xlink:href="#SimHei-48"/>
       <use x="100" xlink:href="#SimHei-48"/>
      </g>
     </g>
    </g>
    <g id="xtick_5">
     <g id="line2d_5">
      <g>
       <use style="stroke:#000000;stroke-width:0.8;" x="312.541347" xlink:href="#m8a9e4f7584" y="273.312"/>
      </g>
     </g>
     <g id="text_5">
      <!-- 800 -->
      <defs>
       <path d="M 2.734375 16.796875 
Q 2.734375 26.171875 5.078125 30.65625 
Q 7.421875 35.15625 12.890625 37.890625 
Q 8.203125 40.625 6.640625 43.9375 
Q 5.078125 47.265625 4.875 51.5625 
Q 4.6875 55.859375 6.046875 58.984375 
Q 7.421875 62.109375 10.15625 64.84375 
Q 12.890625 67.578125 16.203125 68.546875 
Q 19.53125 69.53125 23.4375 69.53125 
Q 27.34375 69.53125 30.46875 68.75 
Q 33.59375 67.96875 37.109375 65.421875 
Q 40.625 62.890625 42.1875 58.203125 
Q 43.75 53.515625 41.984375 47.265625 
Q 40.234375 41.015625 32.8125 37.5 
Q 39.453125 35.546875 42.1875 31.4375 
Q 44.921875 27.34375 44.921875 21.484375 
Q 44.921875 15.625 43.15625 12.109375 
Q 41.40625 8.59375 39.25 6.25 
Q 37.109375 3.90625 33.390625 2.53125 
Q 29.6875 1.171875 24.015625 1.171875 
Q 18.359375 1.171875 14.25 2.53125 
Q 10.15625 3.90625 7.421875 6.640625 
Q 4.6875 9.375 3.703125 13.078125 
Q 2.734375 16.796875 2.734375 26.171875 
z
M 10.9375 26.5625 
Q 10.546875 17.1875 12.296875 13.671875 
Q 14.0625 10.15625 18.75 9.171875 
Q 23.4375 8.203125 28.515625 9.375 
Q 33.59375 10.546875 35.546875 14.84375 
Q 37.5 19.140625 36.90625 23.4375 
Q 36.328125 27.734375 32.03125 30.65625 
Q 27.734375 33.59375 22.65625 33.203125 
Q 17.578125 32.8125 14.25 29.6875 
Q 10.9375 26.5625 10.546875 17.1875 
z
M 12.109375 56.25 
Q 12.109375 48.4375 14.84375 44.921875 
Q 17.578125 41.40625 23.4375 41.40625 
Q 29.296875 41.40625 32.21875 44.921875 
Q 35.15625 48.4375 34.953125 53.3125 
Q 34.765625 58.203125 31.4375 60.546875 
Q 28.125 62.890625 22.453125 62.5 
Q 16.796875 62.109375 14.453125 59.171875 
Q 12.109375 56.25 12.109375 48.4375 
z
" id="SimHei-56"/>
      </defs>
      <g transform="translate(305.041347 287.187)scale(0.1 -0.1)">
       <use xlink:href="#SimHei-56"/>
       <use x="50" xlink:href="#SimHei-48"/>
       <use x="100" xlink:href="#SimHei-48"/>
      </g>
     </g>
    </g>
    <g id="xtick_6">
     <g id="line2d_6">
      <g>
       <use style="stroke:#000000;stroke-width:0.8;" x="377.537252" xlink:href="#m8a9e4f7584" y="273.312"/>
      </g>
     </g>
     <g id="text_6">
      <!-- 1000 -->
      <defs>
       <path d="M 21.875 56.25 
Q 16.796875 51.171875 8.984375 46.484375 
L 8.984375 53.90625 
Q 18.75 60.546875 25 69.53125 
L 29.6875 69.53125 
L 29.6875 2.34375 
L 21.875 2.34375 
z
" id="SimHei-49"/>
      </defs>
      <g transform="translate(367.537252 287.187)scale(0.1 -0.1)">
       <use xlink:href="#SimHei-49"/>
       <use x="50" xlink:href="#SimHei-48"/>
       <use x="100" xlink:href="#SimHei-48"/>
       <use x="150" xlink:href="#SimHei-48"/>
      </g>
     </g>
    </g>
    <g id="text_7">
     <!-- Number of Generation -->
     <defs>
      <path d="M 44.53125 1.953125 
L 34.765625 1.953125 
L 13.28125 50.390625 
L 12.890625 50.390625 
L 12.890625 1.953125 
L 3.90625 1.953125 
L 3.90625 68.75 
L 13.671875 68.75 
L 35.15625 20.3125 
L 35.546875 20.3125 
L 35.546875 68.75 
L 44.53125 68.75 
z
" id="SimHei-78"/>
      <path d="M 43.75 1.953125 
L 35.9375 1.953125 
L 35.9375 10.15625 
Q 32.8125 5.859375 29.09375 3.515625 
Q 25.390625 1.171875 19.53125 1.171875 
Q 12.5 1.171875 8.984375 5.078125 
Q 5.46875 8.984375 5.46875 14.84375 
L 5.46875 45.703125 
L 13.28125 45.703125 
L 13.28125 17.578125 
Q 13.28125 12.890625 15.625 10.15625 
Q 17.96875 7.421875 21.875 7.421875 
Q 26.953125 7.421875 31.4375 12.6875 
Q 35.9375 17.96875 35.9375 25.78125 
L 35.9375 45.703125 
L 43.75 45.703125 
z
" id="SimHei-117"/>
      <path d="M 47.65625 1.953125 
L 39.84375 1.953125 
L 39.84375 33.59375 
Q 39.84375 35.9375 39.0625 37.5 
Q 38.28125 39.0625 35.9375 39.0625 
Q 33.203125 39.0625 30.859375 36.125 
Q 28.515625 33.203125 28.515625 28.515625 
L 28.515625 1.953125 
L 20.703125 1.953125 
L 20.703125 33.59375 
Q 20.703125 35.9375 19.921875 37.5 
Q 19.140625 39.0625 16.796875 39.0625 
Q 14.0625 39.0625 11.71875 36.125 
Q 9.375 33.203125 9.375 28.515625 
L 9.375 1.953125 
L 1.5625 1.953125 
L 1.5625 45.703125 
L 9.375 45.703125 
L 9.375 39.84375 
Q 11.328125 42.96875 14.0625 44.71875 
Q 16.796875 46.484375 19.921875 46.484375 
Q 23.046875 46.484375 25.1875 44.71875 
Q 27.34375 42.96875 28.125 39.84375 
Q 30.078125 42.96875 32.609375 44.71875 
Q 35.15625 46.484375 38.28125 46.484375 
Q 42.96875 46.484375 45.3125 43.9375 
Q 47.65625 41.40625 47.65625 36.71875 
z
" id="SimHei-109"/>
      <path d="M 44.140625 23.828125 
Q 44.140625 12.5 38.671875 6.828125 
Q 33.203125 1.171875 25.390625 1.171875 
Q 21.09375 1.171875 17.96875 2.734375 
Q 14.84375 4.296875 12.5 7.8125 
L 12.5 1.953125 
L 4.6875 1.953125 
L 4.6875 68.75 
L 12.5 68.75 
L 12.5 39.84375 
Q 14.84375 43.359375 17.96875 45.109375 
Q 21.09375 46.875 25.390625 46.875 
Q 33.203125 46.875 38.671875 41.015625 
Q 44.140625 35.15625 44.140625 23.828125 
z
M 35.546875 23.828125 
Q 35.546875 31.25 32.609375 35.546875 
Q 29.6875 39.84375 23.828125 39.84375 
Q 19.140625 39.84375 15.8125 35.546875 
Q 12.5 31.25 12.5 23.828125 
Q 12.5 16.40625 15.8125 12.296875 
Q 19.140625 8.203125 23.828125 8.203125 
Q 29.6875 8.203125 32.609375 12.296875 
Q 35.546875 16.40625 35.546875 23.828125 
z
" id="SimHei-98"/>
      <path d="M 44.53125 16.796875 
Q 43.75 9.765625 38.28125 5.46875 
Q 32.8125 1.171875 25.390625 1.171875 
Q 16.015625 1.171875 9.953125 7.21875 
Q 3.90625 13.28125 3.90625 23.828125 
Q 3.90625 34.375 9.953125 40.421875 
Q 16.015625 46.484375 25.390625 46.484375 
Q 33.59375 46.484375 38.859375 41.203125 
Q 44.140625 35.9375 44.140625 23.828125 
L 12.5 23.828125 
Q 12.5 15.234375 16.203125 11.71875 
Q 19.921875 8.203125 25.390625 8.203125 
Q 29.6875 8.203125 32.421875 10.34375 
Q 35.15625 12.5 35.9375 16.796875 
z
M 35.15625 30.078125 
Q 34.375 35.546875 31.640625 37.6875 
Q 28.90625 39.84375 24.609375 39.84375 
Q 20.703125 39.84375 17.578125 37.6875 
Q 14.453125 35.546875 12.890625 30.078125 
z
" id="SimHei-101"/>
      <path d="M 39.0625 37.890625 
Q 31.640625 39.0625 26.5625 35.734375 
Q 21.484375 32.421875 17.96875 24.21875 
L 17.96875 1.953125 
L 10.15625 1.953125 
L 10.15625 45.703125 
L 17.96875 45.703125 
L 17.96875 34.375 
Q 21.484375 40.625 26.75 43.546875 
Q 32.03125 46.484375 39.0625 46.484375 
z
" id="SimHei-114"/>
      <path id="SimHei-32"/>
      <path d="M 45.703125 23.828125 
Q 45.703125 13.671875 39.453125 7.421875 
Q 33.203125 1.171875 24.609375 1.171875 
Q 16.015625 1.171875 9.765625 7.421875 
Q 3.515625 13.671875 3.515625 23.828125 
Q 3.515625 33.984375 9.765625 40.234375 
Q 16.015625 46.484375 24.609375 46.484375 
Q 33.203125 46.484375 39.453125 40.234375 
Q 45.703125 33.984375 45.703125 23.828125 
z
M 37.109375 23.828125 
Q 37.109375 31.640625 33.203125 35.546875 
Q 29.296875 39.453125 24.609375 39.453125 
Q 19.921875 39.453125 16.015625 35.546875 
Q 12.109375 31.640625 12.109375 23.828125 
Q 12.109375 16.015625 16.015625 12.109375 
Q 19.921875 8.203125 24.609375 8.203125 
Q 29.296875 8.203125 33.203125 12.109375 
Q 37.109375 16.015625 37.109375 23.828125 
z
" id="SimHei-111"/>
      <path d="M 44.53125 59.765625 
Q 42.578125 60.9375 39.84375 61.71875 
Q 37.109375 62.5 32.8125 62.5 
Q 28.515625 62.5 26.953125 60.34375 
Q 25.390625 58.203125 25.390625 55.078125 
L 25.390625 45.703125 
L 41.40625 45.703125 
L 41.40625 39.453125 
L 25.390625 39.453125 
L 25.390625 1.953125 
L 17.578125 1.953125 
L 17.578125 39.453125 
L 4.296875 39.453125 
L 4.296875 45.703125 
L 17.578125 45.703125 
L 17.578125 54.6875 
Q 17.578125 61.71875 21.875 65.625 
Q 26.171875 69.53125 33.203125 69.53125 
Q 37.5 69.53125 40.03125 68.9375 
Q 42.578125 68.359375 44.53125 67.578125 
z
" id="SimHei-102"/>
      <path d="M 44.53125 1.171875 
L 37.890625 1.171875 
L 36.71875 6.640625 
Q 35.15625 4.296875 31.828125 2.734375 
Q 28.515625 1.171875 24.609375 1.171875 
Q 16.40625 1.171875 9.953125 8.78125 
Q 3.515625 16.40625 3.515625 33.203125 
Q 3.515625 51.5625 9.375 60.546875 
Q 15.234375 69.53125 25.390625 69.53125 
Q 34.375 69.53125 39.453125 62.890625 
Q 44.53125 56.25 44.53125 45.703125 
L 35.9375 45.703125 
Q 35.9375 53.90625 33.203125 58 
Q 30.46875 62.109375 25.390625 62.109375 
Q 19.140625 62.109375 16.015625 55.65625 
Q 12.890625 49.21875 12.890625 33.984375 
Q 12.890625 19.53125 16.796875 14.0625 
Q 20.703125 8.59375 25.78125 8.59375 
Q 30.859375 8.59375 33.78125 12.296875 
Q 36.71875 16.015625 36.71875 23.828125 
L 36.71875 28.125 
L 24.609375 28.125 
L 24.609375 35.546875 
L 44.53125 35.546875 
z
" id="SimHei-71"/>
      <path d="M 43.75 1.953125 
L 35.9375 1.953125 
L 35.9375 30.078125 
Q 35.9375 34.765625 33.59375 37.5 
Q 31.25 40.234375 27.34375 40.234375 
Q 22.265625 40.234375 17.765625 34.953125 
Q 13.28125 29.6875 13.28125 21.875 
L 13.28125 1.953125 
L 5.46875 1.953125 
L 5.46875 45.703125 
L 13.28125 45.703125 
L 13.28125 37.5 
Q 16.40625 41.796875 20.109375 44.140625 
Q 23.828125 46.484375 29.6875 46.484375 
Q 36.71875 46.484375 40.234375 42.578125 
Q 43.75 38.671875 43.75 32.8125 
z
" id="SimHei-110"/>
      <path d="M 44.921875 1.953125 
L 35.546875 1.953125 
Q 34.765625 2.734375 34.375 4.09375 
Q 33.984375 5.46875 33.984375 7.421875 
Q 31.25 4.296875 27.34375 2.734375 
Q 23.4375 1.171875 19.140625 1.171875 
Q 12.890625 1.171875 8.59375 4.296875 
Q 4.296875 7.421875 4.296875 13.28125 
Q 4.296875 19.140625 8.203125 22.65625 
Q 12.109375 26.171875 20.3125 27.34375 
Q 25.78125 28.125 29.875 29.296875 
Q 33.984375 30.46875 33.984375 32.421875 
Q 33.984375 34.765625 32.21875 37.109375 
Q 30.46875 39.453125 24.609375 39.453125 
Q 19.921875 39.453125 17.765625 37.6875 
Q 15.625 35.9375 14.84375 32.8125 
L 6.25 32.8125 
Q 7.03125 39.0625 11.90625 42.765625 
Q 16.796875 46.484375 24.609375 46.484375 
Q 33.203125 46.484375 37.5 42.578125 
Q 41.796875 38.671875 41.796875 31.640625 
L 41.796875 10.15625 
Q 41.796875 7.8125 42.578125 5.859375 
Q 43.359375 3.90625 44.921875 1.953125 
z
M 33.984375 16.40625 
L 33.984375 24.21875 
Q 31.640625 23.4375 29.484375 22.84375 
Q 27.34375 22.265625 22.265625 21.484375 
Q 16.40625 20.703125 14.640625 18.75 
Q 12.890625 16.796875 12.890625 14.0625 
Q 12.890625 11.71875 14.640625 9.953125 
Q 16.40625 8.203125 19.921875 8.203125 
Q 23.4375 8.203125 27.53125 10.15625 
Q 31.640625 12.109375 33.984375 16.40625 
z
" id="SimHei-97"/>
      <path d="M 42.96875 3.125 
Q 41.015625 2.34375 38.46875 1.75 
Q 35.9375 1.171875 31.640625 1.171875 
Q 24.609375 1.171875 20.3125 5.078125 
Q 16.015625 8.984375 16.015625 16.015625 
L 16.015625 39.453125 
L 2.734375 39.453125 
L 2.734375 45.703125 
L 16.015625 45.703125 
L 16.015625 60.9375 
L 23.828125 60.9375 
L 23.828125 45.703125 
L 39.84375 45.703125 
L 39.84375 39.453125 
L 23.828125 39.453125 
L 23.828125 15.625 
Q 23.828125 12.5 25.390625 10.34375 
Q 26.953125 8.203125 31.25 8.203125 
Q 35.546875 8.203125 38.28125 8.984375 
Q 41.015625 9.765625 42.96875 10.9375 
z
" id="SimHei-116"/>
      <path d="M 28.125 58.203125 
L 20.3125 58.203125 
L 20.3125 68.359375 
L 28.125 68.359375 
z
M 28.125 1.953125 
L 20.3125 1.953125 
L 20.3125 45.703125 
L 28.125 45.703125 
z
" id="SimHei-105"/>
     </defs>
     <g transform="translate(164.885 299.312)scale(0.1 -0.1)">
      <use xlink:href="#SimHei-78"/>
      <use x="50" xlink:href="#SimHei-117"/>
      <use x="100" xlink:href="#SimHei-109"/>
      <use x="150" xlink:href="#SimHei-98"/>
      <use x="200" xlink:href="#SimHei-101"/>
      <use x="250" xlink:href="#SimHei-114"/>
      <use x="300" xlink:href="#SimHei-32"/>
      <use x="350" xlink:href="#SimHei-111"/>
      <use x="400" xlink:href="#SimHei-102"/>
      <use x="450" xlink:href="#SimHei-32"/>
      <use x="500" xlink:href="#SimHei-71"/>
      <use x="550" xlink:href="#SimHei-101"/>
      <use x="600" xlink:href="#SimHei-110"/>
      <use x="650" xlink:href="#SimHei-101"/>
      <use x="700" xlink:href="#SimHei-114"/>
      <use x="750" xlink:href="#SimHei-97"/>
      <use x="800" xlink:href="#SimHei-116"/>
      <use x="850" xlink:href="#SimHei-105"/>
      <use x="900" xlink:href="#SimHei-111"/>
      <use x="950" xlink:href="#SimHei-110"/>
     </g>
    </g>
   </g>
   <g id="matplotlib.axis_2">
    <g id="ytick_1">
     <g id="line2d_7">
      <defs>
       <path d="M 0 0 
L -3.5 0 
" id="m5a68097fa7" style="stroke:#000000;stroke-width:0.8;"/>
      </defs>
      <g>
       <use style="stroke:#000000;stroke-width:0.8;" x="36.325" xlink:href="#m5a68097fa7" y="273.236974"/>
      </g>
     </g>
     <g id="text_8">
      <!-- 12 -->
      <g transform="translate(19.325 276.674474)scale(0.1 -0.1)">
       <use xlink:href="#SimHei-49"/>
       <use x="50" xlink:href="#SimHei-50"/>
      </g>
     </g>
    </g>
    <g id="ytick_2">
     <g id="line2d_8">
      <g>
       <use style="stroke:#000000;stroke-width:0.8;" x="36.325" xlink:href="#m5a68097fa7" y="226.591774"/>
      </g>
     </g>
     <g id="text_9">
      <!-- 14 -->
      <g transform="translate(19.325 230.029274)scale(0.1 -0.1)">
       <use xlink:href="#SimHei-49"/>
       <use x="50" xlink:href="#SimHei-52"/>
      </g>
     </g>
    </g>
    <g id="ytick_3">
     <g id="line2d_9">
      <g>
       <use style="stroke:#000000;stroke-width:0.8;" x="36.325" xlink:href="#m5a68097fa7" y="179.946574"/>
      </g>
     </g>
     <g id="text_10">
      <!-- 16 -->
      <g transform="translate(19.325 183.384074)scale(0.1 -0.1)">
       <use xlink:href="#SimHei-49"/>
       <use x="50" xlink:href="#SimHei-54"/>
      </g>
     </g>
    </g>
    <g id="ytick_4">
     <g id="line2d_10">
      <g>
       <use style="stroke:#000000;stroke-width:0.8;" x="36.325" xlink:href="#m5a68097fa7" y="133.301374"/>
      </g>
     </g>
     <g id="text_11">
      <!-- 18 -->
      <g transform="translate(19.325 136.738874)scale(0.1 -0.1)">
       <use xlink:href="#SimHei-49"/>
       <use x="50" xlink:href="#SimHei-56"/>
      </g>
     </g>
    </g>
    <g id="ytick_5">
     <g id="line2d_11">
      <g>
       <use style="stroke:#000000;stroke-width:0.8;" x="36.325" xlink:href="#m5a68097fa7" y="86.656174"/>
      </g>
     </g>
     <g id="text_12">
      <!-- 20 -->
      <g transform="translate(19.325 90.093674)scale(0.1 -0.1)">
       <use xlink:href="#SimHei-50"/>
       <use x="50" xlink:href="#SimHei-48"/>
      </g>
     </g>
    </g>
    <g id="ytick_6">
     <g id="line2d_12">
      <g>
       <use style="stroke:#000000;stroke-width:0.8;" x="36.325" xlink:href="#m5a68097fa7" y="40.010975"/>
      </g>
     </g>
     <g id="text_13">
      <!-- 22 -->
      <g transform="translate(19.325 43.448475)scale(0.1 -0.1)">
       <use xlink:href="#SimHei-50"/>
       <use x="50" xlink:href="#SimHei-50"/>
      </g>
     </g>
    </g>
    <g id="text_14">
     <!-- Value -->
     <defs>
      <path d="M 47.65625 68.75 
L 28.125 1.171875 
L 20.3125 1.171875 
L 0.78125 68.75 
L 10.15625 68.75 
L 23.828125 17.578125 
L 24.609375 17.578125 
L 38.28125 68.75 
z
" id="SimHei-86"/>
      <path d="M 28.515625 1.953125 
L 20.703125 1.953125 
L 20.703125 68.75 
L 28.515625 68.75 
z
" id="SimHei-108"/>
     </defs>
     <g transform="translate(14.075 152.756)rotate(-90)scale(0.1 -0.1)">
      <use xlink:href="#SimHei-86"/>
      <use x="50" xlink:href="#SimHei-97"/>
      <use x="100" xlink:href="#SimHei-108"/>
      <use x="150" xlink:href="#SimHei-117"/>
      <use x="200" xlink:href="#SimHei-101"/>
     </g>
    </g>
   </g>
   <g id="line2d_13">
    <path clip-path="url(#p6448835448)" d="M 52.557727 182.642689 
L 53.207686 137.016606 
L 53.532666 130.010414 
L 54.182625 107.902443 
L 54.507604 101.394088 
L 54.832584 98.850241 
L 55.807523 82.604403 
L 56.132502 81.386695 
L 56.457482 80.953356 
L 56.782461 75.535107 
L 57.107441 75.218723 
L 57.7574 67.5542 
L 58.082379 68.002434 
L 58.407359 64.969049 
L 58.732338 69.990614 
L 59.057318 67.433727 
L 59.382297 68.635899 
L 59.707277 59.369788 
L 60.032256 60.067404 
L 60.357236 57.698034 
L 60.682215 58.967905 
L 61.007195 57.180243 
L 61.332174 57.21473 
L 61.657154 51.605191 
L 61.982133 51.375951 
L 62.307113 49.512155 
L 62.632093 50.938207 
L 62.957072 50.218991 
L 63.607031 43.756289 
L 63.932011 45.191624 
L 64.25699 43.985488 
L 64.58197 44.258137 
L 64.906949 46.204474 
L 65.231929 46.151261 
L 65.556908 39.262494 
L 65.881888 40.043258 
L 66.206867 45.955419 
L 66.531847 45.734039 
L 66.856826 44.756116 
L 67.181806 42.158232 
L 67.506785 38.261407 
L 67.831765 43.712258 
L 68.156744 42.697321 
L 68.481724 38.848625 
L 68.806704 39.002454 
L 69.131683 35.959404 
L 69.456663 42.13049 
L 69.781642 36.028809 
L 70.106622 35.413414 
L 70.431601 35.619879 
L 70.756581 33.500486 
L 71.08156 39.98283 
L 71.40654 34.067298 
L 71.731519 34.517546 
L 72.381478 40.434472 
L 73.031437 34.379166 
L 73.356417 30.461807 
L 73.681396 34.156917 
L 74.006376 31.016121 
L 74.331355 35.404068 
L 74.656335 26.866699 
L 74.981314 26.455965 
L 75.306294 32.56202 
L 75.631274 30.12089 
L 75.956253 33.481182 
L 76.281233 31.714644 
L 76.606212 27.649731 
L 76.931192 27.228451 
L 77.256171 32.56096 
L 77.581151 31.402118 
L 77.90613 32.019849 
L 78.23111 31.148173 
L 78.556089 27.277599 
L 78.881069 31.677465 
L 79.206048 26.776246 
L 79.856007 29.133949 
L 80.180987 33.504516 
L 80.505966 28.935446 
L 80.830946 30.374062 
L 81.155925 32.34675 
L 81.480905 32.618671 
L 81.805885 39.034384 
L 82.130864 27.75813 
L 82.455844 27.586726 
L 82.780823 28.921682 
L 83.105803 25.216072 
L 83.430782 28.666195 
L 83.755762 33.339787 
L 84.080741 27.93655 
L 84.405721 27.17135 
L 84.7307 27.208631 
L 85.05568 29.135443 
L 85.380659 32.291353 
L 85.705639 30.308695 
L 86.030618 31.578189 
L 86.355598 33.442777 
L 86.680577 34.313932 
L 87.005557 26.593248 
L 87.330536 28.568915 
L 87.655516 33.980716 
L 87.980495 34.23907 
L 88.305475 32.724824 
L 88.630455 33.672411 
L 88.955434 31.308546 
L 89.280414 30.160776 
L 89.605393 38.07839 
L 89.930373 34.445259 
L 90.580332 45.694706 
L 91.230291 35.339564 
L 91.55527 44.93079 
L 91.88025 30.683486 
L 92.205229 32.336739 
L 92.530209 23.681918 
L 92.855188 24.665819 
L 93.505147 24.927734 
L 93.830127 31.232528 
L 94.155106 35.102213 
L 94.480086 36.204857 
L 94.805066 27.078569 
L 95.130045 25.886636 
L 95.455025 32.639651 
L 95.780004 25.657099 
L 96.104984 26.789833 
L 96.429963 25.68769 
L 96.754943 32.988929 
L 97.079922 28.583272 
L 97.404902 29.541664 
L 97.729881 31.118501 
L 98.054861 34.487755 
L 98.37984 27.226751 
L 98.70482 36.151757 
L 99.029799 33.800917 
L 99.354779 25.027841 
L 99.679758 23.502599 
L 100.004738 35.054866 
L 100.329717 35.006106 
L 100.654697 31.580439 
L 100.979676 35.539094 
L 101.304656 37.560462 
L 101.629636 34.566429 
L 101.954615 33.856163 
L 102.279595 37.391986 
L 102.604574 42.39226 
L 102.929554 34.746345 
L 103.254533 31.779025 
L 103.579513 25.518299 
L 103.904492 32.736512 
L 104.229472 27.641037 
L 104.554451 26.896906 
L 104.879431 27.20299 
L 105.20441 30.138571 
L 105.52939 28.330579 
L 105.854369 29.871353 
L 106.179349 34.279422 
L 106.504328 29.637017 
L 106.829308 31.58208 
L 107.154287 30.890663 
L 107.479267 30.533543 
L 107.804247 25.821023 
L 108.129226 32.771903 
L 108.454206 26.707628 
L 108.779185 34.094657 
L 109.104165 36.361746 
L 109.429144 37.733298 
L 109.754124 32.668768 
L 110.079103 33.601095 
L 110.404083 40.371739 
L 110.729062 41.534153 
L 111.054042 28.385277 
L 111.379021 23.463017 
L 111.704001 26.156594 
L 112.02898 25.215579 
L 112.35396 27.808389 
L 112.678939 28.860024 
L 113.003919 27.146963 
L 113.328898 32.871557 
L 113.653878 32.325594 
L 113.978857 29.516721 
L 114.303837 29.331864 
L 114.953796 31.397908 
L 115.278776 30.884831 
L 115.603755 32.216014 
L 115.928735 28.748515 
L 116.253714 23.266404 
L 116.903673 25.991047 
L 117.228653 22.34482 
L 117.553632 24.490325 
L 117.878612 22.799252 
L 118.203591 23.91222 
L 118.85355 29.525424 
L 119.17853 33.308929 
L 119.503509 29.384657 
L 119.828489 29.938497 
L 120.153468 23.653073 
L 120.478448 22.808809 
L 120.803428 35.303879 
L 121.128407 26.537342 
L 121.453387 28.61267 
L 121.778366 34.15017 
L 122.103346 31.349262 
L 122.428325 23.397175 
L 122.753305 29.757265 
L 123.078284 27.767846 
L 123.403264 24.906416 
L 123.728243 33.63704 
L 124.053223 31.949686 
L 124.378202 34.341654 
L 125.028161 32.431197 
L 125.353141 24.325675 
L 125.67812 27.15617 
L 126.0031 27.986436 
L 126.328079 31.830069 
L 126.653059 32.17556 
L 126.978038 35.983691 
L 127.303018 32.866654 
L 127.627998 26.722844 
L 127.952977 30.599781 
L 128.277957 30.037035 
L 128.602936 28.134245 
L 128.927916 28.362143 
L 129.252895 28.278555 
L 129.902854 24.954345 
L 130.227834 28.417084 
L 130.552813 26.820546 
L 130.877793 29.090895 
L 131.202772 26.564924 
L 131.527752 26.729763 
L 131.852731 31.18929 
L 132.177711 27.351466 
L 132.50269 25.313588 
L 132.82767 33.971973 
L 133.152649 36.610796 
L 133.477629 37.182408 
L 133.802609 36.546563 
L 134.127588 34.066157 
L 134.452568 34.537991 
L 134.777547 33.984374 
L 135.102527 34.193769 
L 135.427506 28.30084 
L 135.752486 28.671833 
L 136.077465 30.546931 
L 136.402445 26.346726 
L 136.727424 31.838522 
L 137.052404 29.01811 
L 137.377383 31.216262 
L 137.702363 34.536898 
L 138.027342 24.03405 
L 138.352322 26.707846 
L 138.677301 24.206864 
L 139.002281 33.876051 
L 139.32726 24.48842 
L 139.977219 35.263089 
L 140.302199 27.084215 
L 140.627179 29.489096 
L 140.952158 29.5454 
L 141.277138 32.875174 
L 141.602117 31.300822 
L 141.927097 28.591225 
L 142.252076 32.338617 
L 142.577056 32.574046 
L 142.902035 28.282816 
L 143.227015 33.684985 
L 143.551994 27.341523 
L 143.876974 25.003964 
L 144.201953 26.8331 
L 144.526933 34.644419 
L 145.176892 28.961652 
L 145.501871 31.69274 
L 145.826851 31.657849 
L 146.15183 27.154379 
L 146.47681 31.510369 
L 146.80179 30.48639 
L 147.126769 36.051576 
L 147.451749 24.474087 
L 147.776728 29.494227 
L 148.101708 26.633859 
L 148.426687 29.171634 
L 148.751667 36.003369 
L 149.076646 36.34064 
L 149.401626 28.234426 
L 149.726605 28.525962 
L 150.051585 26.532841 
L 150.376564 28.675613 
L 150.701544 30.026812 
L 151.026523 32.513387 
L 151.351503 29.477395 
L 151.676482 28.832685 
L 152.001462 28.848789 
L 152.651421 24.664808 
L 152.9764 24.48192 
L 153.30138 26.739716 
L 153.62636 26.476827 
L 153.951339 36.151194 
L 154.276319 24.486825 
L 154.601298 31.330235 
L 155.251257 36.887263 
L 155.576237 30.703217 
L 155.901216 30.043632 
L 156.226196 32.337012 
L 156.876155 31.232875 
L 157.201134 29.087479 
L 157.526114 24.475184 
L 157.851093 27.133235 
L 158.501052 24.232058 
L 158.826032 28.269533 
L 159.151011 26.165148 
L 159.475991 29.455932 
L 159.800971 34.093705 
L 160.12595 28.841196 
L 160.45093 25.974392 
L 160.775909 25.053971 
L 161.100889 29.370535 
L 161.425868 24.299114 
L 161.750848 30.277212 
L 162.075827 26.211873 
L 162.400807 23.664821 
L 162.725786 26.129344 
L 163.050766 24.929027 
L 163.375745 29.513193 
L 163.700725 32.215697 
L 164.025704 36.867323 
L 164.350684 30.297838 
L 164.675663 32.999125 
L 165.000643 36.752593 
L 165.325622 29.388449 
L 165.650602 28.741846 
L 166.300561 32.704569 
L 166.625541 29.684295 
L 166.95052 30.22943 
L 167.2755 27.289026 
L 167.600479 32.401476 
L 167.925459 28.825311 
L 168.250438 27.41987 
L 168.575418 27.887328 
L 168.900397 28.625695 
L 169.225377 28.588151 
L 169.550356 30.547409 
L 169.875336 25.588486 
L 170.200315 31.824041 
L 170.525295 27.503858 
L 170.850274 26.674158 
L 171.175254 27.57926 
L 171.500233 27.553246 
L 171.825213 28.359814 
L 172.150192 32.855462 
L 172.475172 25.541462 
L 172.800152 35.732508 
L 173.450111 41.266665 
L 173.77509 34.611507 
L 174.10007 35.414875 
L 174.425049 28.400531 
L 174.750029 35.012491 
L 175.075008 34.049248 
L 175.399988 27.878486 
L 175.724967 26.730426 
L 176.049947 27.267462 
L 176.374926 28.4699 
L 176.699906 25.462187 
L 177.024885 23.510426 
L 177.349865 26.29805 
L 177.674844 25.129063 
L 177.999824 22.358467 
L 178.324803 25.123203 
L 178.649783 24.181066 
L 178.974762 24.044342 
L 179.299742 31.395481 
L 179.624722 29.207706 
L 179.949701 24.29863 
L 180.274681 27.283703 
L 180.59966 35.085677 
L 181.249619 26.335129 
L 181.574599 26.878194 
L 181.899578 36.268487 
L 182.224558 30.939103 
L 182.549537 33.006606 
L 182.874517 37.535355 
L 183.199496 38.882486 
L 183.849455 27.137317 
L 184.174435 31.835913 
L 184.499414 30.886586 
L 184.824394 33.07639 
L 185.149373 32.59635 
L 185.474353 25.015088 
L 185.799333 30.917667 
L 186.124312 31.347098 
L 186.449292 33.93455 
L 187.099251 29.14753 
L 187.42423 28.526938 
L 187.74921 25.780162 
L 188.074189 33.422664 
L 188.724148 25.867007 
L 189.049128 28.795746 
L 189.374107 33.19126 
L 189.699087 33.511075 
L 190.024066 29.650089 
L 190.674025 40.189299 
L 190.999005 43.707076 
L 191.323984 35.965485 
L 191.648964 34.826062 
L 191.973943 32.856604 
L 192.298923 26.928216 
L 192.623903 31.340071 
L 193.273862 44.144956 
L 193.598841 36.704166 
L 193.923821 46.530667 
L 194.2488 42.986886 
L 194.57378 44.414138 
L 194.898759 51.837653 
L 195.548718 38.812273 
L 195.873698 34.881604 
L 196.198677 39.541575 
L 196.523657 36.300304 
L 196.848636 29.75621 
L 197.498595 28.109562 
L 197.823575 30.76939 
L 198.473534 26.445912 
L 198.798514 27.109204 
L 199.123493 28.038358 
L 199.448473 28.592067 
L 200.423411 35.208335 
L 200.748391 42.223555 
L 201.07337 33.957558 
L 201.39835 33.186525 
L 202.048309 26.972637 
L 202.373288 30.151936 
L 202.698268 26.621799 
L 203.023247 32.755462 
L 203.348227 31.610542 
L 203.673206 25.427207 
L 203.998186 25.004709 
L 204.323165 23.729909 
L 204.648145 29.016418 
L 204.973124 31.660627 
L 205.298104 23.320172 
L 205.623084 28.927336 
L 205.948063 27.070828 
L 206.273043 37.431867 
L 206.598022 30.502853 
L 206.923002 29.212916 
L 207.247981 38.185303 
L 207.572961 22.679522 
L 207.89794 26.93106 
L 208.547899 23.10614 
L 208.872879 24.746645 
L 209.197858 22.679713 
L 209.522838 26.359634 
L 209.847817 28.224713 
L 210.172797 34.901729 
L 210.822756 22.576298 
L 211.472715 25.208845 
L 211.797695 28.73151 
L 212.122674 29.301914 
L 212.447654 23.794885 
L 212.772633 26.477672 
L 213.097613 22.69649 
L 213.422592 24.620378 
L 213.747572 28.244157 
L 214.072551 23.317979 
L 214.397531 33.304081 
L 214.72251 30.484409 
L 215.04749 22.880279 
L 215.372469 27.089409 
L 215.697449 28.911036 
L 216.022428 27.860064 
L 216.347408 25.995351 
L 216.672387 27.967092 
L 216.997367 25.4423 
L 217.322346 30.883967 
L 217.647326 29.025669 
L 217.972305 35.834213 
L 218.297285 27.710368 
L 218.622265 25.93311 
L 218.947244 28.204713 
L 219.272224 27.121761 
L 219.597203 24.322021 
L 219.922183 22.814301 
L 220.247162 24.038836 
L 220.572142 29.137521 
L 220.897121 26.267248 
L 221.222101 31.764555 
L 221.54708 26.757634 
L 221.87206 25.602489 
L 222.197039 27.407988 
L 222.522019 27.552954 
L 222.846998 28.216959 
L 223.171978 26.269513 
L 223.496957 30.881709 
L 223.821937 23.270617 
L 224.146916 23.302618 
L 224.471896 25.413748 
L 225.121855 21.328693 
L 225.771814 32.765284 
L 226.096794 29.3492 
L 226.421773 28.773336 
L 226.746753 35.336775 
L 227.071732 38.744313 
L 227.396712 35.344707 
L 227.721691 25.667108 
L 228.046671 29.603397 
L 228.37165 25.277373 
L 228.69663 30.315203 
L 229.346589 22.9852 
L 230.321527 30.4477 
L 230.971486 24.732529 
L 231.621446 26.773362 
L 231.946425 34.382958 
L 232.271405 38.384314 
L 232.921364 26.632315 
L 233.246343 25.860925 
L 233.571323 20.900947 
L 233.896302 25.721186 
L 234.221282 26.663853 
L 234.546261 30.550282 
L 234.871241 25.496682 
L 235.19622 30.902126 
L 235.5212 22.813524 
L 235.846179 26.028093 
L 236.171159 24.284293 
L 236.496138 26.396034 
L 236.821118 27.38316 
L 237.146097 29.917222 
L 237.471077 29.699391 
L 237.796057 28.204323 
L 238.121036 27.412965 
L 238.446016 32.481424 
L 238.770995 33.916161 
L 239.095975 31.423479 
L 239.745934 25.088197 
L 240.070913 25.112508 
L 240.395893 33.54795 
L 240.720872 31.60896 
L 241.045852 26.208964 
L 241.370831 26.423043 
L 241.695811 30.282636 
L 242.02079 25.641219 
L 242.34577 31.569231 
L 242.670749 29.370108 
L 242.995729 23.708629 
L 243.320708 22.532462 
L 243.645688 33.855958 
L 243.970667 31.594539 
L 244.295647 23.818311 
L 244.945606 36.402437 
L 245.270586 26.249387 
L 245.595565 24.930946 
L 246.245524 28.709557 
L 246.570504 25.145962 
L 246.895483 27.32276 
L 247.220463 30.373158 
L 247.545442 30.735727 
L 247.870422 25.17028 
L 248.195401 25.817471 
L 248.520381 23.707898 
L 248.84536 25.025728 
L 249.17034 22.906772 
L 249.495319 30.449707 
L 249.820299 34.387131 
L 250.470258 30.785706 
L 250.795238 38.201938 
L 251.120217 26.100178 
L 251.445197 33.110942 
L 251.770176 29.268029 
L 252.095156 27.942985 
L 252.420135 28.26878 
L 252.745115 23.051929 
L 253.070094 27.32956 
L 253.395074 27.712953 
L 253.720053 20.498987 
L 254.045033 27.611598 
L 254.370012 29.555701 
L 254.694992 26.82464 
L 255.019971 28.370701 
L 255.344951 27.894577 
L 255.99491 26.771933 
L 256.319889 23.382984 
L 256.644869 24.695045 
L 256.969848 22.409192 
L 257.294828 28.218461 
L 257.944787 28.04036 
L 258.269767 23.09485 
L 258.594746 26.965127 
L 258.919726 36.394013 
L 259.569685 23.374477 
L 259.894664 23.780323 
L 260.544623 26.097265 
L 260.869603 23.585156 
L 261.194582 23.535435 
L 261.519562 30.042542 
L 261.844541 26.38442 
L 262.169521 28.190606 
L 262.4945 28.137574 
L 262.81948 24.471912 
L 263.144459 28.26341 
L 263.469439 23.543651 
L 263.794419 22.76403 
L 264.444378 34.878681 
L 264.769357 28.969507 
L 265.094337 28.289208 
L 265.419316 28.959265 
L 265.744296 20.467953 
L 266.069275 29.664844 
L 266.394255 24.064618 
L 266.719234 30.570738 
L 267.044214 22.637538 
L 267.369193 21.180332 
L 267.694173 21.531586 
L 268.019152 24.162797 
L 268.344132 28.909961 
L 268.669111 23.766228 
L 268.994091 22.757394 
L 269.31907 19.296 
L 269.64405 19.637935 
L 269.969029 27.773286 
L 270.294009 23.629002 
L 270.618989 24.462039 
L 270.943968 28.246294 
L 271.268948 28.410862 
L 271.593927 27.134593 
L 271.918907 31.623026 
L 272.243886 27.648642 
L 272.568866 37.128316 
L 272.893845 22.214413 
L 273.218825 21.500807 
L 273.543804 26.287424 
L 274.193763 21.212144 
L 274.518743 28.609558 
L 274.843722 24.847356 
L 275.168702 25.407621 
L 275.493681 27.392351 
L 275.818661 23.241425 
L 276.14364 23.523257 
L 276.46862 27.926334 
L 276.7936 26.461391 
L 277.443559 33.574929 
L 277.768538 27.4904 
L 278.093518 29.198374 
L 278.418497 25.997766 
L 278.743477 33.338083 
L 279.068456 31.271089 
L 279.393436 26.376313 
L 279.718415 26.973684 
L 280.043395 29.632463 
L 280.368374 24.44186 
L 280.693354 23.765337 
L 281.018333 28.06102 
L 281.343313 24.892337 
L 281.668292 24.72182 
L 281.993272 26.68258 
L 282.318251 23.729571 
L 282.643231 28.609007 
L 282.96821 29.497697 
L 283.29319 38.169823 
L 283.61817 29.275791 
L 284.268129 25.096146 
L 284.593108 26.450331 
L 284.918088 29.124992 
L 285.243067 24.936218 
L 285.568047 25.217073 
L 285.893026 29.494925 
L 286.218006 24.642649 
L 286.542985 22.585748 
L 286.867965 31.142868 
L 287.192944 28.447644 
L 287.517924 36.397215 
L 287.842903 33.52157 
L 288.167883 38.850501 
L 288.492862 34.176443 
L 288.817842 31.991905 
L 289.142821 30.983327 
L 289.467801 34.650321 
L 289.792781 33.121378 
L 290.11776 30.88937 
L 290.44274 26.06706 
L 290.767719 29.324018 
L 291.092699 34.412791 
L 291.417678 32.448645 
L 291.742658 27.601752 
L 292.067637 25.00449 
L 292.392617 27.644993 
L 292.717596 23.10985 
L 293.042576 22.894545 
L 293.367555 28.839677 
L 293.692535 23.08725 
L 294.342494 32.917708 
L 294.667473 31.312182 
L 294.992453 22.897608 
L 295.317432 24.193112 
L 295.642412 23.078676 
L 295.967391 27.160435 
L 296.292371 25.428469 
L 296.617351 21.602479 
L 297.26731 29.814339 
L 297.592289 31.307056 
L 297.917269 26.500078 
L 298.242248 33.08643 
L 298.567228 32.080514 
L 299.217187 20.994839 
L 300.192125 31.301007 
L 300.517105 25.881761 
L 300.842084 31.743067 
L 301.167064 22.335402 
L 301.492043 31.270768 
L 301.817023 23.8976 
L 302.142002 26.02565 
L 302.466982 26.192926 
L 302.791962 26.496766 
L 303.116941 29.732235 
L 303.441921 23.034063 
L 303.7669 28.248313 
L 304.09188 35.258033 
L 304.416859 25.371021 
L 304.741839 26.6375 
L 305.066818 32.501468 
L 306.041757 28.064358 
L 306.366736 27.377608 
L 306.691716 25.185657 
L 307.016695 28.67614 
L 307.341675 23.847812 
L 307.666654 24.986536 
L 307.991634 29.850077 
L 308.316613 37.619575 
L 308.641593 28.035048 
L 308.966572 23.449605 
L 309.291552 21.324234 
L 309.616532 27.54635 
L 309.941511 23.25217 
L 310.266491 29.707082 
L 310.59147 23.741776 
L 310.91645 27.665929 
L 311.241429 29.809764 
L 311.566409 21.340592 
L 311.891388 25.712901 
L 312.216368 27.466155 
L 312.541347 26.76171 
L 312.866327 25.779256 
L 313.191306 28.19785 
L 313.516286 32.748762 
L 313.841265 29.056748 
L 314.166245 27.520865 
L 314.491224 25.071675 
L 314.816204 32.530428 
L 315.141183 31.211878 
L 315.466163 26.621638 
L 315.791143 28.279596 
L 316.116122 28.142795 
L 316.441102 24.908103 
L 317.091061 20.325188 
L 317.74102 34.575889 
L 318.065999 28.812197 
L 318.390979 27.243321 
L 318.715958 24.770379 
L 319.040938 20.568346 
L 319.365917 25.402158 
L 319.690897 26.672439 
L 320.015876 26.957798 
L 320.340856 31.399437 
L 320.665835 33.373962 
L 320.990815 27.933614 
L 321.315794 36.59155 
L 321.640774 36.699048 
L 321.965753 36.311818 
L 322.290733 28.710553 
L 322.940692 24.078858 
L 323.265672 25.485975 
L 323.590651 26.25447 
L 323.915631 21.01827 
L 324.56559 33.733378 
L 324.890569 33.373596 
L 325.215549 29.295906 
L 325.540528 43.736807 
L 325.865508 32.119806 
L 326.190487 32.947935 
L 326.515467 29.831398 
L 326.840446 22.482412 
L 327.165426 26.394729 
L 327.490405 27.553643 
L 327.815385 35.410618 
L 328.140364 28.086272 
L 328.465344 27.501959 
L 328.790324 24.024862 
L 329.115303 27.071471 
L 329.440283 23.960216 
L 329.765262 23.832432 
L 330.090242 25.878501 
L 330.415221 25.990363 
L 330.740201 27.951177 
L 331.06518 28.624577 
L 331.39016 24.888964 
L 331.715139 29.310784 
L 332.040119 24.95422 
L 332.365098 27.749811 
L 332.690078 24.184781 
L 333.015057 22.710879 
L 333.665016 37.037588 
L 333.989996 30.312121 
L 334.314975 27.570411 
L 334.639955 28.804268 
L 334.964934 34.263257 
L 335.289914 36.194954 
L 335.939873 27.331833 
L 336.264853 31.968966 
L 336.914812 25.642226 
L 337.239791 25.060114 
L 337.564771 33.414892 
L 337.88975 27.415868 
L 338.21473 31.474092 
L 338.539709 22.355988 
L 338.864689 25.143032 
L 339.514648 29.185585 
L 339.839627 24.379097 
L 340.164607 32.538316 
L 340.489586 30.215694 
L 340.814566 22.391051 
L 341.139545 33.913028 
L 341.464525 35.534091 
L 342.114484 33.018313 
L 342.439464 31.227629 
L 342.764443 25.423843 
L 343.089423 27.39767 
L 343.414402 36.24257 
L 343.739382 28.470423 
L 344.064361 34.151343 
L 344.71432 23.58421 
L 345.0393 23.684112 
L 345.364279 31.40581 
L 345.689259 20.951188 
L 346.014238 21.771419 
L 346.339218 31.229863 
L 346.664197 32.704085 
L 346.989177 39.920363 
L 347.314156 33.812663 
L 347.639136 25.491118 
L 348.289095 37.691561 
L 348.614075 36.062281 
L 348.939054 27.611245 
L 349.264034 33.903709 
L 349.589013 28.98493 
L 349.913993 26.703126 
L 350.238972 26.370496 
L 350.563952 28.155642 
L 350.888931 30.821947 
L 351.213911 27.321578 
L 351.53889 26.539704 
L 351.86387 24.946483 
L 352.188849 30.974833 
L 352.513829 31.881631 
L 352.838808 32.120657 
L 353.488767 26.741687 
L 353.813747 25.941538 
L 354.138726 25.685385 
L 354.463706 22.301063 
L 354.788686 27.353839 
L 355.113665 20.855937 
L 355.438645 29.922153 
L 355.763624 34.86098 
L 356.088604 35.068125 
L 356.413583 28.311239 
L 356.738563 26.934914 
L 357.063542 29.257848 
L 357.713501 22.382126 
L 358.36346 26.070039 
L 358.68844 26.402607 
L 359.338399 29.124021 
L 359.663378 20.115313 
L 360.313337 32.522076 
L 360.638317 32.068974 
L 360.963296 24.947022 
L 361.288276 30.399615 
L 361.613256 26.64926 
L 361.938235 24.551482 
L 362.263215 25.660751 
L 362.588194 36.976152 
L 363.563133 24.161387 
L 364.213092 31.948517 
L 364.538071 25.350631 
L 364.863051 24.503823 
L 365.18803 33.920623 
L 365.51301 27.751386 
L 365.837989 25.033408 
L 366.487948 30.149105 
L 366.812928 32.727405 
L 367.137907 33.562639 
L 367.462887 32.586549 
L 367.787867 37.281452 
L 368.112846 34.745339 
L 368.437826 27.036673 
L 369.087785 24.376235 
L 369.412764 28.620867 
L 369.737744 25.915084 
L 370.062723 27.959224 
L 370.387703 28.436998 
L 370.712682 22.733921 
L 371.362641 32.874432 
L 371.687621 35.213355 
L 372.0126 32.432325 
L 372.33758 23.915898 
L 372.662559 27.361626 
L 373.312518 25.640077 
L 373.637498 26.425042 
L 373.962477 24.728455 
L 374.287457 28.49244 
L 374.937416 20.516695 
L 375.262396 26.817911 
L 375.587375 36.157105 
L 375.912355 28.480991 
L 376.237334 28.906751 
L 376.562314 27.124689 
L 376.887293 22.425871 
L 377.212273 28.824071 
L 377.212273 28.824071 
" style="fill:none;stroke:#1f77b4;stroke-linecap:square;stroke-width:1.5;"/>
   </g>
   <g id="line2d_14">
    <path clip-path="url(#p6448835448)" d="M 52.557727 261.216 
L 377.212273 261.216 
L 377.212273 261.216 
" style="fill:none;stroke:#ff7f0e;stroke-linecap:square;stroke-width:1.5;"/>
   </g>
   <g id="patch_3">
    <path d="M 36.325 273.312 
L 36.325 7.2 
" style="fill:none;stroke:#000000;stroke-linecap:square;stroke-linejoin:miter;stroke-width:0.8;"/>
   </g>
   <g id="patch_4">
    <path d="M 393.445 273.312 
L 393.445 7.2 
" style="fill:none;stroke:#000000;stroke-linecap:square;stroke-linejoin:miter;stroke-width:0.8;"/>
   </g>
   <g id="patch_5">
    <path d="M 36.325 273.312 
L 393.445 273.312 
" style="fill:none;stroke:#000000;stroke-linecap:square;stroke-linejoin:miter;stroke-width:0.8;"/>
   </g>
   <g id="patch_6">
    <path d="M 36.325 7.2 
L 393.445 7.2 
" style="fill:none;stroke:#000000;stroke-linecap:square;stroke-linejoin:miter;stroke-width:0.8;"/>
   </g>
   <g id="legend_1">
    <g id="patch_7">
     <path d="M 244.445 156.091937 
L 386.445 156.091937 
Q 388.445 156.091937 388.445 154.091937 
L 388.445 126.420062 
Q 388.445 124.420062 386.445 124.420062 
L 244.445 124.420062 
Q 242.445 124.420062 242.445 126.420062 
L 242.445 154.091937 
Q 242.445 156.091937 244.445 156.091937 
z
" style="fill:#ffffff;opacity:0.8;stroke:#cccccc;stroke-linejoin:miter;"/>
    </g>
    <g id="line2d_15">
     <path d="M 246.445 133.006 
L 266.445 133.006 
" style="fill:none;stroke:#1f77b4;stroke-linecap:square;stroke-width:1.5;"/>
    </g>
    <g id="line2d_16"/>
    <g id="text_15">
     <!-- 种群个体平均目标函数值 -->
     <defs>
      <path d="M 66.015625 62.5 
Q 66.015625 77.734375 65.625 82.421875 
L 73.828125 82.421875 
Q 73.4375 78.125 73.4375 62.5 
L 93.75 62.5 
Q 93.359375 58.203125 93.359375 50.78125 
L 93.359375 24.21875 
Q 93.359375 19.921875 93.75 14.453125 
L 85.9375 14.453125 
L 85.9375 22.265625 
L 73.4375 22.265625 
L 73.4375 5.859375 
Q 73.4375 -4.296875 73.828125 -10.9375 
L 65.625 -10.9375 
Q 66.015625 -4.296875 66.015625 5.859375 
L 66.015625 22.265625 
L 53.515625 22.265625 
L 53.515625 12.890625 
L 45.703125 12.890625 
Q 46.09375 17.578125 46.09375 23.4375 
L 46.09375 50 
Q 46.09375 58.203125 45.703125 62.5 
L 66.015625 62.5 
z
M 5.46875 50.78125 
Q 11.328125 50.390625 19.140625 50.390625 
L 22.265625 50.390625 
L 22.265625 67.578125 
Q 18.359375 66.40625 8.984375 64.453125 
Q 7.421875 67.96875 5.46875 71.484375 
Q 14.0625 71.875 22.0625 74.015625 
Q 30.078125 76.171875 36.71875 79.6875 
Q 39.0625 76.5625 42.578125 72.265625 
Q 38.671875 71.875 35.9375 71.09375 
Q 33.203125 70.3125 29.6875 69.53125 
L 29.6875 50.390625 
Q 34.765625 50.390625 42.1875 50.78125 
L 42.1875 43.75 
Q 34.765625 44.140625 29.6875 44.140625 
L 29.6875 3.515625 
Q 29.6875 -1.953125 30.078125 -10.15625 
L 21.875 -10.15625 
Q 22.265625 -1.953125 22.265625 3.515625 
L 22.265625 29.296875 
Q 19.140625 21.484375 16.59375 16.796875 
Q 14.0625 12.109375 9.765625 5.46875 
Q 6.640625 9.765625 3.90625 13.28125 
Q 9.375 19.140625 13.859375 26.953125 
Q 18.359375 34.765625 20.3125 44.140625 
L 14.453125 44.140625 
Q 8.984375 44.140625 5.46875 43.75 
z
M 66.015625 28.515625 
L 66.015625 56.25 
L 53.515625 56.25 
L 53.515625 28.515625 
z
M 85.9375 28.515625 
L 85.9375 56.25 
L 73.4375 56.25 
L 73.4375 28.515625 
z
M 37.109375 38.671875 
Q 38.28125 35.9375 40.234375 33.203125 
Q 42.1875 30.46875 44.53125 25.390625 
Q 41.015625 23.828125 37.890625 21.484375 
Q 35.9375 25.78125 34.5625 28.703125 
Q 33.203125 31.640625 30.859375 34.765625 
Q 33.203125 36.328125 37.109375 38.671875 
z
" id="SimHei-31181"/>
      <path d="M 39.0625 -6.640625 
L 39.0625 0.390625 
L 23.046875 0.390625 
L 23.046875 -9.375 
L 15.625 -9.375 
Q 16.015625 -3.515625 16.015625 21.875 
Q 12.890625 17.1875 9.375 13.28125 
Q 7.03125 16.40625 3.125 17.578125 
Q 7.03125 21.484375 10.9375 26.953125 
Q 14.84375 32.421875 16.40625 37.109375 
Q 13.28125 37.109375 8.59375 36.71875 
L 8.59375 43.359375 
Q 14.0625 42.96875 17.578125 42.96875 
Q 18.75 48.828125 18.75 53.125 
Q 10.546875 53.125 5.859375 52.734375 
L 5.859375 59.375 
Q 10.9375 58.984375 18.75 58.984375 
L 18.75 69.921875 
Q 16.40625 69.921875 10.15625 69.53125 
L 10.15625 76.5625 
Q 16.015625 76.171875 19.921875 76.171875 
L 46.09375 76.171875 
Q 45.703125 70.3125 45.703125 58.984375 
Q 48.046875 58.984375 51.171875 59.375 
L 51.171875 52.734375 
Q 48.046875 53.125 45.703125 53.125 
Q 45.703125 41.796875 46.09375 37.109375 
L 23.4375 37.109375 
Q 21.09375 30.078125 19.140625 27.34375 
L 46.484375 27.34375 
Q 46.09375 22.265625 46.09375 10.546875 
Q 46.09375 -1.171875 46.484375 -6.640625 
z
M 76.171875 19.921875 
Q 91.015625 19.921875 94.921875 20.3125 
L 94.921875 13.671875 
Q 91.015625 14.0625 76.171875 14.0625 
L 76.171875 3.515625 
Q 76.171875 -3.515625 76.5625 -10.9375 
L 68.75 -10.9375 
Q 69.140625 -3.515625 69.140625 3.515625 
L 69.140625 14.0625 
Q 55.46875 14.0625 50 13.671875 
L 50 20.3125 
Q 55.46875 19.921875 69.140625 19.921875 
L 69.140625 35.15625 
Q 57.421875 35.15625 53.125 34.765625 
L 53.125 41.40625 
Q 57.8125 41.015625 69.140625 41.015625 
L 69.140625 54.6875 
Q 58.984375 54.6875 52.734375 54.296875 
L 52.734375 60.9375 
Q 58.984375 60.546875 74.21875 60.546875 
Q 78.515625 69.921875 81.640625 80.859375 
Q 86.328125 78.515625 90.625 77.734375 
Q 89.0625 75.390625 86.71875 71.28125 
Q 84.375 67.1875 81.25 60.546875 
Q 87.890625 60.546875 92.96875 60.9375 
L 92.96875 54.296875 
Q 88.28125 54.6875 76.171875 54.6875 
L 76.171875 41.015625 
L 81.640625 41.015625 
L 91.796875 41.40625 
L 91.796875 34.765625 
Q 86.328125 35.15625 76.171875 35.15625 
z
M 39.0625 6.25 
L 39.0625 21.09375 
L 23.046875 21.09375 
L 23.046875 6.25 
z
M 38.671875 58.984375 
L 38.671875 69.921875 
L 25.78125 69.921875 
L 25.78125 58.984375 
z
M 38.671875 42.96875 
L 38.671875 53.125 
L 25.78125 53.125 
Q 25.390625 48.828125 24.609375 42.96875 
z
M 62.890625 65.234375 
Q 59.375 71.875 55.859375 76.953125 
Q 58.59375 78.125 61.328125 80.46875 
Q 64.84375 76.5625 69.140625 69.53125 
Q 65.234375 67.1875 62.890625 65.234375 
z
" id="SimHei-32676"/>
      <path d="M 53.515625 75.390625 
Q 69.921875 51.171875 96.09375 43.359375 
Q 92.1875 38.671875 90.234375 34.375 
Q 64.84375 45.3125 49.21875 69.140625 
Q 34.765625 46.09375 10.546875 33.203125 
Q 8.59375 36.71875 3.90625 40.625 
Q 22.65625 48.4375 33 60.546875 
Q 43.359375 72.65625 46.875 82.421875 
Q 51.5625 80.46875 56.25 78.90625 
Q 54.6875 76.953125 53.515625 75.390625 
z
M 45.703125 36.71875 
Q 45.703125 42.96875 44.921875 52.734375 
L 53.90625 52.734375 
Q 53.515625 46.09375 53.515625 36.328125 
L 53.515625 8.59375 
Q 53.515625 -0.390625 53.90625 -9.765625 
L 45.3125 -9.765625 
Q 45.703125 0 45.703125 8.203125 
z
" id="SimHei-20010"/>
      <path d="M 57.03125 60.15625 
Q 57.03125 74.21875 56.640625 80.078125 
L 64.453125 80.078125 
Q 64.0625 74.609375 64.0625 60.15625 
L 81.25 60.15625 
Q 89.0625 60.15625 92.578125 60.546875 
L 92.578125 53.515625 
Q 89.0625 53.90625 81.25 53.90625 
L 70.703125 53.90625 
Q 76.953125 28.90625 96.875 18.75 
Q 92.578125 16.40625 90.234375 12.109375 
Q 69.140625 28.125 64.0625 53.515625 
L 64.0625 16.015625 
Q 75.390625 16.015625 78.90625 16.40625 
L 78.90625 9.375 
Q 75.390625 9.765625 64.0625 9.765625 
Q 64.0625 1.171875 64.453125 -8.984375 
L 56.640625 -8.984375 
Q 57.03125 1.5625 57.03125 9.765625 
Q 50 9.765625 42.1875 9.375 
L 42.1875 16.40625 
Q 50 16.015625 57.03125 16.015625 
L 57.03125 53.90625 
Q 52.734375 28.125 31.25 10.15625 
Q 28.90625 13.671875 24.21875 16.015625 
Q 44.53125 29.296875 50 53.90625 
L 41.796875 53.90625 
Q 35.546875 53.90625 30.859375 53.515625 
L 30.859375 60.546875 
Q 35.546875 60.15625 41.796875 60.15625 
z
M 31.25 76.5625 
Q 28.515625 73.046875 23.828125 58.984375 
L 23.828125 8.984375 
Q 23.828125 -3.125 24.21875 -8.59375 
L 16.40625 -8.59375 
Q 16.796875 -3.515625 16.796875 8.59375 
L 16.796875 45.3125 
Q 14.84375 41.015625 8.984375 32.03125 
Q 7.03125 35.546875 3.515625 37.890625 
Q 8.203125 42.578125 14.453125 56.4375 
Q 20.703125 70.3125 22.265625 80.078125 
Q 26.5625 78.125 31.25 76.5625 
z
" id="SimHei-20307"/>
      <path d="M 70.703125 75.390625 
Q 76.5625 75.390625 85.15625 75.78125 
L 85.15625 68.359375 
Q 76.953125 68.75 70.703125 68.75 
L 54.296875 68.75 
L 54.296875 31.640625 
L 78.125 31.640625 
Q 86.71875 31.640625 94.140625 32.03125 
L 94.140625 24.609375 
Q 86.71875 25 78.125 25 
L 54.296875 25 
L 54.296875 7.03125 
Q 54.296875 -1.5625 54.6875 -9.375 
L 45.703125 -9.375 
Q 46.09375 -1.5625 46.09375 7.03125 
L 46.09375 25 
L 17.578125 25 
Q 12.109375 25 5.859375 24.609375 
L 5.859375 32.03125 
Q 12.109375 31.640625 18.359375 31.640625 
L 46.09375 31.640625 
L 46.09375 68.75 
L 27.734375 68.75 
Q 21.875 68.75 13.671875 68.359375 
L 13.671875 75.78125 
Q 21.875 75.390625 27.34375 75.390625 
z
M 61.328125 40.625 
Q 70.3125 51.5625 76.5625 64.453125 
Q 80.46875 61.71875 84.375 59.765625 
Q 74.609375 44.53125 67.96875 35.9375 
Q 64.84375 38.671875 61.328125 40.625 
z
M 30.859375 36.71875 
Q 25 48.4375 16.40625 58.203125 
Q 19.53125 60.546875 22.65625 63.28125 
Q 32.421875 51.5625 38.28125 42.578125 
Q 33.59375 39.0625 30.859375 36.71875 
z
" id="SimHei-24179"/>
      <path d="M 90.234375 4.296875 
Q 90.234375 -5.078125 83.78125 -7.03125 
Q 77.34375 -8.984375 69.140625 -9.375 
Q 68.359375 -4.296875 66.40625 0.390625 
Q 77.34375 -0.390625 80.078125 0.96875 
Q 82.8125 2.34375 82.8125 7.8125 
L 83.984375 57.8125 
L 55.46875 57.8125 
Q 53.515625 52.734375 50.96875 47.453125 
Q 48.4375 42.1875 45.703125 37.5 
Q 41.796875 39.84375 38.671875 41.015625 
Q 49.21875 56.640625 54.6875 81.25 
Q 59.375 79.6875 63.671875 78.515625 
Q 62.109375 76.171875 60.546875 72.65625 
Q 58.984375 69.140625 57.421875 64.453125 
L 92.1875 64.453125 
L 90.234375 4.296875 
z
M 19.53125 56.640625 
L 19.53125 68.359375 
Q 19.53125 74.609375 19.140625 79.6875 
L 27.734375 79.6875 
Q 27.34375 73.828125 27.34375 68.359375 
L 27.34375 56.640625 
L 29.6875 56.640625 
Q 34.375 56.640625 39.453125 57.03125 
L 39.453125 49.21875 
Q 34.375 49.609375 29.6875 49.609375 
L 27.34375 49.609375 
L 27.34375 17.1875 
L 39.0625 21.484375 
Q 38.671875 17.578125 39.453125 14.0625 
Q 19.140625 7.421875 15.03125 5.65625 
Q 10.9375 3.90625 7.421875 2.34375 
Q 5.859375 7.421875 3.90625 11.71875 
Q 8.984375 12.5 12.5 13.28125 
Q 16.015625 14.0625 19.53125 15.234375 
L 19.53125 49.609375 
L 17.578125 49.609375 
Q 13.28125 49.609375 6.25 49.21875 
L 6.25 57.03125 
Q 13.28125 56.640625 17.1875 56.640625 
z
M 77.34375 25.390625 
Q 73.046875 22.265625 64.640625 16.40625 
Q 56.25 10.546875 49.609375 4.6875 
Q 46.875 8.984375 44.53125 12.109375 
Q 52.34375 16.40625 58.78125 20.703125 
Q 65.234375 25 74.609375 32.421875 
Q 75.390625 28.90625 77.34375 25.390625 
z
M 58.984375 49.21875 
Q 64.453125 43.75 69.921875 35.9375 
Q 66.40625 33.203125 64.0625 30.859375 
Q 60.9375 36.328125 53.90625 44.140625 
Q 56.25 46.875 58.984375 49.21875 
z
" id="SimHei-22343"/>
      <path d="M 83.984375 76.5625 
Q 83.59375 65.234375 83.59375 55.078125 
L 83.59375 9.375 
Q 83.59375 3.515625 83.984375 -8.59375 
L 75.390625 -8.59375 
L 75.390625 -1.5625 
L 24.609375 -1.5625 
L 24.609375 -8.203125 
L 16.40625 -8.203125 
Q 16.796875 2.34375 16.796875 8.59375 
L 16.796875 55.078125 
Q 16.796875 67.96875 16.40625 76.5625 
L 83.984375 76.5625 
z
M 75.390625 4.6875 
L 75.390625 23.046875 
L 24.609375 23.046875 
L 24.609375 4.6875 
z
M 75.390625 29.296875 
L 75.390625 46.875 
L 24.609375 46.875 
L 24.609375 29.296875 
z
M 75.390625 53.125 
L 75.390625 70.3125 
L 24.609375 70.3125 
L 24.609375 53.125 
z
" id="SimHei-30446"/>
      <path d="M 19.921875 68.75 
Q 19.921875 75 19.53125 80.859375 
L 27.34375 80.859375 
Q 26.953125 75.390625 26.953125 68.75 
L 26.953125 59.375 
Q 33.203125 59.375 40.234375 59.765625 
L 40.234375 52.34375 
Q 33.203125 52.734375 26.953125 52.734375 
L 26.953125 39.453125 
Q 29.6875 41.40625 32.421875 43.75 
Q 37.5 35.546875 41.40625 27.734375 
Q 37.109375 25.78125 33.984375 23.4375 
Q 31.640625 31.25 26.953125 37.890625 
L 26.953125 7.421875 
Q 26.953125 -0.78125 27.34375 -8.984375 
L 19.53125 -8.984375 
Q 19.921875 -0.390625 19.921875 7.421875 
L 19.921875 32.8125 
Q 16.015625 21.875 7.8125 11.71875 
Q 5.46875 14.84375 1.953125 17.578125 
Q 8.59375 24.21875 12.6875 34.171875 
Q 16.796875 44.140625 17.96875 52.734375 
Q 10.546875 52.734375 5.078125 51.953125 
L 5.078125 59.765625 
Q 12.5 59.375 19.921875 59.375 
z
M 80.859375 48.828125 
Q 88.671875 48.828125 94.53125 49.21875 
L 94.53125 41.796875 
Q 88.671875 42.1875 82.421875 42.1875 
L 70.3125 42.1875 
L 70.3125 2.734375 
Q 70.3125 -3.515625 66.796875 -5.46875 
Q 63.28125 -7.421875 54.296875 -8.59375 
Q 53.515625 -3.90625 51.171875 0.390625 
Q 58.984375 0.390625 60.9375 0.96875 
Q 62.890625 1.5625 62.890625 5.46875 
L 62.890625 42.1875 
L 53.125 42.1875 
Q 43.359375 42.1875 39.0625 41.40625 
L 39.0625 49.21875 
Q 44.140625 48.828125 53.125 48.828125 
z
M 76.5625 74.609375 
Q 84.765625 74.609375 89.84375 75 
L 89.84375 67.1875 
Q 82.421875 67.96875 74.21875 67.96875 
L 55.078125 67.96875 
Q 48.828125 67.96875 42.96875 67.1875 
L 42.96875 75 
Q 48.4375 74.609375 55.078125 74.609375 
z
M 82.421875 31.640625 
Q 91.015625 18.359375 96.875 7.8125 
Q 92.578125 5.859375 88.28125 3.125 
Q 83.984375 14.453125 75.390625 26.953125 
Q 79.296875 28.90625 82.421875 31.640625 
z
M 56.25 27.734375 
Q 54.6875 25.390625 50.390625 15.234375 
Q 46.09375 5.078125 43.75 0.78125 
Q 40.234375 2.734375 35.9375 4.296875 
Q 41.015625 12.109375 43.546875 18.546875 
Q 46.09375 25 47.65625 31.25 
Q 51.953125 29.296875 56.25 27.734375 
z
" id="SimHei-26631"/>
      <path d="M 18.75 3.125 
L 81.25 3.125 
L 81.25 34.765625 
Q 81.25 40.625 80.46875 48.046875 
L 89.0625 48.046875 
Q 88.671875 39.0625 88.671875 34.765625 
L 88.671875 0.78125 
Q 88.671875 -4.296875 89.0625 -9.765625 
L 81.25 -9.765625 
L 81.25 -3.515625 
L 10.9375 -3.515625 
Q 11.328125 0.78125 11.328125 21.484375 
Q 11.328125 42.1875 10.9375 48.046875 
L 19.140625 48.046875 
Q 18.75 43.75 18.75 38.671875 
z
M 85.15625 76.953125 
L 85.15625 69.53125 
Q 79.296875 67.578125 69.921875 63.078125 
Q 60.546875 58.59375 54.296875 55.859375 
L 54.296875 17.1875 
Q 54.296875 10.9375 50 9.171875 
Q 45.703125 7.421875 39.453125 6.25 
Q 38.671875 10.546875 36.71875 14.84375 
Q 42.96875 14.84375 45.109375 15.625 
Q 47.265625 16.40625 47.265625 21.484375 
L 47.265625 48.046875 
Q 47.265625 55.46875 46.484375 60.15625 
Q 50.390625 61.328125 57.8125 64.453125 
Q 65.234375 67.578125 70.3125 70.3125 
L 30.46875 70.3125 
Q 22.265625 70.3125 16.015625 69.921875 
L 16.015625 77.34375 
Q 23.828125 76.953125 30.46875 76.953125 
z
M 70.3125 27.34375 
Q 73.4375 24.609375 78.125 19.921875 
Q 75.390625 17.578125 72.65625 14.0625 
Q 68.75 18.359375 65.625 21.484375 
Q 62.5 24.609375 56.25 30.078125 
Q 58.984375 32.8125 60.9375 35.546875 
z
M 42.1875 28.125 
Q 39.453125 26.171875 34.953125 23.234375 
Q 30.46875 20.3125 25 15.625 
Q 23.828125 18.359375 20.703125 22.265625 
Q 23.4375 23.4375 29.484375 27.140625 
Q 35.546875 30.859375 39.84375 34.765625 
Q 40.625 31.640625 42.1875 28.125 
z
M 77.734375 49.609375 
Q 75 48.4375 71.28125 45.5 
Q 67.578125 42.578125 62.5 38.671875 
Q 60.546875 42.1875 58.59375 44.53125 
Q 62.890625 47.65625 65.625 50 
Q 68.359375 52.34375 71.875 55.859375 
Q 74.609375 52.734375 77.734375 49.609375 
z
M 36.71875 39.84375 
Q 34.375 42.96875 31.25 45.890625 
Q 28.125 48.828125 23.046875 52.34375 
Q 25.78125 55.078125 27.34375 57.8125 
Q 31.640625 54.6875 41.40625 46.09375 
Q 38.671875 42.578125 36.71875 39.84375 
z
" id="SimHei-20989"/>
      <path d="M 70.703125 76.953125 
Q 69.921875 75 68.75 71.671875 
Q 67.578125 68.359375 65.234375 59.765625 
L 83.203125 59.765625 
Q 87.109375 59.765625 92.578125 60.15625 
L 92.578125 53.125 
Q 88.28125 53.515625 85.9375 53.515625 
Q 85.9375 47.265625 83.78125 33.78125 
Q 81.640625 20.3125 76.171875 10.546875 
Q 80.078125 5.859375 84.953125 2.140625 
Q 89.84375 -1.5625 94.140625 -3.125 
Q 89.453125 -6.640625 87.890625 -9.765625 
Q 83.203125 -7.03125 79.296875 -3.515625 
Q 75.390625 0 71.484375 5.078125 
Q 67.1875 0.390625 62.296875 -2.921875 
Q 57.421875 -6.25 50 -10.15625 
Q 48.046875 -6.640625 44.53125 -4.6875 
Q 50.390625 -2.34375 57.03125 1.953125 
Q 63.671875 6.25 67.1875 10.546875 
Q 64.453125 16.015625 61.90625 22.265625 
Q 59.375 28.515625 57.421875 38.671875 
Q 56.25 35.546875 53.515625 30.46875 
Q 50.78125 32.03125 46.875 33.59375 
Q 53.125 44.53125 57.03125 57.421875 
Q 60.9375 70.3125 62.109375 79.6875 
Q 66.796875 77.734375 70.703125 76.953125 
z
M 32.8125 35.15625 
Q 31.25 33.59375 29.296875 30.078125 
L 50.78125 30.078125 
Q 48.4375 20.3125 42.578125 10.546875 
Q 48.828125 8.203125 52.34375 6.25 
Q 50.390625 3.515625 48.828125 0.390625 
Q 45.3125 2.734375 38.28125 5.078125 
Q 30.46875 -3.515625 11.328125 -10.15625 
Q 9.375 -5.859375 6.25 -4.296875 
Q 24.609375 0 31.25 7.421875 
Q 20.3125 10.15625 13.28125 12.109375 
Q 15.625 15.625 19.53125 23.828125 
Q 15.625 23.828125 6.640625 23.4375 
L 6.640625 30.46875 
Q 14.0625 30.078125 21.875 30.078125 
Q 23.4375 33.59375 24.21875 37.890625 
Q 28.515625 36.328125 32.8125 35.15625 
z
M 27.734375 61.71875 
Q 27.734375 71.09375 27.34375 79.6875 
L 35.15625 79.6875 
Q 34.765625 71.484375 34.765625 61.71875 
Q 48.046875 61.71875 53.515625 62.109375 
L 53.515625 55.078125 
Q 48.046875 55.46875 34.765625 55.46875 
Q 34.765625 44.140625 35.15625 37.890625 
L 27.34375 37.890625 
Q 27.734375 43.359375 27.734375 51.5625 
Q 25.78125 48.4375 20.3125 43.546875 
Q 14.84375 38.671875 10.15625 35.9375 
Q 8.203125 39.453125 4.296875 41.015625 
Q 7.8125 42.1875 13.671875 46.484375 
Q 19.53125 50.78125 22.65625 55.46875 
Q 14.84375 55.46875 7.8125 55.078125 
L 7.8125 62.109375 
Q 14.453125 61.71875 27.734375 61.71875 
z
M 62.109375 49.609375 
Q 65.625 26.5625 71.875 17.578125 
Q 75.78125 26.5625 77.140625 35.734375 
Q 78.515625 44.921875 78.90625 53.515625 
L 63.671875 53.515625 
L 62.109375 49.609375 
z
M 22.65625 15.625 
Q 27.34375 14.453125 35.546875 12.5 
Q 38.671875 16.40625 41.40625 23.828125 
L 26.953125 23.828125 
Q 25 19.921875 22.65625 15.625 
z
M 51.953125 75.390625 
Q 50 72.265625 48.828125 69.53125 
Q 47.65625 66.796875 45.703125 62.890625 
Q 42.578125 64.453125 39.453125 65.234375 
Q 42.578125 70.3125 45.3125 78.125 
Q 49.21875 76.171875 51.953125 75.390625 
z
M 40.234375 52.734375 
Q 45.3125 47.65625 50 42.578125 
Q 47.65625 40.625 44.921875 37.890625 
Q 39.453125 44.53125 35.9375 48.4375 
Q 38.28125 50.390625 40.234375 52.734375 
z
M 14.453125 78.125 
Q 19.921875 72.65625 23.4375 67.1875 
L 17.578125 63.671875 
Q 14.84375 69.140625 9.375 73.828125 
Q 12.890625 76.171875 14.453125 78.125 
z
" id="SimHei-25968"/>
      <path d="M 57.421875 69.53125 
L 57.421875 79.6875 
Q 62.109375 79.296875 67.96875 78.90625 
Q 66.015625 76.171875 65.625 69.53125 
L 80.078125 69.53125 
Q 86.71875 69.53125 91.796875 69.921875 
L 91.796875 62.890625 
Q 86.328125 63.28125 80.078125 63.28125 
L 65.234375 63.28125 
L 64.453125 54.6875 
L 84.375 54.6875 
Q 83.984375 50 83.984375 42.1875 
L 83.984375 2.34375 
Q 91.796875 2.34375 95.3125 2.734375 
L 95.3125 -4.296875 
Q 90.234375 -3.90625 81.25 -3.90625 
L 44.53125 -3.90625 
Q 35.546875 -3.90625 29.6875 -4.296875 
L 29.6875 2.734375 
Q 33.203125 2.34375 40.625 2.34375 
L 40.625 42.1875 
Q 40.625 49.609375 40.234375 54.6875 
L 56.25 54.6875 
L 57.03125 63.28125 
L 50 63.28125 
Q 40.234375 63.28125 34.765625 62.890625 
L 34.765625 69.921875 
Q 39.84375 69.53125 50 69.53125 
z
M 34.765625 76.5625 
Q 31.640625 73.046875 25.78125 58.59375 
L 25.78125 7.03125 
Q 25.78125 -1.171875 26.171875 -8.59375 
L 17.96875 -8.59375 
Q 18.359375 -1.953125 18.359375 5.859375 
L 18.359375 46.09375 
Q 13.671875 38.28125 9.765625 33.59375 
Q 6.640625 37.890625 3.90625 40.234375 
Q 7.8125 44.140625 14.640625 55.265625 
Q 21.484375 66.40625 25.390625 80.46875 
Q 30.859375 77.734375 34.765625 76.5625 
z
M 76.953125 41.40625 
L 76.953125 49.21875 
L 48.046875 49.21875 
L 48.046875 41.40625 
z
M 76.953125 2.34375 
L 76.953125 9.765625 
L 48.046875 9.765625 
L 48.046875 2.34375 
z
M 76.953125 15.625 
L 76.953125 22.65625 
L 48.046875 22.65625 
L 48.046875 15.625 
z
M 76.953125 28.515625 
L 76.953125 35.546875 
L 48.046875 35.546875 
L 48.046875 28.515625 
z
" id="SimHei-20540"/>
     </defs>
     <g transform="translate(274.445 136.506)scale(0.1 -0.1)">
      <use xlink:href="#SimHei-31181"/>
      <use x="100" xlink:href="#SimHei-32676"/>
      <use x="200" xlink:href="#SimHei-20010"/>
      <use x="300" xlink:href="#SimHei-20307"/>
      <use x="400" xlink:href="#SimHei-24179"/>
      <use x="500" xlink:href="#SimHei-22343"/>
      <use x="600" xlink:href="#SimHei-30446"/>
      <use x="700" xlink:href="#SimHei-26631"/>
      <use x="800" xlink:href="#SimHei-20989"/>
      <use x="900" xlink:href="#SimHei-25968"/>
      <use x="1000" xlink:href="#SimHei-20540"/>
     </g>
    </g>
    <g id="line2d_17">
     <path d="M 246.445 147.341937 
L 266.445 147.341937 
" style="fill:none;stroke:#ff7f0e;stroke-linecap:square;stroke-width:1.5;"/>
    </g>
    <g id="line2d_18"/>
    <g id="text_16">
     <!-- 种群最优个体目标函数值 -->
     <defs>
      <path d="M 7.421875 4.296875 
Q 10.546875 4.6875 17.1875 5.46875 
L 17.1875 38.28125 
Q 12.109375 38.28125 6.640625 37.890625 
L 6.640625 44.53125 
Q 12.109375 44.140625 17.578125 44.140625 
L 78.515625 44.140625 
Q 85.546875 44.140625 92.1875 44.53125 
L 92.1875 37.890625 
Q 85.546875 38.28125 78.515625 38.28125 
L 47.65625 38.28125 
L 47.65625 10.546875 
L 53.125 12.109375 
Q 53.125 8.59375 53.515625 6.25 
Q 50.390625 5.46875 47.65625 5.078125 
Q 47.65625 -1.953125 48.046875 -8.59375 
L 40.625 -8.59375 
Q 41.015625 -1.953125 41.015625 3.90625 
Q 36.71875 3.125 28.3125 1.359375 
Q 19.921875 -0.390625 10.15625 -2.734375 
Q 8.984375 1.5625 7.421875 4.296875 
z
M 79.6875 76.953125 
Q 79.296875 71.875 79.296875 67.578125 
L 79.296875 60.546875 
Q 79.296875 56.25 79.6875 50.78125 
L 19.921875 50.78125 
Q 20.3125 56.25 20.3125 60.546875 
L 20.3125 67.578125 
Q 20.3125 71.875 19.921875 76.953125 
L 79.6875 76.953125 
z
M 51.5625 32.03125 
Q 58.59375 31.640625 64.453125 31.640625 
L 83.984375 31.640625 
Q 79.6875 15.234375 73.828125 6.25 
Q 83.59375 0 92.578125 -1.5625 
Q 89.0625 -4.296875 88.28125 -7.8125 
Q 78.515625 -4.6875 69.921875 2.34375 
Q 64.84375 -3.125 56.25 -8.984375 
Q 54.6875 -6.640625 50.78125 -4.296875 
Q 58.984375 -1.5625 64.84375 5.46875 
Q 58.203125 12.109375 54.6875 26.171875 
L 51.5625 26.171875 
z
M 71.875 66.40625 
L 71.875 71.875 
L 27.34375 71.875 
L 27.34375 66.40625 
z
M 71.875 55.859375 
L 71.875 60.9375 
L 27.34375 60.9375 
L 27.34375 55.859375 
z
M 60.9375 26.171875 
Q 62.5 16.796875 68.75 9.765625 
Q 73.4375 16.40625 75.78125 26.171875 
L 60.9375 26.171875 
z
M 41.015625 19.53125 
L 41.015625 26.171875 
L 23.828125 26.171875 
L 23.828125 19.53125 
z
M 41.015625 8.984375 
L 41.015625 14.453125 
L 23.828125 14.453125 
L 23.828125 6.640625 
z
M 41.015625 31.640625 
L 41.015625 38.28125 
L 23.828125 38.28125 
L 23.828125 31.640625 
z
" id="SimHei-26368"/>
      <path d="M 72.65625 5.46875 
Q 72.265625 1.5625 75.390625 0.78125 
Q 78.515625 0 81.25 0.1875 
Q 83.984375 0.390625 85.34375 1.953125 
Q 86.71875 3.515625 88.28125 12.5 
Q 91.015625 9.765625 96.875 8.203125 
Q 94.53125 -0.390625 92.375 -3.125 
Q 90.234375 -5.859375 85.546875 -6.25 
L 73.4375 -6.25 
Q 65.234375 -6.25 65.234375 3.125 
L 65.234375 47.65625 
L 60.15625 47.65625 
Q 58.203125 9.375 37.109375 -8.59375 
Q 34.375 -5.078125 29.296875 -3.515625 
Q 49.609375 10.546875 52.34375 47.65625 
L 45.3125 47.65625 
Q 36.71875 47.65625 30.859375 47.265625 
L 30.859375 54.296875 
Q 36.71875 53.90625 45.3125 53.90625 
L 52.734375 53.90625 
Q 52.734375 73.4375 52.34375 80.46875 
Q 55.078125 79.6875 61.328125 79.296875 
Q 60.15625 73.4375 60.15625 53.90625 
L 81.25 53.90625 
Q 85.546875 53.90625 92.578125 54.296875 
L 92.578125 47.265625 
Q 85.9375 47.65625 81.640625 47.65625 
L 72.65625 47.65625 
L 72.65625 5.46875 
z
M 3.125 37.109375 
Q 8.203125 42.1875 15.625 56.4375 
Q 23.046875 70.703125 25 81.25 
Q 28.90625 78.90625 34.765625 76.953125 
Q 31.25 73.4375 26.5625 59.765625 
L 26.5625 9.375 
Q 26.5625 -2.34375 26.953125 -8.203125 
L 18.75 -8.203125 
Q 19.140625 -2.734375 19.140625 8.984375 
L 19.140625 46.484375 
Q 14.0625 37.890625 8.59375 30.859375 
Q 6.640625 34.375 3.125 37.109375 
z
M 75.78125 78.515625 
Q 78.125 75 80.46875 71.671875 
Q 82.8125 68.359375 85.15625 65.625 
Q 82.03125 63.671875 78.515625 60.546875 
Q 76.171875 65.234375 69.53125 73.828125 
Q 72.265625 75.78125 75.78125 78.515625 
z
" id="SimHei-20248"/>
     </defs>
     <g transform="translate(274.445 150.841937)scale(0.1 -0.1)">
      <use xlink:href="#SimHei-31181"/>
      <use x="100" xlink:href="#SimHei-32676"/>
      <use x="200" xlink:href="#SimHei-26368"/>
      <use x="300" xlink:href="#SimHei-20248"/>
      <use x="400" xlink:href="#SimHei-20010"/>
      <use x="500" xlink:href="#SimHei-20307"/>
      <use x="600" xlink:href="#SimHei-30446"/>
      <use x="700" xlink:href="#SimHei-26631"/>
      <use x="800" xlink:href="#SimHei-20989"/>
      <use x="900" xlink:href="#SimHei-25968"/>
      <use x="1000" xlink:href="#SimHei-20540"/>
     </g>
    </g>
   </g>
  </g>
 </g>
 <defs>
  <clipPath id="p6448835448">
   <rect height="266.112" width="357.12" x="36.325" y="7.2"/>
  </clipPath>
 </defs>
</svg>
