<?xml version="1.0" encoding="utf-8" standalone="no"?>
<!DOCTYPE svg PUBLIC "-//W3C//DTD SVG 1.1//EN"
  "http://www.w3.org/Graphics/SVG/1.1/DTD/svg11.dtd">
<!-- Created with matplotlib (https://matplotlib.org/) -->
<svg height="307.762pt" version="1.1" viewBox="0 0 410.645 307.762" width="410.645pt" xmlns="http://www.w3.org/2000/svg" xmlns:xlink="http://www.w3.org/1999/xlink">
 <defs>
  <style type="text/css">
*{stroke-linecap:butt;stroke-linejoin:round;}
  </style>
 </defs>
 <g id="figure_1">
  <g id="patch_1">
   <path d="M 0 307.762 
L 410.645 307.762 
L 410.645 0 
L 0 0 
z
" style="fill:#ffffff;"/>
  </g>
  <g id="axes_1">
   <g id="patch_2">
    <path d="M 46.325 273.312 
L 403.445 273.312 
L 403.445 7.2 
L 46.325 7.2 
z
" style="fill:#ffffff;"/>
   </g>
   <g id="matplotlib.axis_1">
    <g id="xtick_1">
     <g id="line2d_1">
      <defs>
       <path d="M 0 0 
L 0 3.5 
" id="mb4f2ac7995" style="stroke:#000000;stroke-width:0.8;"/>
      </defs>
      <g>
       <use style="stroke:#000000;stroke-width:0.8;" x="62.557727" xlink:href="#mb4f2ac7995" y="273.312"/>
      </g>
     </g>
     <g id="text_1">
      <!-- 0 -->
      <defs>
       <path d="M 3.125 29.296875 
Q 3.90625 50 6.4375 56.046875 
Q 8.984375 62.109375 13.671875 66.015625 
Q 18.359375 69.921875 25.1875 69.921875 
Q 32.03125 69.921875 37.109375 64.25 
Q 42.1875 58.59375 43.75 50 
Q 45.3125 41.40625 44.71875 30.265625 
Q 44.140625 19.140625 40.8125 12.109375 
Q 37.5 5.078125 30.859375 2.34375 
Q 24.21875 -0.390625 17.578125 2.921875 
Q 10.9375 6.25 8.203125 11.71875 
Q 5.46875 17.1875 4.296875 23.234375 
Q 3.125 29.296875 3.90625 50 
z
M 12.890625 52.734375 
Q 10.546875 31.25 12.5 22.84375 
Q 14.453125 14.453125 18.9375 10.9375 
Q 23.4375 7.421875 28.125 9.5625 
Q 32.8125 11.71875 34.953125 18.15625 
Q 37.109375 24.609375 37.109375 32.21875 
Q 37.109375 39.84375 36.515625 46.09375 
Q 35.9375 52.34375 33 57.421875 
Q 30.078125 62.5 25.1875 62.6875 
Q 20.3125 62.890625 16.59375 57.8125 
Q 12.890625 52.734375 10.546875 31.25 
z
" id="SimHei-48"/>
      </defs>
      <g transform="translate(60.057727 287.187)scale(0.1 -0.1)">
       <use xlink:href="#SimHei-48"/>
      </g>
     </g>
    </g>
    <g id="xtick_2">
     <g id="line2d_2">
      <g>
       <use style="stroke:#000000;stroke-width:0.8;" x="127.553632" xlink:href="#mb4f2ac7995" y="273.312"/>
      </g>
     </g>
     <g id="text_2">
      <!-- 200 -->
      <defs>
       <path d="M 4.6875 3.90625 
Q 5.078125 9.765625 10.15625 14.453125 
Q 15.234375 19.140625 23.046875 29.09375 
Q 30.859375 39.0625 33.203125 44.53125 
Q 35.546875 50 34.953125 53.90625 
Q 34.375 57.8125 31.25 60.34375 
Q 28.125 62.890625 24.015625 62.5 
Q 19.921875 62.109375 16.203125 59.375 
Q 12.5 56.640625 10.546875 51.171875 
L 3.125 52.34375 
Q 6.25 61.328125 11.125 65.421875 
Q 16.015625 69.53125 22.65625 69.921875 
Q 26.5625 70.3125 29.6875 69.71875 
Q 32.8125 69.140625 36.125 66.984375 
Q 39.453125 64.84375 41.59375 60.546875 
Q 43.75 56.25 43.15625 50.1875 
Q 42.578125 44.140625 37.109375 35.734375 
Q 31.640625 27.34375 16.015625 9.375 
L 44.140625 9.375 
L 44.140625 2.34375 
L 4.6875 2.34375 
z
" id="SimHei-50"/>
      </defs>
      <g transform="translate(120.053632 287.187)scale(0.1 -0.1)">
       <use xlink:href="#SimHei-50"/>
       <use x="50" xlink:href="#SimHei-48"/>
       <use x="100" xlink:href="#SimHei-48"/>
      </g>
     </g>
    </g>
    <g id="xtick_3">
     <g id="line2d_3">
      <g>
       <use style="stroke:#000000;stroke-width:0.8;" x="192.549537" xlink:href="#mb4f2ac7995" y="273.312"/>
      </g>
     </g>
     <g id="text_3">
      <!-- 400 -->
      <defs>
       <path d="M 31.25 17.1875 
L 1.171875 17.1875 
L 1.171875 23.828125 
L 32.8125 69.53125 
L 38.671875 69.53125 
L 38.671875 23.828125 
L 48.046875 23.828125 
L 48.046875 17.1875 
L 38.671875 17.1875 
L 38.671875 2.34375 
L 31.25 2.34375 
z
M 31.25 23.828125 
L 31.25 54.6875 
L 9.375 23.828125 
z
" id="SimHei-52"/>
      </defs>
      <g transform="translate(185.049537 287.187)scale(0.1 -0.1)">
       <use xlink:href="#SimHei-52"/>
       <use x="50" xlink:href="#SimHei-48"/>
       <use x="100" xlink:href="#SimHei-48"/>
      </g>
     </g>
    </g>
    <g id="xtick_4">
     <g id="line2d_4">
      <g>
       <use style="stroke:#000000;stroke-width:0.8;" x="257.545442" xlink:href="#mb4f2ac7995" y="273.312"/>
      </g>
     </g>
     <g id="text_4">
      <!-- 600 -->
      <defs>
       <path d="M 3.515625 19.53125 
Q 4.296875 30.859375 6.046875 34.765625 
Q 7.8125 38.671875 11.328125 44.53125 
L 27.34375 69.53125 
L 36.328125 69.53125 
L 19.921875 43.75 
Q 30.46875 46.484375 36.71875 42.96875 
Q 42.96875 39.453125 45.109375 34.953125 
Q 47.265625 30.46875 47.453125 25.1875 
Q 47.65625 19.921875 45.890625 14.84375 
Q 44.140625 9.765625 39.640625 5.65625 
Q 35.15625 1.5625 27.140625 1.171875 
Q 19.140625 0.78125 13.46875 4.09375 
Q 7.8125 7.421875 5.65625 13.46875 
Q 3.515625 19.53125 4.296875 30.859375 
z
M 12.5 16.015625 
Q 19.53125 8.59375 25.390625 8.203125 
Q 31.25 7.8125 35.15625 12.109375 
Q 39.0625 16.40625 39.0625 24.609375 
Q 39.0625 32.8125 34.171875 35.9375 
Q 29.296875 39.0625 23.234375 38.28125 
Q 17.1875 37.5 14.453125 32.421875 
Q 11.71875 27.34375 12.109375 21.671875 
Q 12.5 16.015625 19.53125 8.59375 
z
" id="SimHei-54"/>
      </defs>
      <g transform="translate(250.045442 287.187)scale(0.1 -0.1)">
       <use xlink:href="#SimHei-54"/>
       <use x="50" xlink:href="#SimHei-48"/>
       <use x="100" xlink:href="#SimHei-48"/>
      </g>
     </g>
    </g>
    <g id="xtick_5">
     <g id="line2d_5">
      <g>
       <use style="stroke:#000000;stroke-width:0.8;" x="322.541347" xlink:href="#mb4f2ac7995" y="273.312"/>
      </g>
     </g>
     <g id="text_5">
      <!-- 800 -->
      <defs>
       <path d="M 2.734375 16.796875 
Q 2.734375 26.171875 5.078125 30.65625 
Q 7.421875 35.15625 12.890625 37.890625 
Q 8.203125 40.625 6.640625 43.9375 
Q 5.078125 47.265625 4.875 51.5625 
Q 4.6875 55.859375 6.046875 58.984375 
Q 7.421875 62.109375 10.15625 64.84375 
Q 12.890625 67.578125 16.203125 68.546875 
Q 19.53125 69.53125 23.4375 69.53125 
Q 27.34375 69.53125 30.46875 68.75 
Q 33.59375 67.96875 37.109375 65.421875 
Q 40.625 62.890625 42.1875 58.203125 
Q 43.75 53.515625 41.984375 47.265625 
Q 40.234375 41.015625 32.8125 37.5 
Q 39.453125 35.546875 42.1875 31.4375 
Q 44.921875 27.34375 44.921875 21.484375 
Q 44.921875 15.625 43.15625 12.109375 
Q 41.40625 8.59375 39.25 6.25 
Q 37.109375 3.90625 33.390625 2.53125 
Q 29.6875 1.171875 24.015625 1.171875 
Q 18.359375 1.171875 14.25 2.53125 
Q 10.15625 3.90625 7.421875 6.640625 
Q 4.6875 9.375 3.703125 13.078125 
Q 2.734375 16.796875 2.734375 26.171875 
z
M 10.9375 26.5625 
Q 10.546875 17.1875 12.296875 13.671875 
Q 14.0625 10.15625 18.75 9.171875 
Q 23.4375 8.203125 28.515625 9.375 
Q 33.59375 10.546875 35.546875 14.84375 
Q 37.5 19.140625 36.90625 23.4375 
Q 36.328125 27.734375 32.03125 30.65625 
Q 27.734375 33.59375 22.65625 33.203125 
Q 17.578125 32.8125 14.25 29.6875 
Q 10.9375 26.5625 10.546875 17.1875 
z
M 12.109375 56.25 
Q 12.109375 48.4375 14.84375 44.921875 
Q 17.578125 41.40625 23.4375 41.40625 
Q 29.296875 41.40625 32.21875 44.921875 
Q 35.15625 48.4375 34.953125 53.3125 
Q 34.765625 58.203125 31.4375 60.546875 
Q 28.125 62.890625 22.453125 62.5 
Q 16.796875 62.109375 14.453125 59.171875 
Q 12.109375 56.25 12.109375 48.4375 
z
" id="SimHei-56"/>
      </defs>
      <g transform="translate(315.041347 287.187)scale(0.1 -0.1)">
       <use xlink:href="#SimHei-56"/>
       <use x="50" xlink:href="#SimHei-48"/>
       <use x="100" xlink:href="#SimHei-48"/>
      </g>
     </g>
    </g>
    <g id="xtick_6">
     <g id="line2d_6">
      <g>
       <use style="stroke:#000000;stroke-width:0.8;" x="387.537252" xlink:href="#mb4f2ac7995" y="273.312"/>
      </g>
     </g>
     <g id="text_6">
      <!-- 1000 -->
      <defs>
       <path d="M 21.875 56.25 
Q 16.796875 51.171875 8.984375 46.484375 
L 8.984375 53.90625 
Q 18.75 60.546875 25 69.53125 
L 29.6875 69.53125 
L 29.6875 2.34375 
L 21.875 2.34375 
z
" id="SimHei-49"/>
      </defs>
      <g transform="translate(377.537252 287.187)scale(0.1 -0.1)">
       <use xlink:href="#SimHei-49"/>
       <use x="50" xlink:href="#SimHei-48"/>
       <use x="100" xlink:href="#SimHei-48"/>
       <use x="150" xlink:href="#SimHei-48"/>
      </g>
     </g>
    </g>
    <g id="text_7">
     <!-- Number of Generation -->
     <defs>
      <path d="M 44.53125 1.953125 
L 34.765625 1.953125 
L 13.28125 50.390625 
L 12.890625 50.390625 
L 12.890625 1.953125 
L 3.90625 1.953125 
L 3.90625 68.75 
L 13.671875 68.75 
L 35.15625 20.3125 
L 35.546875 20.3125 
L 35.546875 68.75 
L 44.53125 68.75 
z
" id="SimHei-78"/>
      <path d="M 43.75 1.953125 
L 35.9375 1.953125 
L 35.9375 10.15625 
Q 32.8125 5.859375 29.09375 3.515625 
Q 25.390625 1.171875 19.53125 1.171875 
Q 12.5 1.171875 8.984375 5.078125 
Q 5.46875 8.984375 5.46875 14.84375 
L 5.46875 45.703125 
L 13.28125 45.703125 
L 13.28125 17.578125 
Q 13.28125 12.890625 15.625 10.15625 
Q 17.96875 7.421875 21.875 7.421875 
Q 26.953125 7.421875 31.4375 12.6875 
Q 35.9375 17.96875 35.9375 25.78125 
L 35.9375 45.703125 
L 43.75 45.703125 
z
" id="SimHei-117"/>
      <path d="M 47.65625 1.953125 
L 39.84375 1.953125 
L 39.84375 33.59375 
Q 39.84375 35.9375 39.0625 37.5 
Q 38.28125 39.0625 35.9375 39.0625 
Q 33.203125 39.0625 30.859375 36.125 
Q 28.515625 33.203125 28.515625 28.515625 
L 28.515625 1.953125 
L 20.703125 1.953125 
L 20.703125 33.59375 
Q 20.703125 35.9375 19.921875 37.5 
Q 19.140625 39.0625 16.796875 39.0625 
Q 14.0625 39.0625 11.71875 36.125 
Q 9.375 33.203125 9.375 28.515625 
L 9.375 1.953125 
L 1.5625 1.953125 
L 1.5625 45.703125 
L 9.375 45.703125 
L 9.375 39.84375 
Q 11.328125 42.96875 14.0625 44.71875 
Q 16.796875 46.484375 19.921875 46.484375 
Q 23.046875 46.484375 25.1875 44.71875 
Q 27.34375 42.96875 28.125 39.84375 
Q 30.078125 42.96875 32.609375 44.71875 
Q 35.15625 46.484375 38.28125 46.484375 
Q 42.96875 46.484375 45.3125 43.9375 
Q 47.65625 41.40625 47.65625 36.71875 
z
" id="SimHei-109"/>
      <path d="M 44.140625 23.828125 
Q 44.140625 12.5 38.671875 6.828125 
Q 33.203125 1.171875 25.390625 1.171875 
Q 21.09375 1.171875 17.96875 2.734375 
Q 14.84375 4.296875 12.5 7.8125 
L 12.5 1.953125 
L 4.6875 1.953125 
L 4.6875 68.75 
L 12.5 68.75 
L 12.5 39.84375 
Q 14.84375 43.359375 17.96875 45.109375 
Q 21.09375 46.875 25.390625 46.875 
Q 33.203125 46.875 38.671875 41.015625 
Q 44.140625 35.15625 44.140625 23.828125 
z
M 35.546875 23.828125 
Q 35.546875 31.25 32.609375 35.546875 
Q 29.6875 39.84375 23.828125 39.84375 
Q 19.140625 39.84375 15.8125 35.546875 
Q 12.5 31.25 12.5 23.828125 
Q 12.5 16.40625 15.8125 12.296875 
Q 19.140625 8.203125 23.828125 8.203125 
Q 29.6875 8.203125 32.609375 12.296875 
Q 35.546875 16.40625 35.546875 23.828125 
z
" id="SimHei-98"/>
      <path d="M 44.53125 16.796875 
Q 43.75 9.765625 38.28125 5.46875 
Q 32.8125 1.171875 25.390625 1.171875 
Q 16.015625 1.171875 9.953125 7.21875 
Q 3.90625 13.28125 3.90625 23.828125 
Q 3.90625 34.375 9.953125 40.421875 
Q 16.015625 46.484375 25.390625 46.484375 
Q 33.59375 46.484375 38.859375 41.203125 
Q 44.140625 35.9375 44.140625 23.828125 
L 12.5 23.828125 
Q 12.5 15.234375 16.203125 11.71875 
Q 19.921875 8.203125 25.390625 8.203125 
Q 29.6875 8.203125 32.421875 10.34375 
Q 35.15625 12.5 35.9375 16.796875 
z
M 35.15625 30.078125 
Q 34.375 35.546875 31.640625 37.6875 
Q 28.90625 39.84375 24.609375 39.84375 
Q 20.703125 39.84375 17.578125 37.6875 
Q 14.453125 35.546875 12.890625 30.078125 
z
" id="SimHei-101"/>
      <path d="M 39.0625 37.890625 
Q 31.640625 39.0625 26.5625 35.734375 
Q 21.484375 32.421875 17.96875 24.21875 
L 17.96875 1.953125 
L 10.15625 1.953125 
L 10.15625 45.703125 
L 17.96875 45.703125 
L 17.96875 34.375 
Q 21.484375 40.625 26.75 43.546875 
Q 32.03125 46.484375 39.0625 46.484375 
z
" id="SimHei-114"/>
      <path id="SimHei-32"/>
      <path d="M 45.703125 23.828125 
Q 45.703125 13.671875 39.453125 7.421875 
Q 33.203125 1.171875 24.609375 1.171875 
Q 16.015625 1.171875 9.765625 7.421875 
Q 3.515625 13.671875 3.515625 23.828125 
Q 3.515625 33.984375 9.765625 40.234375 
Q 16.015625 46.484375 24.609375 46.484375 
Q 33.203125 46.484375 39.453125 40.234375 
Q 45.703125 33.984375 45.703125 23.828125 
z
M 37.109375 23.828125 
Q 37.109375 31.640625 33.203125 35.546875 
Q 29.296875 39.453125 24.609375 39.453125 
Q 19.921875 39.453125 16.015625 35.546875 
Q 12.109375 31.640625 12.109375 23.828125 
Q 12.109375 16.015625 16.015625 12.109375 
Q 19.921875 8.203125 24.609375 8.203125 
Q 29.296875 8.203125 33.203125 12.109375 
Q 37.109375 16.015625 37.109375 23.828125 
z
" id="SimHei-111"/>
      <path d="M 44.53125 59.765625 
Q 42.578125 60.9375 39.84375 61.71875 
Q 37.109375 62.5 32.8125 62.5 
Q 28.515625 62.5 26.953125 60.34375 
Q 25.390625 58.203125 25.390625 55.078125 
L 25.390625 45.703125 
L 41.40625 45.703125 
L 41.40625 39.453125 
L 25.390625 39.453125 
L 25.390625 1.953125 
L 17.578125 1.953125 
L 17.578125 39.453125 
L 4.296875 39.453125 
L 4.296875 45.703125 
L 17.578125 45.703125 
L 17.578125 54.6875 
Q 17.578125 61.71875 21.875 65.625 
Q 26.171875 69.53125 33.203125 69.53125 
Q 37.5 69.53125 40.03125 68.9375 
Q 42.578125 68.359375 44.53125 67.578125 
z
" id="SimHei-102"/>
      <path d="M 44.53125 1.171875 
L 37.890625 1.171875 
L 36.71875 6.640625 
Q 35.15625 4.296875 31.828125 2.734375 
Q 28.515625 1.171875 24.609375 1.171875 
Q 16.40625 1.171875 9.953125 8.78125 
Q 3.515625 16.40625 3.515625 33.203125 
Q 3.515625 51.5625 9.375 60.546875 
Q 15.234375 69.53125 25.390625 69.53125 
Q 34.375 69.53125 39.453125 62.890625 
Q 44.53125 56.25 44.53125 45.703125 
L 35.9375 45.703125 
Q 35.9375 53.90625 33.203125 58 
Q 30.46875 62.109375 25.390625 62.109375 
Q 19.140625 62.109375 16.015625 55.65625 
Q 12.890625 49.21875 12.890625 33.984375 
Q 12.890625 19.53125 16.796875 14.0625 
Q 20.703125 8.59375 25.78125 8.59375 
Q 30.859375 8.59375 33.78125 12.296875 
Q 36.71875 16.015625 36.71875 23.828125 
L 36.71875 28.125 
L 24.609375 28.125 
L 24.609375 35.546875 
L 44.53125 35.546875 
z
" id="SimHei-71"/>
      <path d="M 43.75 1.953125 
L 35.9375 1.953125 
L 35.9375 30.078125 
Q 35.9375 34.765625 33.59375 37.5 
Q 31.25 40.234375 27.34375 40.234375 
Q 22.265625 40.234375 17.765625 34.953125 
Q 13.28125 29.6875 13.28125 21.875 
L 13.28125 1.953125 
L 5.46875 1.953125 
L 5.46875 45.703125 
L 13.28125 45.703125 
L 13.28125 37.5 
Q 16.40625 41.796875 20.109375 44.140625 
Q 23.828125 46.484375 29.6875 46.484375 
Q 36.71875 46.484375 40.234375 42.578125 
Q 43.75 38.671875 43.75 32.8125 
z
" id="SimHei-110"/>
      <path d="M 44.921875 1.953125 
L 35.546875 1.953125 
Q 34.765625 2.734375 34.375 4.09375 
Q 33.984375 5.46875 33.984375 7.421875 
Q 31.25 4.296875 27.34375 2.734375 
Q 23.4375 1.171875 19.140625 1.171875 
Q 12.890625 1.171875 8.59375 4.296875 
Q 4.296875 7.421875 4.296875 13.28125 
Q 4.296875 19.140625 8.203125 22.65625 
Q 12.109375 26.171875 20.3125 27.34375 
Q 25.78125 28.125 29.875 29.296875 
Q 33.984375 30.46875 33.984375 32.421875 
Q 33.984375 34.765625 32.21875 37.109375 
Q 30.46875 39.453125 24.609375 39.453125 
Q 19.921875 39.453125 17.765625 37.6875 
Q 15.625 35.9375 14.84375 32.8125 
L 6.25 32.8125 
Q 7.03125 39.0625 11.90625 42.765625 
Q 16.796875 46.484375 24.609375 46.484375 
Q 33.203125 46.484375 37.5 42.578125 
Q 41.796875 38.671875 41.796875 31.640625 
L 41.796875 10.15625 
Q 41.796875 7.8125 42.578125 5.859375 
Q 43.359375 3.90625 44.921875 1.953125 
z
M 33.984375 16.40625 
L 33.984375 24.21875 
Q 31.640625 23.4375 29.484375 22.84375 
Q 27.34375 22.265625 22.265625 21.484375 
Q 16.40625 20.703125 14.640625 18.75 
Q 12.890625 16.796875 12.890625 14.0625 
Q 12.890625 11.71875 14.640625 9.953125 
Q 16.40625 8.203125 19.921875 8.203125 
Q 23.4375 8.203125 27.53125 10.15625 
Q 31.640625 12.109375 33.984375 16.40625 
z
" id="SimHei-97"/>
      <path d="M 42.96875 3.125 
Q 41.015625 2.34375 38.46875 1.75 
Q 35.9375 1.171875 31.640625 1.171875 
Q 24.609375 1.171875 20.3125 5.078125 
Q 16.015625 8.984375 16.015625 16.015625 
L 16.015625 39.453125 
L 2.734375 39.453125 
L 2.734375 45.703125 
L 16.015625 45.703125 
L 16.015625 60.9375 
L 23.828125 60.9375 
L 23.828125 45.703125 
L 39.84375 45.703125 
L 39.84375 39.453125 
L 23.828125 39.453125 
L 23.828125 15.625 
Q 23.828125 12.5 25.390625 10.34375 
Q 26.953125 8.203125 31.25 8.203125 
Q 35.546875 8.203125 38.28125 8.984375 
Q 41.015625 9.765625 42.96875 10.9375 
z
" id="SimHei-116"/>
      <path d="M 28.125 58.203125 
L 20.3125 58.203125 
L 20.3125 68.359375 
L 28.125 68.359375 
z
M 28.125 1.953125 
L 20.3125 1.953125 
L 20.3125 45.703125 
L 28.125 45.703125 
z
" id="SimHei-105"/>
     </defs>
     <g transform="translate(174.885 299.312)scale(0.1 -0.1)">
      <use xlink:href="#SimHei-78"/>
      <use x="50" xlink:href="#SimHei-117"/>
      <use x="100" xlink:href="#SimHei-109"/>
      <use x="150" xlink:href="#SimHei-98"/>
      <use x="200" xlink:href="#SimHei-101"/>
      <use x="250" xlink:href="#SimHei-114"/>
      <use x="300" xlink:href="#SimHei-32"/>
      <use x="350" xlink:href="#SimHei-111"/>
      <use x="400" xlink:href="#SimHei-102"/>
      <use x="450" xlink:href="#SimHei-32"/>
      <use x="500" xlink:href="#SimHei-71"/>
      <use x="550" xlink:href="#SimHei-101"/>
      <use x="600" xlink:href="#SimHei-110"/>
      <use x="650" xlink:href="#SimHei-101"/>
      <use x="700" xlink:href="#SimHei-114"/>
      <use x="750" xlink:href="#SimHei-97"/>
      <use x="800" xlink:href="#SimHei-116"/>
      <use x="850" xlink:href="#SimHei-105"/>
      <use x="900" xlink:href="#SimHei-111"/>
      <use x="950" xlink:href="#SimHei-110"/>
     </g>
    </g>
   </g>
   <g id="matplotlib.axis_2">
    <g id="ytick_1">
     <g id="line2d_7">
      <defs>
       <path d="M 0 0 
L -3.5 0 
" id="m4973a6ee50" style="stroke:#000000;stroke-width:0.8;"/>
      </defs>
      <g>
       <use style="stroke:#000000;stroke-width:0.8;" x="46.325" xlink:href="#m4973a6ee50" y="272.652782"/>
      </g>
     </g>
     <g id="text_8">
      <!-- 1.77 -->
      <defs>
       <path d="M 16.796875 1.953125 
L 7.8125 1.953125 
L 7.8125 10.546875 
L 16.796875 10.546875 
z
" id="SimHei-46"/>
       <path d="M 13.28125 2.34375 
Q 20.3125 32.03125 37.890625 61.328125 
L 4.296875 61.328125 
L 4.296875 68.359375 
L 46.09375 68.359375 
L 46.09375 61.71875 
Q 27.734375 32.03125 21.875 2.34375 
L 13.28125 2.34375 
z
" id="SimHei-55"/>
      </defs>
      <g transform="translate(19.325 276.090282)scale(0.1 -0.1)">
       <use xlink:href="#SimHei-49"/>
       <use x="50" xlink:href="#SimHei-46"/>
       <use x="100" xlink:href="#SimHei-55"/>
       <use x="150" xlink:href="#SimHei-55"/>
      </g>
     </g>
    </g>
    <g id="ytick_2">
     <g id="line2d_8">
      <g>
       <use style="stroke:#000000;stroke-width:0.8;" x="46.325" xlink:href="#m4973a6ee50" y="230.725952"/>
      </g>
     </g>
     <g id="text_9">
      <!-- 1.78 -->
      <g transform="translate(19.325 234.163452)scale(0.1 -0.1)">
       <use xlink:href="#SimHei-49"/>
       <use x="50" xlink:href="#SimHei-46"/>
       <use x="100" xlink:href="#SimHei-55"/>
       <use x="150" xlink:href="#SimHei-56"/>
      </g>
     </g>
    </g>
    <g id="ytick_3">
     <g id="line2d_9">
      <g>
       <use style="stroke:#000000;stroke-width:0.8;" x="46.325" xlink:href="#m4973a6ee50" y="188.799122"/>
      </g>
     </g>
     <g id="text_10">
      <!-- 1.79 -->
      <defs>
       <path d="M 12.5 1.171875 
Q 21.09375 15.625 26.5625 27.34375 
Q 16.796875 25.78125 10.34375 29.875 
Q 3.90625 33.984375 2.53125 41.015625 
Q 1.171875 48.046875 2.734375 53.703125 
Q 4.296875 59.375 7.609375 63.078125 
Q 10.9375 66.796875 15.625 68.359375 
Q 20.3125 69.921875 24.015625 69.921875 
Q 27.734375 69.921875 31.640625 68.359375 
Q 35.546875 66.796875 38.671875 63.671875 
Q 41.796875 60.546875 42.96875 57.21875 
Q 44.140625 53.90625 44.140625 48.625 
Q 44.140625 43.359375 40.234375 35.15625 
Q 36.328125 26.953125 21.09375 1.171875 
z
M 9.765625 50 
Q 10.9375 39.84375 14.640625 36.515625 
Q 18.359375 33.203125 22.65625 33.59375 
Q 26.953125 33.984375 29.484375 35.9375 
Q 32.03125 37.890625 34.375 42.578125 
Q 35.9375 48.4375 35.15625 52.53125 
Q 34.375 56.640625 31.046875 59.375 
Q 27.734375 62.109375 23.828125 62.109375 
Q 21.484375 62.5 17.765625 60.9375 
Q 14.0625 59.375 11.90625 54.6875 
Q 9.765625 50 10.9375 39.84375 
z
" id="SimHei-57"/>
      </defs>
      <g transform="translate(19.325 192.236622)scale(0.1 -0.1)">
       <use xlink:href="#SimHei-49"/>
       <use x="50" xlink:href="#SimHei-46"/>
       <use x="100" xlink:href="#SimHei-55"/>
       <use x="150" xlink:href="#SimHei-57"/>
      </g>
     </g>
    </g>
    <g id="ytick_4">
     <g id="line2d_10">
      <g>
       <use style="stroke:#000000;stroke-width:0.8;" x="46.325" xlink:href="#m4973a6ee50" y="146.872292"/>
      </g>
     </g>
     <g id="text_11">
      <!-- 1.80 -->
      <g transform="translate(19.325 150.309792)scale(0.1 -0.1)">
       <use xlink:href="#SimHei-49"/>
       <use x="50" xlink:href="#SimHei-46"/>
       <use x="100" xlink:href="#SimHei-56"/>
       <use x="150" xlink:href="#SimHei-48"/>
      </g>
     </g>
    </g>
    <g id="ytick_5">
     <g id="line2d_11">
      <g>
       <use style="stroke:#000000;stroke-width:0.8;" x="46.325" xlink:href="#m4973a6ee50" y="104.945461"/>
      </g>
     </g>
     <g id="text_12">
      <!-- 1.81 -->
      <g transform="translate(19.325 108.382961)scale(0.1 -0.1)">
       <use xlink:href="#SimHei-49"/>
       <use x="50" xlink:href="#SimHei-46"/>
       <use x="100" xlink:href="#SimHei-56"/>
       <use x="150" xlink:href="#SimHei-49"/>
      </g>
     </g>
    </g>
    <g id="ytick_6">
     <g id="line2d_12">
      <g>
       <use style="stroke:#000000;stroke-width:0.8;" x="46.325" xlink:href="#m4973a6ee50" y="63.018631"/>
      </g>
     </g>
     <g id="text_13">
      <!-- 1.82 -->
      <g transform="translate(19.325 66.456131)scale(0.1 -0.1)">
       <use xlink:href="#SimHei-49"/>
       <use x="50" xlink:href="#SimHei-46"/>
       <use x="100" xlink:href="#SimHei-56"/>
       <use x="150" xlink:href="#SimHei-50"/>
      </g>
     </g>
    </g>
    <g id="ytick_7">
     <g id="line2d_13">
      <g>
       <use style="stroke:#000000;stroke-width:0.8;" x="46.325" xlink:href="#m4973a6ee50" y="21.091801"/>
      </g>
     </g>
     <g id="text_14">
      <!-- 1.83 -->
      <defs>
       <path d="M 3.90625 19.140625 
L 10.9375 20.3125 
Q 12.5 15.234375 16.015625 11.90625 
Q 19.53125 8.59375 24.796875 8.78125 
Q 30.078125 8.984375 33.203125 13.078125 
Q 36.328125 17.1875 35.9375 22.453125 
Q 35.546875 27.734375 31.828125 30.65625 
Q 28.125 33.59375 19.921875 34.765625 
L 19.921875 39.84375 
Q 28.125 40.625 31.828125 44.140625 
Q 35.546875 47.65625 35.15625 53.3125 
Q 34.765625 58.984375 30.078125 61.515625 
Q 25.390625 64.0625 20.109375 62.109375 
Q 14.84375 60.15625 11.71875 51.171875 
L 4.6875 52.34375 
Q 7.03125 59.375 11.125 64.0625 
Q 15.234375 68.75 22.265625 69.53125 
Q 29.296875 70.3125 34.5625 67.765625 
Q 39.84375 65.234375 41.984375 59.953125 
Q 44.140625 54.6875 42.578125 48.4375 
Q 41.015625 42.1875 33.59375 37.5 
Q 39.0625 35.15625 41.984375 30.46875 
Q 44.921875 25.78125 43.9375 18.15625 
Q 42.96875 10.546875 37.109375 5.859375 
Q 31.25 1.171875 23.828125 1.359375 
Q 16.40625 1.5625 10.9375 6.046875 
Q 5.46875 10.546875 3.90625 19.140625 
z
" id="SimHei-51"/>
      </defs>
      <g transform="translate(19.325 24.529301)scale(0.1 -0.1)">
       <use xlink:href="#SimHei-49"/>
       <use x="50" xlink:href="#SimHei-46"/>
       <use x="100" xlink:href="#SimHei-56"/>
       <use x="150" xlink:href="#SimHei-51"/>
      </g>
     </g>
    </g>
    <g id="text_15">
     <!-- Value -->
     <defs>
      <path d="M 47.65625 68.75 
L 28.125 1.171875 
L 20.3125 1.171875 
L 0.78125 68.75 
L 10.15625 68.75 
L 23.828125 17.578125 
L 24.609375 17.578125 
L 38.28125 68.75 
z
" id="SimHei-86"/>
      <path d="M 28.515625 1.953125 
L 20.703125 1.953125 
L 20.703125 68.75 
L 28.515625 68.75 
z
" id="SimHei-108"/>
     </defs>
     <g transform="translate(14.075 152.756)rotate(-90)scale(0.1 -0.1)">
      <use xlink:href="#SimHei-86"/>
      <use x="50" xlink:href="#SimHei-97"/>
      <use x="100" xlink:href="#SimHei-108"/>
      <use x="150" xlink:href="#SimHei-117"/>
      <use x="200" xlink:href="#SimHei-101"/>
     </g>
    </g>
   </g>
   <g id="line2d_14">
    <path clip-path="url(#pd6bcb76cc4)" d="M 62.557727 19.296 
L 62.882707 23.896063 
L 63.857645 47.032198 
L 64.182625 51.27456 
L 65.157563 54.981536 
L 65.482543 54.675276 
L 65.807523 55.885779 
L 66.132502 56.172877 
L 66.782461 56.994935 
L 67.43242 57.554966 
L 68.407359 59.025857 
L 68.732338 59.197555 
L 69.057318 59.601653 
L 69.382297 59.636059 
L 70.032256 60.406254 
L 70.357236 60.435283 
L 70.682215 60.211525 
L 71.007195 60.851266 
L 71.332174 60.901494 
L 71.982133 61.502734 
L 72.632093 63.059877 
L 73.282052 64.444657 
L 73.607031 64.62809 
L 73.932011 64.66778 
L 74.25699 64.561978 
L 74.906949 65.500702 
L 75.231929 66.069496 
L 75.881888 68.344324 
L 76.531847 69.154881 
L 76.856826 69.267049 
L 77.181806 70.083207 
L 77.506785 70.418296 
L 77.831765 72.225315 
L 78.156744 73.343173 
L 78.806704 76.800338 
L 79.131683 78.247601 
L 79.456663 78.562021 
L 79.781642 78.049223 
L 80.106622 79.089051 
L 81.08156 80.135406 
L 81.731519 80.403612 
L 82.381478 80.584504 
L 84.331355 81.915599 
L 84.656335 80.351488 
L 84.981314 82.138959 
L 85.306294 82.366698 
L 85.631274 82.386206 
L 85.956253 82.554153 
L 86.281233 81.634034 
L 86.606212 81.540079 
L 86.931192 82.518518 
L 87.256171 82.424438 
L 87.581151 82.854345 
L 88.23111 83.203681 
L 88.881069 83.714346 
L 89.206048 83.579951 
L 89.531028 83.144962 
L 89.856007 84.627981 
L 90.505966 85.559142 
L 90.830946 85.77316 
L 91.155925 85.802876 
L 91.805885 86.19053 
L 92.455844 86.598729 
L 93.105803 87.666602 
L 93.430782 87.667652 
L 94.7307 92.536899 
L 95.05568 91.495218 
L 95.380659 94.5187 
L 95.705639 95.713304 
L 96.030618 95.803155 
L 97.005557 101.44775 
L 97.330536 101.233822 
L 97.980495 102.474041 
L 98.305475 102.242203 
L 98.630455 100.999132 
L 99.605393 103.062763 
L 100.255352 103.410907 
L 100.580332 102.620545 
L 100.905311 103.796388 
L 101.55527 104.305506 
L 101.88025 104.226249 
L 102.530209 104.294764 
L 102.855188 104.599928 
L 103.505147 104.765537 
L 103.830127 103.424397 
L 104.155106 105.147695 
L 104.480086 105.21541 
L 104.805066 105.53518 
L 105.130045 103.792138 
L 105.455025 105.780675 
L 106.754943 106.470593 
L 107.079922 106.930066 
L 107.404902 106.365765 
L 107.729881 107.211566 
L 108.054861 107.399604 
L 108.37984 105.552843 
L 108.70482 107.271124 
L 109.029799 107.603901 
L 109.354779 107.603737 
L 109.679758 106.942592 
L 110.004738 107.420896 
L 110.329717 108.842442 
L 110.654697 109.59541 
L 111.629636 113.438868 
L 111.954615 114.179624 
L 112.279595 115.265002 
L 112.604574 115.870635 
L 113.254533 117.850366 
L 114.229472 123.855597 
L 114.554451 125.203765 
L 114.879431 125.743305 
L 115.20441 126.645579 
L 116.179349 128.216852 
L 116.829308 130.188406 
L 117.154287 131.076065 
L 117.479267 129.730863 
L 117.804247 132.695034 
L 118.129226 132.86614 
L 118.454206 135.784619 
L 118.779185 136.97033 
L 119.104165 137.343831 
L 119.429144 136.413666 
L 119.754124 137.887723 
L 120.079103 138.315364 
L 120.404083 138.382764 
L 120.729062 138.188246 
L 121.054042 138.613795 
L 121.379021 138.803025 
L 121.704001 139.189187 
L 122.02898 140.001837 
L 122.35396 140.161527 
L 122.678939 140.689771 
L 123.003919 140.40584 
L 123.328898 141.414355 
L 123.653878 141.641941 
L 123.978857 142.355416 
L 124.303837 142.703692 
L 124.628817 143.428302 
L 124.953796 141.835375 
L 125.278776 144.441705 
L 125.603755 144.847231 
L 125.928735 145.038538 
L 126.253714 143.573547 
L 126.578694 145.201458 
L 126.903673 145.042234 
L 127.228653 145.814293 
L 127.553632 145.054164 
L 127.878612 145.330397 
L 128.203591 147.075034 
L 128.528571 145.257758 
L 128.85355 144.207071 
L 129.17853 146.314312 
L 129.503509 146.356477 
L 129.828489 146.922969 
L 130.153468 149.022269 
L 130.478448 148.984334 
L 130.803428 149.524642 
L 131.128407 149.651631 
L 131.453387 149.441449 
L 131.778366 149.540905 
L 132.103346 149.898519 
L 132.428325 149.611642 
L 132.753305 150.441949 
L 133.078284 150.584077 
L 133.403264 150.938426 
L 133.728243 150.021258 
L 134.053223 151.377281 
L 134.378202 150.053776 
L 134.703182 151.377902 
L 135.028161 151.689512 
L 135.353141 152.313819 
L 135.67812 153.890582 
L 136.653059 156.217868 
L 136.978038 156.429791 
L 137.303018 157.000486 
L 137.627998 156.724014 
L 137.952977 157.179603 
L 138.277957 157.309557 
L 138.602936 157.088675 
L 140.227834 157.618286 
L 140.552813 157.312909 
L 140.877793 157.587633 
L 141.202772 156.943355 
L 141.527752 157.783914 
L 141.852731 157.741473 
L 142.177711 158.079222 
L 142.50269 158.943007 
L 143.152649 158.913151 
L 143.477629 160.136862 
L 143.802609 160.647051 
L 144.127588 160.764847 
L 144.452568 160.37555 
L 144.777547 161.060497 
L 145.752486 161.895551 
L 146.402445 162.83079 
L 146.727424 163.898923 
L 147.052404 165.564039 
L 147.377383 166.130318 
L 147.702363 167.429942 
L 148.027342 168.017406 
L 148.352322 168.902556 
L 148.677301 168.976592 
L 149.002281 169.914107 
L 149.32726 170.392066 
L 149.65224 170.612607 
L 149.977219 169.710794 
L 150.302199 170.768545 
L 150.627179 170.888821 
L 150.952158 169.954876 
L 151.277138 171.054614 
L 151.602117 171.065751 
L 151.927097 170.050134 
L 152.252076 171.564884 
L 152.577056 171.630681 
L 152.902035 169.286719 
L 153.227015 171.896951 
L 153.551994 171.637664 
L 153.876974 173.062274 
L 154.201953 173.314539 
L 154.526933 174.301221 
L 154.851912 174.490278 
L 155.176892 174.449071 
L 155.501871 173.431345 
L 155.826851 172.906109 
L 156.15183 175.435955 
L 158.426687 177.595249 
L 158.751667 178.234925 
L 159.076646 177.555181 
L 159.401626 178.630435 
L 159.726605 178.756954 
L 160.051585 178.602921 
L 160.376564 178.836925 
L 160.701544 178.169779 
L 161.026523 179.144256 
L 161.676482 179.14161 
L 162.001462 178.293514 
L 162.326441 179.313278 
L 162.651421 178.824477 
L 162.9764 178.712272 
L 163.30138 177.700119 
L 163.62636 179.242809 
L 163.951339 179.208547 
L 164.276319 178.193792 
L 164.601298 179.385961 
L 164.926278 178.295987 
L 165.251257 178.193856 
L 165.901216 179.771087 
L 166.226196 177.996556 
L 166.551175 180.008424 
L 166.876155 180.363233 
L 167.201134 176.816403 
L 167.526114 178.907448 
L 167.851093 180.026499 
L 168.176073 180.732475 
L 168.501052 180.762016 
L 168.826032 180.580681 
L 169.475991 180.966038 
L 169.800971 179.93684 
L 170.12595 180.879325 
L 170.45093 180.971198 
L 170.775909 180.875489 
L 171.100889 181.161733 
L 171.425868 180.88709 
L 171.750848 180.071775 
L 172.075827 180.991672 
L 172.400807 181.329229 
L 172.725786 180.670418 
L 173.050766 179.348786 
L 173.375745 181.971376 
L 173.700725 182.55158 
L 174.025704 182.570193 
L 174.350684 183.55208 
L 174.675663 183.97693 
L 175.000643 185.217125 
L 175.325622 185.952142 
L 175.650602 186.382428 
L 175.975581 186.146601 
L 176.300561 186.193568 
L 176.625541 183.741964 
L 176.95052 185.609113 
L 177.2755 186.306387 
L 177.600479 186.712403 
L 177.925459 185.791811 
L 178.250438 186.295304 
L 178.575418 186.58144 
L 178.900397 187.171856 
L 179.225377 186.663488 
L 179.550356 186.696063 
L 179.875336 187.667883 
L 180.200315 185.054461 
L 180.525295 187.995776 
L 180.850274 188.358996 
L 181.175254 187.952468 
L 181.825213 188.575264 
L 182.150192 187.783008 
L 182.475172 188.947114 
L 183.125131 188.827223 
L 183.450111 186.842476 
L 184.10007 189.37959 
L 184.425049 188.993441 
L 184.750029 189.303536 
L 185.399988 189.429984 
L 185.724967 189.709013 
L 187.024885 189.852654 
L 187.349865 189.514114 
L 187.674844 189.928738 
L 188.324803 190.398523 
L 188.649783 185.960848 
L 188.974762 188.985428 
L 189.299742 190.336215 
L 189.624722 188.727424 
L 189.949701 191.09545 
L 190.274681 189.401427 
L 190.59966 189.516904 
L 190.92464 191.879088 
L 191.899578 194.036879 
L 192.549537 194.762344 
L 192.874517 191.994523 
L 193.199496 194.536674 
L 193.524476 192.488845 
L 193.849455 195.84354 
L 194.174435 195.701546 
L 194.499414 197.238499 
L 194.824394 197.904117 
L 195.149373 198.26271 
L 195.474353 195.661939 
L 195.799333 195.530376 
L 196.124312 197.681773 
L 196.449292 198.576843 
L 196.774271 198.698106 
L 197.099251 198.385287 
L 197.42423 198.678981 
L 197.74921 198.460004 
L 198.074189 199.016446 
L 198.399169 199.284253 
L 198.724148 199.209907 
L 199.049128 196.92185 
L 199.374107 199.900772 
L 199.699087 198.861303 
L 200.024066 200.677393 
L 200.674025 201.524801 
L 200.999005 200.277512 
L 201.323984 201.610982 
L 201.973943 202.42385 
L 202.298923 202.209049 
L 202.623903 202.523702 
L 202.948882 202.659651 
L 203.273862 203.012413 
L 203.598841 202.875529 
L 203.923821 203.158945 
L 204.57378 203.006082 
L 204.898759 202.554771 
L 205.223739 202.842795 
L 205.548718 200.781921 
L 205.873698 202.550692 
L 206.198677 203.155984 
L 206.523657 203.188251 
L 206.848636 202.935448 
L 207.173616 203.233322 
L 207.498595 203.302482 
L 207.823575 203.256751 
L 208.148554 203.07693 
L 208.473534 200.393234 
L 208.798514 202.344259 
L 209.123493 203.447242 
L 209.448473 202.12487 
L 210.098432 203.743968 
L 210.423411 203.109942 
L 210.748391 204.195748 
L 211.39835 200.917467 
L 211.723329 204.322406 
L 212.048309 204.53854 
L 212.373288 202.689185 
L 212.698268 204.616308 
L 213.023247 202.915488 
L 213.348227 204.804744 
L 213.673206 203.761626 
L 213.998186 204.623043 
L 214.648145 204.595893 
L 214.973124 203.309091 
L 215.298104 204.135042 
L 215.948063 202.61667 
L 216.273043 204.816426 
L 216.598022 202.096951 
L 216.923002 204.375326 
L 217.247981 204.604173 
L 217.572961 205.014211 
L 217.89794 203.567611 
L 218.22292 203.01663 
L 218.547899 205.29092 
L 219.197858 205.451178 
L 219.522838 205.256133 
L 220.172797 205.671121 
L 220.497776 204.654144 
L 221.147735 206.081358 
L 221.472715 206.06221 
L 221.797695 205.375845 
L 222.122674 205.052666 
L 222.447654 205.587689 
L 222.772633 206.40426 
L 223.097613 205.917666 
L 223.422592 204.784805 
L 223.747572 205.403923 
L 224.072551 205.160584 
L 224.397531 206.355612 
L 225.04749 206.407515 
L 225.697449 205.659186 
L 226.022428 205.674435 
L 226.347408 206.314258 
L 226.672387 206.195469 
L 226.997367 206.702875 
L 227.322346 205.697673 
L 227.647326 205.346781 
L 227.972305 206.111418 
L 228.622265 206.988262 
L 228.947244 207.239604 
L 229.272224 207.756277 
L 229.597203 207.964682 
L 229.922183 206.456055 
L 230.247162 207.146157 
L 230.572142 205.8639 
L 230.897121 207.347512 
L 231.222101 208.13828 
L 231.87206 208.441296 
L 232.197039 208.340617 
L 232.522019 208.682571 
L 232.846998 208.757071 
L 233.171978 207.133948 
L 233.496957 208.80346 
L 233.821937 208.517656 
L 234.146916 208.052441 
L 234.471896 207.253162 
L 234.796876 208.266327 
L 235.121855 208.827302 
L 235.446835 207.314624 
L 235.771814 208.920916 
L 236.096794 209.655596 
L 236.421773 209.87751 
L 237.071732 209.401424 
L 238.046671 210.66979 
L 238.37165 207.2971 
L 238.69663 210.796755 
L 239.021609 208.841421 
L 239.346589 211.054111 
L 239.671568 207.829951 
L 239.996548 211.206385 
L 240.321527 210.946422 
L 240.646507 210.351713 
L 240.971486 211.024855 
L 241.296466 211.151243 
L 241.621446 209.924614 
L 241.946425 210.97847 
L 242.271405 211.091108 
L 242.596384 212.146195 
L 242.921364 211.860006 
L 243.246343 212.824486 
L 243.571323 211.841142 
L 243.896302 213.345266 
L 244.221282 212.054515 
L 244.546261 213.485611 
L 244.871241 211.986129 
L 245.19622 213.634089 
L 245.5212 212.801606 
L 245.846179 213.467888 
L 246.496138 213.795913 
L 246.821118 213.073216 
L 247.146097 212.070105 
L 247.796057 212.686746 
L 248.121036 210.042926 
L 248.446016 213.923864 
L 248.770995 211.116817 
L 249.095975 214.421102 
L 249.420954 215.192482 
L 249.745934 211.840094 
L 250.070913 215.463682 
L 250.395893 215.289633 
L 250.720872 214.815206 
L 251.045852 215.092569 
L 251.370831 215.218936 
L 251.695811 213.733655 
L 252.02079 214.247564 
L 252.34577 215.813461 
L 252.670749 214.804245 
L 252.995729 216.010378 
L 253.320708 215.876355 
L 253.645688 215.938407 
L 253.970667 215.025036 
L 254.295647 215.573846 
L 254.620627 216.60375 
L 254.945606 216.693445 
L 255.270586 215.819822 
L 255.595565 215.685272 
L 255.920545 216.256917 
L 256.245524 216.477979 
L 256.570504 216.071361 
L 256.895483 214.319152 
L 257.220463 216.320564 
L 257.545442 216.489298 
L 257.870422 216.822068 
L 258.195401 215.354499 
L 258.520381 211.316473 
L 258.84536 215.399354 
L 259.17034 215.702874 
L 259.495319 216.307979 
L 259.820299 216.407082 
L 260.145278 213.480793 
L 260.470258 216.811139 
L 260.795238 217.056967 
L 261.120217 216.5874 
L 261.445197 216.755329 
L 261.770176 213.908726 
L 262.095156 216.839327 
L 262.420135 217.136213 
L 262.745115 216.863406 
L 263.070094 217.098293 
L 263.395074 216.57937 
L 263.720053 216.587675 
L 264.045033 217.225943 
L 264.694992 214.013622 
L 265.019971 217.778177 
L 265.344951 217.461542 
L 265.66993 214.418875 
L 265.99491 217.897219 
L 266.319889 216.464261 
L 266.644869 217.914849 
L 266.969848 218.154493 
L 267.294828 217.858181 
L 267.944787 218.813768 
L 268.269767 215.403978 
L 268.594746 215.637551 
L 269.244705 219.150582 
L 269.569685 219.031672 
L 269.894664 219.733396 
L 270.219644 220.165818 
L 270.544623 220.843456 
L 270.869603 221.105803 
L 271.194582 220.918102 
L 271.519562 217.872669 
L 272.169521 220.771633 
L 272.4945 221.383336 
L 273.144459 220.20337 
L 273.469439 221.464745 
L 273.794419 221.924944 
L 274.119398 220.994985 
L 274.444378 221.532954 
L 274.769357 221.524384 
L 275.094337 218.759976 
L 275.419316 221.600609 
L 275.744296 219.535363 
L 276.394255 222.539247 
L 276.719234 219.688736 
L 277.044214 222.721896 
L 277.369193 222.799665 
L 277.694173 223.135619 
L 278.019152 222.388914 
L 278.344132 223.054827 
L 278.669111 221.305742 
L 278.994091 223.210028 
L 279.31907 221.456902 
L 279.64405 223.312964 
L 279.969029 222.201943 
L 280.294009 223.298382 
L 280.618989 221.654389 
L 280.943968 223.606553 
L 281.268948 223.886805 
L 281.918907 223.840229 
L 282.243886 223.509499 
L 282.568866 222.170878 
L 282.893845 223.092717 
L 283.218825 223.439375 
L 283.543804 221.939628 
L 283.868784 224.007211 
L 284.193763 223.930026 
L 284.518743 224.182324 
L 284.843722 224.096268 
L 285.168702 224.333856 
L 285.818661 223.975651 
L 286.46862 224.579318 
L 286.7936 224.454934 
L 287.443559 220.757517 
L 287.768538 224.601025 
L 289.393436 224.673016 
L 289.718415 224.32871 
L 290.043395 223.684876 
L 290.368374 223.891699 
L 290.693354 223.004061 
L 291.018333 223.660028 
L 291.343313 223.431024 
L 291.668292 223.434825 
L 291.993272 223.828963 
L 292.318251 224.555855 
L 292.643231 222.887411 
L 292.96821 224.503303 
L 293.29319 224.337982 
L 293.943149 223.395337 
L 294.268129 223.372982 
L 294.593108 224.586158 
L 294.918088 223.620067 
L 295.243067 224.543771 
L 295.568047 223.03117 
L 295.893026 225.261875 
L 296.218006 225.228795 
L 296.542985 226.778782 
L 296.867965 227.291599 
L 297.192944 226.947352 
L 297.517924 227.409534 
L 298.167883 227.810318 
L 298.492862 227.5751 
L 298.817842 227.59623 
L 299.142821 227.270937 
L 299.467801 228.442661 
L 299.792781 227.844572 
L 300.11776 227.591036 
L 300.44274 227.174703 
L 300.767719 227.153646 
L 301.092699 226.731443 
L 301.417678 228.41727 
L 301.742658 228.025718 
L 302.067637 228.044801 
L 302.392617 226.089688 
L 303.042576 228.639205 
L 303.692535 229.674801 
L 304.017514 228.996182 
L 304.342494 229.504852 
L 304.667473 228.673229 
L 304.992453 229.418717 
L 305.317432 227.787752 
L 305.642412 230.000809 
L 305.967391 229.95612 
L 306.292371 229.628791 
L 306.617351 230.148139 
L 306.94233 230.053915 
L 307.26731 229.516049 
L 307.592289 224.444299 
L 307.917269 230.463381 
L 308.242248 229.246855 
L 308.567228 229.385896 
L 308.892207 229.784713 
L 309.217187 230.929094 
L 309.542166 230.92042 
L 309.867146 230.361458 
L 310.192125 230.690776 
L 310.517105 228.437848 
L 310.842084 232.440604 
L 311.167064 231.647795 
L 312.142002 236.333408 
L 312.466982 235.880452 
L 312.791962 233.818269 
L 313.441921 237.835579 
L 313.7669 235.771729 
L 314.09188 236.255521 
L 314.416859 237.505054 
L 315.066818 237.734296 
L 315.391798 239.2663 
L 315.716777 239.15836 
L 316.041757 239.220272 
L 316.691716 240.084965 
L 317.016695 239.971794 
L 317.341675 239.629856 
L 317.666654 241.203519 
L 317.991634 239.964697 
L 318.316613 241.309915 
L 318.641593 240.812914 
L 318.966572 241.101689 
L 319.291552 240.980818 
L 319.616532 241.348246 
L 319.941511 241.287892 
L 320.266491 237.936259 
L 320.59147 241.048964 
L 320.91645 240.455264 
L 321.241429 240.328455 
L 321.566409 241.309891 
L 321.891388 240.943255 
L 322.216368 241.44393 
L 322.541347 241.302064 
L 322.866327 239.690843 
L 323.191306 240.772315 
L 323.516286 241.038978 
L 323.841265 239.520757 
L 324.166245 241.358573 
L 324.491224 240.27156 
L 324.816204 241.44875 
L 325.141183 241.148163 
L 325.466163 237.497097 
L 325.791143 241.280843 
L 326.441102 242.017194 
L 326.766081 241.888216 
L 327.41604 244.761335 
L 328.065999 246.15151 
L 328.390979 246.172131 
L 328.715958 246.761775 
L 329.040938 245.919902 
L 329.365917 247.22125 
L 330.015876 248.555632 
L 330.340856 248.811509 
L 330.665835 248.801922 
L 330.990815 248.573982 
L 331.315794 249.405932 
L 331.640774 246.817018 
L 331.965753 249.699145 
L 332.290733 250.132034 
L 332.615713 250.187232 
L 332.940692 248.824906 
L 333.265672 250.277019 
L 333.590651 250.80933 
L 333.915631 250.817353 
L 334.24061 251.29534 
L 334.56559 251.236601 
L 335.215549 253.15282 
L 335.540528 253.235583 
L 335.865508 253.180005 
L 336.190487 253.352914 
L 336.515467 252.544203 
L 336.840446 253.219865 
L 337.165426 253.39356 
L 337.490405 253.39913 
L 337.815385 251.548857 
L 338.140364 253.58888 
L 338.790324 253.781495 
L 339.115303 253.770615 
L 339.440283 253.622005 
L 339.765262 253.120126 
L 340.090242 253.06863 
L 340.740201 249.997096 
L 341.06518 253.363603 
L 341.715139 253.921703 
L 342.040119 252.804818 
L 342.365098 253.921058 
L 342.690078 253.553891 
L 343.015057 253.946442 
L 343.340037 253.407529 
L 343.665016 253.107665 
L 343.989996 253.368403 
L 344.314975 252.737975 
L 344.639955 253.850336 
L 344.964934 253.645023 
L 345.289914 253.722718 
L 345.614894 252.650764 
L 345.939873 254.050817 
L 346.264853 252.864335 
L 346.589832 253.114012 
L 346.914812 253.694299 
L 347.564771 254.185057 
L 347.88975 252.205555 
L 348.21473 252.711599 
L 348.539709 254.090152 
L 348.864689 252.601852 
L 349.189668 254.267208 
L 349.514648 254.486328 
L 349.839627 251.615612 
L 350.164607 252.367555 
L 350.489586 254.254775 
L 350.814566 252.106743 
L 351.139545 253.913934 
L 351.464525 254.422112 
L 351.789505 254.341767 
L 352.114484 254.695788 
L 352.439464 253.451296 
L 352.764443 254.676851 
L 353.089423 254.612521 
L 353.739382 252.329405 
L 354.064361 254.052455 
L 354.389341 254.39697 
L 354.71432 252.873493 
L 355.364279 256.151117 
L 355.689259 256.836526 
L 356.014238 254.96376 
L 356.339218 257.08916 
L 356.664197 257.31711 
L 356.989177 256.436017 
L 357.314156 257.225803 
L 357.639136 256.908611 
L 357.964115 257.579968 
L 358.289095 255.785763 
L 358.614075 257.618405 
L 358.939054 257.284348 
L 359.264034 256.464057 
L 359.589013 256.984401 
L 359.913993 254.835222 
L 360.238972 257.261216 
L 360.563952 256.102316 
L 360.888931 255.843102 
L 361.213911 257.690562 
L 361.53889 257.858917 
L 361.86387 257.667822 
L 362.188849 255.171819 
L 362.513829 257.495003 
L 362.838808 253.336131 
L 363.163788 255.047629 
L 363.488767 257.951474 
L 364.138726 257.399857 
L 364.463706 258.083198 
L 364.788686 258.370588 
L 365.113665 257.60887 
L 365.438645 257.705923 
L 365.763624 258.331082 
L 366.088604 257.950736 
L 366.413583 256.431901 
L 366.738563 258.118735 
L 367.063542 254.996328 
L 367.388522 258.704955 
L 367.713501 257.114504 
L 368.038481 258.671601 
L 368.68844 257.684353 
L 369.013419 258.67556 
L 369.338399 258.207926 
L 369.663378 258.465809 
L 369.988358 258.336819 
L 370.313337 257.564076 
L 370.638317 258.517808 
L 370.963296 258.920918 
L 371.288276 258.093362 
L 371.613256 258.945569 
L 371.938235 254.156312 
L 372.263215 258.966507 
L 372.588194 257.448788 
L 372.913174 258.548115 
L 373.238153 259.014023 
L 373.563133 258.925287 
L 373.888112 258.497014 
L 374.213092 258.647166 
L 374.538071 259.030269 
L 374.863051 259.129394 
L 375.18803 255.649537 
L 375.51301 259.177687 
L 375.837989 256.898264 
L 376.162969 257.322088 
L 376.487948 258.970596 
L 376.812928 254.900421 
L 377.137907 258.076483 
L 377.462887 259.453701 
L 377.787867 259.549532 
L 378.112846 259.45738 
L 378.437826 258.876991 
L 378.762805 259.874202 
L 379.087785 259.674417 
L 379.412764 259.250709 
L 379.737744 258.369764 
L 380.062723 260.475279 
L 380.387703 260.31516 
L 380.712682 259.956722 
L 381.037662 259.330221 
L 381.362641 260.789554 
L 381.687621 260.953847 
L 382.0126 256.403029 
L 382.33758 257.285239 
L 382.662559 260.51029 
L 383.312518 258.123838 
L 383.637498 259.603974 
L 383.962477 259.869569 
L 384.287457 260.635373 
L 384.612437 261.004118 
L 385.262396 259.615848 
L 385.587375 259.806258 
L 385.912355 260.978837 
L 386.237334 260.228574 
L 386.562314 260.352009 
L 386.887293 261.019338 
L 387.212273 258.362413 
L 387.212273 258.362413 
" style="fill:none;stroke:#1f77b4;stroke-linecap:square;stroke-width:1.5;"/>
   </g>
   <g id="line2d_15">
    <path clip-path="url(#pd6bcb76cc4)" d="M 62.557727 50.58543 
L 62.882707 50.58543 
L 63.207686 54.859298 
L 64.182625 54.859303 
L 64.507604 55.661298 
L 64.832584 55.941763 
L 65.157563 55.941763 
L 65.807523 56.626232 
L 66.132502 57.522792 
L 66.782461 57.799185 
L 67.107441 59.109379 
L 67.7574 59.52399 
L 68.082379 59.793191 
L 68.732338 59.932671 
L 69.057318 60.563002 
L 69.382297 60.710902 
L 70.357236 60.776958 
L 70.682215 61.299741 
L 71.332174 61.301811 
L 71.657154 64.414591 
L 72.307113 64.416426 
L 72.632093 64.688363 
L 73.282052 64.710398 
L 73.932011 65.144037 
L 74.25699 65.144037 
L 74.58197 68.698408 
L 74.906949 68.869178 
L 75.881888 68.922772 
L 76.206867 70.886543 
L 76.856826 70.886543 
L 77.181806 72.900185 
L 77.506785 78.219915 
L 78.481724 78.235987 
L 78.806704 78.919584 
L 79.131683 78.919985 
L 79.781642 80.245123 
L 80.106622 80.245123 
L 80.431601 80.372469 
L 80.756581 80.372469 
L 81.08156 80.630277 
L 81.40654 80.630277 
L 82.056499 81.076419 
L 82.381478 81.076419 
L 83.356417 81.831974 
L 84.006376 82.537314 
L 85.956253 82.572142 
L 86.281233 82.659955 
L 86.606212 82.870726 
L 86.931192 82.871254 
L 87.256171 83.026068 
L 87.90613 83.780306 
L 88.23111 83.780306 
L 88.556089 84.424513 
L 88.881069 84.424513 
L 89.206048 85.057123 
L 89.531028 85.971809 
L 90.830946 86.090185 
L 91.155925 86.735695 
L 91.805885 86.735695 
L 92.130864 86.919967 
L 92.455844 86.919969 
L 92.780823 92.360086 
L 94.080741 92.371437 
L 94.405721 95.490968 
L 94.7307 95.490968 
L 95.05568 96.37753 
L 95.380659 101.432265 
L 95.705639 101.432265 
L 96.030618 102.319 
L 97.005557 102.326004 
L 97.330536 102.824402 
L 97.980495 102.842017 
L 98.305475 103.060941 
L 98.955434 103.067832 
L 99.280414 103.469764 
L 99.605393 103.566306 
L 99.930373 103.804749 
L 100.255352 103.804749 
L 100.580332 104.438827 
L 103.180168 104.835144 
L 103.505147 105.796315 
L 104.155106 105.884381 
L 104.480086 105.907609 
L 104.805066 106.102596 
L 105.455025 106.152817 
L 105.780004 107.166234 
L 106.429963 107.166437 
L 106.754943 107.410634 
L 107.404902 107.518181 
L 109.029799 107.684285 
L 109.679758 107.816815 
L 110.004738 111.812699 
L 110.329717 111.855058 
L 110.654697 112.796199 
L 110.979676 115.510908 
L 111.629636 115.586764 
L 111.954615 116.588243 
L 112.604574 116.588249 
L 112.929554 126.004202 
L 113.579513 126.066723 
L 113.904492 126.463337 
L 114.229472 126.661372 
L 114.554451 128.017088 
L 114.879431 128.017088 
L 115.52939 129.086541 
L 115.854369 131.891084 
L 116.504328 131.89109 
L 116.829308 132.110085 
L 117.154287 133.058553 
L 117.479267 137.802188 
L 117.804247 138.198799 
L 118.779185 138.216962 
L 119.104165 138.468753 
L 120.729062 138.525315 
L 121.054042 140.773197 
L 122.02898 140.802963 
L 122.35396 141.772382 
L 122.678939 141.820886 
L 123.003919 141.991127 
L 123.978857 144.934523 
L 124.953796 145.043095 
L 125.278776 145.619549 
L 125.928735 145.619549 
L 126.578694 145.834871 
L 126.903673 145.834871 
L 127.228653 147.014027 
L 127.553632 147.296997 
L 127.878612 148.218625 
L 128.528571 148.521535 
L 128.85355 148.742133 
L 129.17853 149.414803 
L 129.503509 149.416252 
L 129.828489 149.701189 
L 130.803428 149.79846 
L 131.128407 150.167862 
L 131.453387 150.167862 
L 131.778366 150.596386 
L 132.428325 150.665415 
L 132.753305 151.380328 
L 133.728243 151.436658 
L 134.053223 152.477516 
L 134.703182 152.525795 
L 135.028161 156.134913 
L 135.67812 156.134915 
L 136.0031 157.258795 
L 138.277957 157.349746 
L 139.577875 157.734819 
L 141.202772 157.831 
L 141.527752 158.711369 
L 141.852731 160.460826 
L 142.177711 160.611382 
L 143.152649 160.741526 
L 143.477629 160.84916 
L 143.802609 161.383976 
L 144.452568 161.433057 
L 144.777547 161.567035 
L 145.102527 162.442008 
L 145.427506 162.442008 
L 145.752486 164.622859 
L 146.077465 164.622887 
L 146.402445 167.129668 
L 146.727424 167.132175 
L 147.052404 167.351623 
L 147.377383 169.962879 
L 148.027342 169.962939 
L 148.352322 170.702622 
L 148.677301 170.702638 
L 149.002281 170.855798 
L 150.302199 170.945055 
L 150.627179 171.617903 
L 151.927097 171.644383 
L 152.252076 171.733805 
L 152.577056 171.971522 
L 152.902035 173.962789 
L 153.227015 173.962901 
L 153.551994 174.662556 
L 154.201953 174.686835 
L 154.526933 175.574653 
L 154.851912 175.586236 
L 155.501871 176.273096 
L 156.47681 176.344124 
L 156.80179 178.189228 
L 157.776728 178.209625 
L 158.101708 178.6631 
L 158.751667 178.665017 
L 159.076646 179.163734 
L 161.351503 179.249659 
L 161.676482 179.288933 
L 162.001462 179.625152 
L 163.62636 179.723339 
L 163.951339 179.723339 
L 164.276319 180.058493 
L 165.576237 180.139659 
L 165.901216 180.459921 
L 166.551175 180.477058 
L 166.876155 180.823513 
L 167.851093 180.830108 
L 168.176073 180.995952 
L 169.475991 181.069765 
L 170.12595 181.206471 
L 171.100889 181.212591 
L 172.400807 181.64083 
L 172.725786 182.721431 
L 173.050766 183.104942 
L 173.375745 183.870365 
L 173.700725 183.870365 
L 174.025704 185.373076 
L 174.350684 185.394539 
L 174.675663 186.687766 
L 177.600479 186.838206 
L 177.925459 187.601515 
L 178.575418 187.604183 
L 178.900397 188.358029 
L 180.850274 188.473603 
L 181.175254 188.539892 
L 181.500233 189.398404 
L 182.150192 189.578924 
L 184.10007 189.673707 
L 185.399988 189.847884 
L 185.724967 190.007264 
L 186.049947 190.007264 
L 186.374926 190.125394 
L 186.699906 190.394811 
L 187.674844 190.554358 
L 188.649783 190.556466 
L 188.974762 190.757806 
L 189.299742 190.824042 
L 189.624722 193.925862 
L 189.949701 193.925862 
L 190.274681 194.698696 
L 191.574599 194.713305 
L 192.224558 195.114137 
L 192.874517 195.122416 
L 193.199496 198.546741 
L 195.799333 198.586159 
L 196.449292 198.843444 
L 196.774271 199.297923 
L 197.099251 199.297923 
L 197.74921 199.847963 
L 198.724148 199.877514 
L 199.374107 202.030014 
L 200.349046 202.077358 
L 200.674025 202.077359 
L 201.323984 202.86541 
L 201.648964 202.86541 
L 201.973943 203.193583 
L 206.198677 203.298954 
L 207.823575 203.33765 
L 208.473534 203.681023 
L 208.798514 203.681023 
L 209.123493 204.036214 
L 209.448473 204.036214 
L 209.773452 204.362805 
L 210.098432 204.377557 
L 210.423411 204.518823 
L 211.07337 204.518993 
L 211.39835 204.786476 
L 213.998186 204.876393 
L 215.298104 204.930699 
L 216.598022 204.974252 
L 216.923002 205.195177 
L 217.247981 205.201754 
L 217.572961 205.628079 
L 218.547899 205.672353 
L 219.197858 205.75542 
L 219.522838 205.761126 
L 219.847817 206.326179 
L 222.447654 206.414881 
L 223.097613 206.524883 
L 224.72251 206.566719 
L 225.372469 206.740576 
L 225.697449 206.740576 
L 226.022428 207.163653 
L 226.347408 207.322119 
L 227.647326 207.349454 
L 227.972305 208.039474 
L 229.272224 208.146663 
L 230.572142 208.243456 
L 230.897121 208.719055 
L 234.471896 208.930129 
L 234.796876 210.07014 
L 235.446835 210.130066 
L 235.771814 210.328189 
L 236.096794 210.328189 
L 236.421773 210.841738 
L 237.071732 210.845227 
L 238.046671 211.119306 
L 238.37165 211.119306 
L 239.021609 211.268438 
L 239.996548 211.345046 
L 240.321527 211.345046 
L 240.646507 211.613032 
L 241.621446 211.848475 
L 241.946425 212.957648 
L 242.271405 212.958213 
L 242.596384 213.352541 
L 242.921364 213.514919 
L 243.896302 213.575586 
L 244.546261 213.720309 
L 246.171159 213.84766 
L 246.496138 214.137811 
L 247.796057 214.217211 
L 248.121036 215.37728 
L 248.770995 215.519586 
L 249.745934 215.531494 
L 250.395893 215.705872 
L 251.045852 215.743148 
L 251.370831 216.01485 
L 251.695811 216.046179 
L 252.02079 216.215422 
L 252.995729 216.265945 
L 253.320708 216.640948 
L 253.645688 216.763025 
L 257.545442 216.869663 
L 258.84536 216.977444 
L 259.495319 217.060656 
L 260.795238 217.159008 
L 261.445197 217.240548 
L 262.420135 217.242056 
L 263.070094 217.364414 
L 263.395074 218.01573 
L 265.66993 218.119326 
L 265.99491 218.749963 
L 266.644869 218.828544 
L 267.294828 218.828544 
L 267.944787 219.006288 
L 268.269767 219.023023 
L 268.594746 220.385555 
L 269.244705 220.487065 
L 269.569685 221.328909 
L 270.219644 221.411718 
L 271.194582 221.470357 
L 271.519562 221.831831 
L 272.4945 221.893621 
L 273.144459 222.018113 
L 274.119398 222.114207 
L 274.444378 222.39932 
L 274.769357 222.432946 
L 275.094337 222.655296 
L 275.419316 223.056631 
L 276.069275 223.057073 
L 276.394255 223.203964 
L 278.344132 223.274859 
L 278.669111 223.823194 
L 280.294009 223.924704 
L 283.218825 224.017857 
L 283.543804 224.247572 
L 284.193763 224.283043 
L 284.518743 224.630165 
L 291.343313 224.705463 
L 291.993272 224.788874 
L 292.318251 225.084677 
L 293.943149 225.180783 
L 294.268129 225.438461 
L 295.243067 225.486042 
L 295.568047 228.440454 
L 301.742658 228.490379 
L 302.067637 229.783115 
L 303.367555 229.818771 
L 304.017514 229.992053 
L 305.317432 230.092647 
L 306.94233 230.305611 
L 307.26731 230.924345 
L 310.192125 231.063625 
L 310.517105 237.264645 
L 311.817023 237.331617 
L 312.142002 238.18851 
L 313.116941 238.18851 
L 313.441921 239.053754 
L 313.7669 239.130145 
L 314.09188 239.523112 
L 315.716777 239.575534 
L 316.041757 241.373451 
L 318.316613 241.42653 
L 321.566409 241.48152 
L 323.191306 241.700162 
L 325.466163 241.803849 
L 326.116122 241.817466 
L 326.441102 246.909872 
L 328.390979 246.917443 
L 328.715958 249.322485 
L 330.015876 249.381137 
L 330.340856 250.52893 
L 332.940692 250.623125 
L 333.265672 253.284651 
L 333.915631 253.367109 
L 336.840446 253.429606 
L 337.165426 253.767799 
L 338.140364 253.811456 
L 342.040119 253.97775 
L 343.989996 254.10917 
L 344.314975 254.110733 
L 344.639955 254.239389 
L 346.914812 254.347466 
L 347.239791 254.493202 
L 348.864689 254.59773 
L 349.839627 254.734565 
L 353.089423 254.829626 
L 353.414402 254.865646 
L 353.739382 257.36553 
L 355.364279 257.393693 
L 355.689259 257.5346 
L 356.989177 257.549356 
L 357.639136 257.661942 
L 358.289095 257.705625 
L 358.614075 257.840079 
L 360.563952 257.925391 
L 363.813747 258.307273 
L 364.138726 258.568799 
L 366.088604 258.626898 
L 366.738563 258.841922 
L 371.938235 258.963158 
L 372.588194 259.077717 
L 373.563133 259.139165 
L 374.213092 259.202171 
L 376.487948 259.30631 
L 376.812928 259.937695 
L 377.137907 259.937695 
L 377.462887 260.243398 
L 378.762805 260.288889 
L 379.087785 261.002392 
L 383.962477 261.073836 
L 384.937416 261.13245 
L 386.237334 261.182849 
L 387.212273 261.216 
L 387.212273 261.216 
" style="fill:none;stroke:#ff7f0e;stroke-linecap:square;stroke-width:1.5;"/>
   </g>
   <g id="patch_3">
    <path d="M 46.325 273.312 
L 46.325 7.2 
" style="fill:none;stroke:#000000;stroke-linecap:square;stroke-linejoin:miter;stroke-width:0.8;"/>
   </g>
   <g id="patch_4">
    <path d="M 403.445 273.312 
L 403.445 7.2 
" style="fill:none;stroke:#000000;stroke-linecap:square;stroke-linejoin:miter;stroke-width:0.8;"/>
   </g>
   <g id="patch_5">
    <path d="M 46.325 273.312 
L 403.445 273.312 
" style="fill:none;stroke:#000000;stroke-linecap:square;stroke-linejoin:miter;stroke-width:0.8;"/>
   </g>
   <g id="patch_6">
    <path d="M 46.325 7.2 
L 403.445 7.2 
" style="fill:none;stroke:#000000;stroke-linecap:square;stroke-linejoin:miter;stroke-width:0.8;"/>
   </g>
   <g id="legend_1">
    <g id="patch_7">
     <path d="M 254.445 43.871875 
L 396.445 43.871875 
Q 398.445 43.871875 398.445 41.871875 
L 398.445 14.2 
Q 398.445 12.2 396.445 12.2 
L 254.445 12.2 
Q 252.445 12.2 252.445 14.2 
L 252.445 41.871875 
Q 252.445 43.871875 254.445 43.871875 
z
" style="fill:#ffffff;opacity:0.8;stroke:#cccccc;stroke-linejoin:miter;"/>
    </g>
    <g id="line2d_16">
     <path d="M 256.445 20.785937 
L 276.445 20.785937 
" style="fill:none;stroke:#1f77b4;stroke-linecap:square;stroke-width:1.5;"/>
    </g>
    <g id="line2d_17"/>
    <g id="text_16">
     <!--  -->
     <defs>
      <path d="M 66.015625 62.5 
Q 66.015625 77.734375 65.625 82.421875 
L 73.828125 82.421875 
Q 73.4375 78.125 73.4375 62.5 
L 93.75 62.5 
Q 93.359375 58.203125 93.359375 50.78125 
L 93.359375 24.21875 
Q 93.359375 19.921875 93.75 14.453125 
L 85.9375 14.453125 
L 85.9375 22.265625 
L 73.4375 22.265625 
L 73.4375 5.859375 
Q 73.4375 -4.296875 73.828125 -10.9375 
L 65.625 -10.9375 
Q 66.015625 -4.296875 66.015625 5.859375 
L 66.015625 22.265625 
L 53.515625 22.265625 
L 53.515625 12.890625 
L 45.703125 12.890625 
Q 46.09375 17.578125 46.09375 23.4375 
L 46.09375 50 
Q 46.09375 58.203125 45.703125 62.5 
L 66.015625 62.5 
z
M 5.46875 50.78125 
Q 11.328125 50.390625 19.140625 50.390625 
L 22.265625 50.390625 
L 22.265625 67.578125 
Q 18.359375 66.40625 8.984375 64.453125 
Q 7.421875 67.96875 5.46875 71.484375 
Q 14.0625 71.875 22.0625 74.015625 
Q 30.078125 76.171875 36.71875 79.6875 
Q 39.0625 76.5625 42.578125 72.265625 
Q 38.671875 71.875 35.9375 71.09375 
Q 33.203125 70.3125 29.6875 69.53125 
L 29.6875 50.390625 
Q 34.765625 50.390625 42.1875 50.78125 
L 42.1875 43.75 
Q 34.765625 44.140625 29.6875 44.140625 
L 29.6875 3.515625 
Q 29.6875 -1.953125 30.078125 -10.15625 
L 21.875 -10.15625 
Q 22.265625 -1.953125 22.265625 3.515625 
L 22.265625 29.296875 
Q 19.140625 21.484375 16.59375 16.796875 
Q 14.0625 12.109375 9.765625 5.46875 
Q 6.640625 9.765625 3.90625 13.28125 
Q 9.375 19.140625 13.859375 26.953125 
Q 18.359375 34.765625 20.3125 44.140625 
L 14.453125 44.140625 
Q 8.984375 44.140625 5.46875 43.75 
z
M 66.015625 28.515625 
L 66.015625 56.25 
L 53.515625 56.25 
L 53.515625 28.515625 
z
M 85.9375 28.515625 
L 85.9375 56.25 
L 73.4375 56.25 
L 73.4375 28.515625 
z
M 37.109375 38.671875 
Q 38.28125 35.9375 40.234375 33.203125 
Q 42.1875 30.46875 44.53125 25.390625 
Q 41.015625 23.828125 37.890625 21.484375 
Q 35.9375 25.78125 34.5625 28.703125 
Q 33.203125 31.640625 30.859375 34.765625 
Q 33.203125 36.328125 37.109375 38.671875 
z
" id="SimHei-31181"/>
      <path d="M 39.0625 -6.640625 
L 39.0625 0.390625 
L 23.046875 0.390625 
L 23.046875 -9.375 
L 15.625 -9.375 
Q 16.015625 -3.515625 16.015625 21.875 
Q 12.890625 17.1875 9.375 13.28125 
Q 7.03125 16.40625 3.125 17.578125 
Q 7.03125 21.484375 10.9375 26.953125 
Q 14.84375 32.421875 16.40625 37.109375 
Q 13.28125 37.109375 8.59375 36.71875 
L 8.59375 43.359375 
Q 14.0625 42.96875 17.578125 42.96875 
Q 18.75 48.828125 18.75 53.125 
Q 10.546875 53.125 5.859375 52.734375 
L 5.859375 59.375 
Q 10.9375 58.984375 18.75 58.984375 
L 18.75 69.921875 
Q 16.40625 69.921875 10.15625 69.53125 
L 10.15625 76.5625 
Q 16.015625 76.171875 19.921875 76.171875 
L 46.09375 76.171875 
Q 45.703125 70.3125 45.703125 58.984375 
Q 48.046875 58.984375 51.171875 59.375 
L 51.171875 52.734375 
Q 48.046875 53.125 45.703125 53.125 
Q 45.703125 41.796875 46.09375 37.109375 
L 23.4375 37.109375 
Q 21.09375 30.078125 19.140625 27.34375 
L 46.484375 27.34375 
Q 46.09375 22.265625 46.09375 10.546875 
Q 46.09375 -1.171875 46.484375 -6.640625 
z
M 76.171875 19.921875 
Q 91.015625 19.921875 94.921875 20.3125 
L 94.921875 13.671875 
Q 91.015625 14.0625 76.171875 14.0625 
L 76.171875 3.515625 
Q 76.171875 -3.515625 76.5625 -10.9375 
L 68.75 -10.9375 
Q 69.140625 -3.515625 69.140625 3.515625 
L 69.140625 14.0625 
Q 55.46875 14.0625 50 13.671875 
L 50 20.3125 
Q 55.46875 19.921875 69.140625 19.921875 
L 69.140625 35.15625 
Q 57.421875 35.15625 53.125 34.765625 
L 53.125 41.40625 
Q 57.8125 41.015625 69.140625 41.015625 
L 69.140625 54.6875 
Q 58.984375 54.6875 52.734375 54.296875 
L 52.734375 60.9375 
Q 58.984375 60.546875 74.21875 60.546875 
Q 78.515625 69.921875 81.640625 80.859375 
Q 86.328125 78.515625 90.625 77.734375 
Q 89.0625 75.390625 86.71875 71.28125 
Q 84.375 67.1875 81.25 60.546875 
Q 87.890625 60.546875 92.96875 60.9375 
L 92.96875 54.296875 
Q 88.28125 54.6875 76.171875 54.6875 
L 76.171875 41.015625 
L 81.640625 41.015625 
L 91.796875 41.40625 
L 91.796875 34.765625 
Q 86.328125 35.15625 76.171875 35.15625 
z
M 39.0625 6.25 
L 39.0625 21.09375 
L 23.046875 21.09375 
L 23.046875 6.25 
z
M 38.671875 58.984375 
L 38.671875 69.921875 
L 25.78125 69.921875 
L 25.78125 58.984375 
z
M 38.671875 42.96875 
L 38.671875 53.125 
L 25.78125 53.125 
Q 25.390625 48.828125 24.609375 42.96875 
z
M 62.890625 65.234375 
Q 59.375 71.875 55.859375 76.953125 
Q 58.59375 78.125 61.328125 80.46875 
Q 64.84375 76.5625 69.140625 69.53125 
Q 65.234375 67.1875 62.890625 65.234375 
z
" id="SimHei-32676"/>
      <path d="M 53.515625 75.390625 
Q 69.921875 51.171875 96.09375 43.359375 
Q 92.1875 38.671875 90.234375 34.375 
Q 64.84375 45.3125 49.21875 69.140625 
Q 34.765625 46.09375 10.546875 33.203125 
Q 8.59375 36.71875 3.90625 40.625 
Q 22.65625 48.4375 33 60.546875 
Q 43.359375 72.65625 46.875 82.421875 
Q 51.5625 80.46875 56.25 78.90625 
Q 54.6875 76.953125 53.515625 75.390625 
z
M 45.703125 36.71875 
Q 45.703125 42.96875 44.921875 52.734375 
L 53.90625 52.734375 
Q 53.515625 46.09375 53.515625 36.328125 
L 53.515625 8.59375 
Q 53.515625 -0.390625 53.90625 -9.765625 
L 45.3125 -9.765625 
Q 45.703125 0 45.703125 8.203125 
z
" id="SimHei-20010"/>
      <path d="M 57.03125 60.15625 
Q 57.03125 74.21875 56.640625 80.078125 
L 64.453125 80.078125 
Q 64.0625 74.609375 64.0625 60.15625 
L 81.25 60.15625 
Q 89.0625 60.15625 92.578125 60.546875 
L 92.578125 53.515625 
Q 89.0625 53.90625 81.25 53.90625 
L 70.703125 53.90625 
Q 76.953125 28.90625 96.875 18.75 
Q 92.578125 16.40625 90.234375 12.109375 
Q 69.140625 28.125 64.0625 53.515625 
L 64.0625 16.015625 
Q 75.390625 16.015625 78.90625 16.40625 
L 78.90625 9.375 
Q 75.390625 9.765625 64.0625 9.765625 
Q 64.0625 1.171875 64.453125 -8.984375 
L 56.640625 -8.984375 
Q 57.03125 1.5625 57.03125 9.765625 
Q 50 9.765625 42.1875 9.375 
L 42.1875 16.40625 
Q 50 16.015625 57.03125 16.015625 
L 57.03125 53.90625 
Q 52.734375 28.125 31.25 10.15625 
Q 28.90625 13.671875 24.21875 16.015625 
Q 44.53125 29.296875 50 53.90625 
L 41.796875 53.90625 
Q 35.546875 53.90625 30.859375 53.515625 
L 30.859375 60.546875 
Q 35.546875 60.15625 41.796875 60.15625 
z
M 31.25 76.5625 
Q 28.515625 73.046875 23.828125 58.984375 
L 23.828125 8.984375 
Q 23.828125 -3.125 24.21875 -8.59375 
L 16.40625 -8.59375 
Q 16.796875 -3.515625 16.796875 8.59375 
L 16.796875 45.3125 
Q 14.84375 41.015625 8.984375 32.03125 
Q 7.03125 35.546875 3.515625 37.890625 
Q 8.203125 42.578125 14.453125 56.4375 
Q 20.703125 70.3125 22.265625 80.078125 
Q 26.5625 78.125 31.25 76.5625 
z
" id="SimHei-20307"/>
      <path d="M 70.703125 75.390625 
Q 76.5625 75.390625 85.15625 75.78125 
L 85.15625 68.359375 
Q 76.953125 68.75 70.703125 68.75 
L 54.296875 68.75 
L 54.296875 31.640625 
L 78.125 31.640625 
Q 86.71875 31.640625 94.140625 32.03125 
L 94.140625 24.609375 
Q 86.71875 25 78.125 25 
L 54.296875 25 
L 54.296875 7.03125 
Q 54.296875 -1.5625 54.6875 -9.375 
L 45.703125 -9.375 
Q 46.09375 -1.5625 46.09375 7.03125 
L 46.09375 25 
L 17.578125 25 
Q 12.109375 25 5.859375 24.609375 
L 5.859375 32.03125 
Q 12.109375 31.640625 18.359375 31.640625 
L 46.09375 31.640625 
L 46.09375 68.75 
L 27.734375 68.75 
Q 21.875 68.75 13.671875 68.359375 
L 13.671875 75.78125 
Q 21.875 75.390625 27.34375 75.390625 
z
M 61.328125 40.625 
Q 70.3125 51.5625 76.5625 64.453125 
Q 80.46875 61.71875 84.375 59.765625 
Q 74.609375 44.53125 67.96875 35.9375 
Q 64.84375 38.671875 61.328125 40.625 
z
M 30.859375 36.71875 
Q 25 48.4375 16.40625 58.203125 
Q 19.53125 60.546875 22.65625 63.28125 
Q 32.421875 51.5625 38.28125 42.578125 
Q 33.59375 39.0625 30.859375 36.71875 
z
" id="SimHei-24179"/>
      <path d="M 90.234375 4.296875 
Q 90.234375 -5.078125 83.78125 -7.03125 
Q 77.34375 -8.984375 69.140625 -9.375 
Q 68.359375 -4.296875 66.40625 0.390625 
Q 77.34375 -0.390625 80.078125 0.96875 
Q 82.8125 2.34375 82.8125 7.8125 
L 83.984375 57.8125 
L 55.46875 57.8125 
Q 53.515625 52.734375 50.96875 47.453125 
Q 48.4375 42.1875 45.703125 37.5 
Q 41.796875 39.84375 38.671875 41.015625 
Q 49.21875 56.640625 54.6875 81.25 
Q 59.375 79.6875 63.671875 78.515625 
Q 62.109375 76.171875 60.546875 72.65625 
Q 58.984375 69.140625 57.421875 64.453125 
L 92.1875 64.453125 
L 90.234375 4.296875 
z
M 19.53125 56.640625 
L 19.53125 68.359375 
Q 19.53125 74.609375 19.140625 79.6875 
L 27.734375 79.6875 
Q 27.34375 73.828125 27.34375 68.359375 
L 27.34375 56.640625 
L 29.6875 56.640625 
Q 34.375 56.640625 39.453125 57.03125 
L 39.453125 49.21875 
Q 34.375 49.609375 29.6875 49.609375 
L 27.34375 49.609375 
L 27.34375 17.1875 
L 39.0625 21.484375 
Q 38.671875 17.578125 39.453125 14.0625 
Q 19.140625 7.421875 15.03125 5.65625 
Q 10.9375 3.90625 7.421875 2.34375 
Q 5.859375 7.421875 3.90625 11.71875 
Q 8.984375 12.5 12.5 13.28125 
Q 16.015625 14.0625 19.53125 15.234375 
L 19.53125 49.609375 
L 17.578125 49.609375 
Q 13.28125 49.609375 6.25 49.21875 
L 6.25 57.03125 
Q 13.28125 56.640625 17.1875 56.640625 
z
M 77.34375 25.390625 
Q 73.046875 22.265625 64.640625 16.40625 
Q 56.25 10.546875 49.609375 4.6875 
Q 46.875 8.984375 44.53125 12.109375 
Q 52.34375 16.40625 58.78125 20.703125 
Q 65.234375 25 74.609375 32.421875 
Q 75.390625 28.90625 77.34375 25.390625 
z
M 58.984375 49.21875 
Q 64.453125 43.75 69.921875 35.9375 
Q 66.40625 33.203125 64.0625 30.859375 
Q 60.9375 36.328125 53.90625 44.140625 
Q 56.25 46.875 58.984375 49.21875 
z
" id="SimHei-22343"/>
      <path d="M 83.984375 76.5625 
Q 83.59375 65.234375 83.59375 55.078125 
L 83.59375 9.375 
Q 83.59375 3.515625 83.984375 -8.59375 
L 75.390625 -8.59375 
L 75.390625 -1.5625 
L 24.609375 -1.5625 
L 24.609375 -8.203125 
L 16.40625 -8.203125 
Q 16.796875 2.34375 16.796875 8.59375 
L 16.796875 55.078125 
Q 16.796875 67.96875 16.40625 76.5625 
L 83.984375 76.5625 
z
M 75.390625 4.6875 
L 75.390625 23.046875 
L 24.609375 23.046875 
L 24.609375 4.6875 
z
M 75.390625 29.296875 
L 75.390625 46.875 
L 24.609375 46.875 
L 24.609375 29.296875 
z
M 75.390625 53.125 
L 75.390625 70.3125 
L 24.609375 70.3125 
L 24.609375 53.125 
z
" id="SimHei-30446"/>
      <path d="M 19.921875 68.75 
Q 19.921875 75 19.53125 80.859375 
L 27.34375 80.859375 
Q 26.953125 75.390625 26.953125 68.75 
L 26.953125 59.375 
Q 33.203125 59.375 40.234375 59.765625 
L 40.234375 52.34375 
Q 33.203125 52.734375 26.953125 52.734375 
L 26.953125 39.453125 
Q 29.6875 41.40625 32.421875 43.75 
Q 37.5 35.546875 41.40625 27.734375 
Q 37.109375 25.78125 33.984375 23.4375 
Q 31.640625 31.25 26.953125 37.890625 
L 26.953125 7.421875 
Q 26.953125 -0.78125 27.34375 -8.984375 
L 19.53125 -8.984375 
Q 19.921875 -0.390625 19.921875 7.421875 
L 19.921875 32.8125 
Q 16.015625 21.875 7.8125 11.71875 
Q 5.46875 14.84375 1.953125 17.578125 
Q 8.59375 24.21875 12.6875 34.171875 
Q 16.796875 44.140625 17.96875 52.734375 
Q 10.546875 52.734375 5.078125 51.953125 
L 5.078125 59.765625 
Q 12.5 59.375 19.921875 59.375 
z
M 80.859375 48.828125 
Q 88.671875 48.828125 94.53125 49.21875 
L 94.53125 41.796875 
Q 88.671875 42.1875 82.421875 42.1875 
L 70.3125 42.1875 
L 70.3125 2.734375 
Q 70.3125 -3.515625 66.796875 -5.46875 
Q 63.28125 -7.421875 54.296875 -8.59375 
Q 53.515625 -3.90625 51.171875 0.390625 
Q 58.984375 0.390625 60.9375 0.96875 
Q 62.890625 1.5625 62.890625 5.46875 
L 62.890625 42.1875 
L 53.125 42.1875 
Q 43.359375 42.1875 39.0625 41.40625 
L 39.0625 49.21875 
Q 44.140625 48.828125 53.125 48.828125 
z
M 76.5625 74.609375 
Q 84.765625 74.609375 89.84375 75 
L 89.84375 67.1875 
Q 82.421875 67.96875 74.21875 67.96875 
L 55.078125 67.96875 
Q 48.828125 67.96875 42.96875 67.1875 
L 42.96875 75 
Q 48.4375 74.609375 55.078125 74.609375 
z
M 82.421875 31.640625 
Q 91.015625 18.359375 96.875 7.8125 
Q 92.578125 5.859375 88.28125 3.125 
Q 83.984375 14.453125 75.390625 26.953125 
Q 79.296875 28.90625 82.421875 31.640625 
z
M 56.25 27.734375 
Q 54.6875 25.390625 50.390625 15.234375 
Q 46.09375 5.078125 43.75 0.78125 
Q 40.234375 2.734375 35.9375 4.296875 
Q 41.015625 12.109375 43.546875 18.546875 
Q 46.09375 25 47.65625 31.25 
Q 51.953125 29.296875 56.25 27.734375 
z
" id="SimHei-26631"/>
      <path d="M 18.75 3.125 
L 81.25 3.125 
L 81.25 34.765625 
Q 81.25 40.625 80.46875 48.046875 
L 89.0625 48.046875 
Q 88.671875 39.0625 88.671875 34.765625 
L 88.671875 0.78125 
Q 88.671875 -4.296875 89.0625 -9.765625 
L 81.25 -9.765625 
L 81.25 -3.515625 
L 10.9375 -3.515625 
Q 11.328125 0.78125 11.328125 21.484375 
Q 11.328125 42.1875 10.9375 48.046875 
L 19.140625 48.046875 
Q 18.75 43.75 18.75 38.671875 
z
M 85.15625 76.953125 
L 85.15625 69.53125 
Q 79.296875 67.578125 69.921875 63.078125 
Q 60.546875 58.59375 54.296875 55.859375 
L 54.296875 17.1875 
Q 54.296875 10.9375 50 9.171875 
Q 45.703125 7.421875 39.453125 6.25 
Q 38.671875 10.546875 36.71875 14.84375 
Q 42.96875 14.84375 45.109375 15.625 
Q 47.265625 16.40625 47.265625 21.484375 
L 47.265625 48.046875 
Q 47.265625 55.46875 46.484375 60.15625 
Q 50.390625 61.328125 57.8125 64.453125 
Q 65.234375 67.578125 70.3125 70.3125 
L 30.46875 70.3125 
Q 22.265625 70.3125 16.015625 69.921875 
L 16.015625 77.34375 
Q 23.828125 76.953125 30.46875 76.953125 
z
M 70.3125 27.34375 
Q 73.4375 24.609375 78.125 19.921875 
Q 75.390625 17.578125 72.65625 14.0625 
Q 68.75 18.359375 65.625 21.484375 
Q 62.5 24.609375 56.25 30.078125 
Q 58.984375 32.8125 60.9375 35.546875 
z
M 42.1875 28.125 
Q 39.453125 26.171875 34.953125 23.234375 
Q 30.46875 20.3125 25 15.625 
Q 23.828125 18.359375 20.703125 22.265625 
Q 23.4375 23.4375 29.484375 27.140625 
Q 35.546875 30.859375 39.84375 34.765625 
Q 40.625 31.640625 42.1875 28.125 
z
M 77.734375 49.609375 
Q 75 48.4375 71.28125 45.5 
Q 67.578125 42.578125 62.5 38.671875 
Q 60.546875 42.1875 58.59375 44.53125 
Q 62.890625 47.65625 65.625 50 
Q 68.359375 52.34375 71.875 55.859375 
Q 74.609375 52.734375 77.734375 49.609375 
z
M 36.71875 39.84375 
Q 34.375 42.96875 31.25 45.890625 
Q 28.125 48.828125 23.046875 52.34375 
Q 25.78125 55.078125 27.34375 57.8125 
Q 31.640625 54.6875 41.40625 46.09375 
Q 38.671875 42.578125 36.71875 39.84375 
z
" id="SimHei-20989"/>
      <path d="M 70.703125 76.953125 
Q 69.921875 75 68.75 71.671875 
Q 67.578125 68.359375 65.234375 59.765625 
L 83.203125 59.765625 
Q 87.109375 59.765625 92.578125 60.15625 
L 92.578125 53.125 
Q 88.28125 53.515625 85.9375 53.515625 
Q 85.9375 47.265625 83.78125 33.78125 
Q 81.640625 20.3125 76.171875 10.546875 
Q 80.078125 5.859375 84.953125 2.140625 
Q 89.84375 -1.5625 94.140625 -3.125 
Q 89.453125 -6.640625 87.890625 -9.765625 
Q 83.203125 -7.03125 79.296875 -3.515625 
Q 75.390625 0 71.484375 5.078125 
Q 67.1875 0.390625 62.296875 -2.921875 
Q 57.421875 -6.25 50 -10.15625 
Q 48.046875 -6.640625 44.53125 -4.6875 
Q 50.390625 -2.34375 57.03125 1.953125 
Q 63.671875 6.25 67.1875 10.546875 
Q 64.453125 16.015625 61.90625 22.265625 
Q 59.375 28.515625 57.421875 38.671875 
Q 56.25 35.546875 53.515625 30.46875 
Q 50.78125 32.03125 46.875 33.59375 
Q 53.125 44.53125 57.03125 57.421875 
Q 60.9375 70.3125 62.109375 79.6875 
Q 66.796875 77.734375 70.703125 76.953125 
z
M 32.8125 35.15625 
Q 31.25 33.59375 29.296875 30.078125 
L 50.78125 30.078125 
Q 48.4375 20.3125 42.578125 10.546875 
Q 48.828125 8.203125 52.34375 6.25 
Q 50.390625 3.515625 48.828125 0.390625 
Q 45.3125 2.734375 38.28125 5.078125 
Q 30.46875 -3.515625 11.328125 -10.15625 
Q 9.375 -5.859375 6.25 -4.296875 
Q 24.609375 0 31.25 7.421875 
Q 20.3125 10.15625 13.28125 12.109375 
Q 15.625 15.625 19.53125 23.828125 
Q 15.625 23.828125 6.640625 23.4375 
L 6.640625 30.46875 
Q 14.0625 30.078125 21.875 30.078125 
Q 23.4375 33.59375 24.21875 37.890625 
Q 28.515625 36.328125 32.8125 35.15625 
z
M 27.734375 61.71875 
Q 27.734375 71.09375 27.34375 79.6875 
L 35.15625 79.6875 
Q 34.765625 71.484375 34.765625 61.71875 
Q 48.046875 61.71875 53.515625 62.109375 
L 53.515625 55.078125 
Q 48.046875 55.46875 34.765625 55.46875 
Q 34.765625 44.140625 35.15625 37.890625 
L 27.34375 37.890625 
Q 27.734375 43.359375 27.734375 51.5625 
Q 25.78125 48.4375 20.3125 43.546875 
Q 14.84375 38.671875 10.15625 35.9375 
Q 8.203125 39.453125 4.296875 41.015625 
Q 7.8125 42.1875 13.671875 46.484375 
Q 19.53125 50.78125 22.65625 55.46875 
Q 14.84375 55.46875 7.8125 55.078125 
L 7.8125 62.109375 
Q 14.453125 61.71875 27.734375 61.71875 
z
M 62.109375 49.609375 
Q 65.625 26.5625 71.875 17.578125 
Q 75.78125 26.5625 77.140625 35.734375 
Q 78.515625 44.921875 78.90625 53.515625 
L 63.671875 53.515625 
L 62.109375 49.609375 
z
M 22.65625 15.625 
Q 27.34375 14.453125 35.546875 12.5 
Q 38.671875 16.40625 41.40625 23.828125 
L 26.953125 23.828125 
Q 25 19.921875 22.65625 15.625 
z
M 51.953125 75.390625 
Q 50 72.265625 48.828125 69.53125 
Q 47.65625 66.796875 45.703125 62.890625 
Q 42.578125 64.453125 39.453125 65.234375 
Q 42.578125 70.3125 45.3125 78.125 
Q 49.21875 76.171875 51.953125 75.390625 
z
M 40.234375 52.734375 
Q 45.3125 47.65625 50 42.578125 
Q 47.65625 40.625 44.921875 37.890625 
Q 39.453125 44.53125 35.9375 48.4375 
Q 38.28125 50.390625 40.234375 52.734375 
z
M 14.453125 78.125 
Q 19.921875 72.65625 23.4375 67.1875 
L 17.578125 63.671875 
Q 14.84375 69.140625 9.375 73.828125 
Q 12.890625 76.171875 14.453125 78.125 
z
" id="SimHei-25968"/>
      <path d="M 57.421875 69.53125 
L 57.421875 79.6875 
Q 62.109375 79.296875 67.96875 78.90625 
Q 66.015625 76.171875 65.625 69.53125 
L 80.078125 69.53125 
Q 86.71875 69.53125 91.796875 69.921875 
L 91.796875 62.890625 
Q 86.328125 63.28125 80.078125 63.28125 
L 65.234375 63.28125 
L 64.453125 54.6875 
L 84.375 54.6875 
Q 83.984375 50 83.984375 42.1875 
L 83.984375 2.34375 
Q 91.796875 2.34375 95.3125 2.734375 
L 95.3125 -4.296875 
Q 90.234375 -3.90625 81.25 -3.90625 
L 44.53125 -3.90625 
Q 35.546875 -3.90625 29.6875 -4.296875 
L 29.6875 2.734375 
Q 33.203125 2.34375 40.625 2.34375 
L 40.625 42.1875 
Q 40.625 49.609375 40.234375 54.6875 
L 56.25 54.6875 
L 57.03125 63.28125 
L 50 63.28125 
Q 40.234375 63.28125 34.765625 62.890625 
L 34.765625 69.921875 
Q 39.84375 69.53125 50 69.53125 
z
M 34.765625 76.5625 
Q 31.640625 73.046875 25.78125 58.59375 
L 25.78125 7.03125 
Q 25.78125 -1.171875 26.171875 -8.59375 
L 17.96875 -8.59375 
Q 18.359375 -1.953125 18.359375 5.859375 
L 18.359375 46.09375 
Q 13.671875 38.28125 9.765625 33.59375 
Q 6.640625 37.890625 3.90625 40.234375 
Q 7.8125 44.140625 14.640625 55.265625 
Q 21.484375 66.40625 25.390625 80.46875 
Q 30.859375 77.734375 34.765625 76.5625 
z
M 76.953125 41.40625 
L 76.953125 49.21875 
L 48.046875 49.21875 
L 48.046875 41.40625 
z
M 76.953125 2.34375 
L 76.953125 9.765625 
L 48.046875 9.765625 
L 48.046875 2.34375 
z
M 76.953125 15.625 
L 76.953125 22.65625 
L 48.046875 22.65625 
L 48.046875 15.625 
z
M 76.953125 28.515625 
L 76.953125 35.546875 
L 48.046875 35.546875 
L 48.046875 28.515625 
z
" id="SimHei-20540"/>
     </defs>
     <g transform="translate(284.445 24.285937)scale(0.1 -0.1)">
      <use xlink:href="#SimHei-31181"/>
      <use x="100" xlink:href="#SimHei-32676"/>
      <use x="200" xlink:href="#SimHei-20010"/>
      <use x="300" xlink:href="#SimHei-20307"/>
      <use x="400" xlink:href="#SimHei-24179"/>
      <use x="500" xlink:href="#SimHei-22343"/>
      <use x="600" xlink:href="#SimHei-30446"/>
      <use x="700" xlink:href="#SimHei-26631"/>
      <use x="800" xlink:href="#SimHei-20989"/>
      <use x="900" xlink:href="#SimHei-25968"/>
      <use x="1000" xlink:href="#SimHei-20540"/>
     </g>
    </g>
    <g id="line2d_18">
     <path d="M 256.445 35.121875 
L 276.445 35.121875 
" style="fill:none;stroke:#ff7f0e;stroke-linecap:square;stroke-width:1.5;"/>
    </g>
    <g id="line2d_19"/>
    <g id="text_17">
     <!--  -->
     <defs>
      <path d="M 7.421875 4.296875 
Q 10.546875 4.6875 17.1875 5.46875 
L 17.1875 38.28125 
Q 12.109375 38.28125 6.640625 37.890625 
L 6.640625 44.53125 
Q 12.109375 44.140625 17.578125 44.140625 
L 78.515625 44.140625 
Q 85.546875 44.140625 92.1875 44.53125 
L 92.1875 37.890625 
Q 85.546875 38.28125 78.515625 38.28125 
L 47.65625 38.28125 
L 47.65625 10.546875 
L 53.125 12.109375 
Q 53.125 8.59375 53.515625 6.25 
Q 50.390625 5.46875 47.65625 5.078125 
Q 47.65625 -1.953125 48.046875 -8.59375 
L 40.625 -8.59375 
Q 41.015625 -1.953125 41.015625 3.90625 
Q 36.71875 3.125 28.3125 1.359375 
Q 19.921875 -0.390625 10.15625 -2.734375 
Q 8.984375 1.5625 7.421875 4.296875 
z
M 79.6875 76.953125 
Q 79.296875 71.875 79.296875 67.578125 
L 79.296875 60.546875 
Q 79.296875 56.25 79.6875 50.78125 
L 19.921875 50.78125 
Q 20.3125 56.25 20.3125 60.546875 
L 20.3125 67.578125 
Q 20.3125 71.875 19.921875 76.953125 
L 79.6875 76.953125 
z
M 51.5625 32.03125 
Q 58.59375 31.640625 64.453125 31.640625 
L 83.984375 31.640625 
Q 79.6875 15.234375 73.828125 6.25 
Q 83.59375 0 92.578125 -1.5625 
Q 89.0625 -4.296875 88.28125 -7.8125 
Q 78.515625 -4.6875 69.921875 2.34375 
Q 64.84375 -3.125 56.25 -8.984375 
Q 54.6875 -6.640625 50.78125 -4.296875 
Q 58.984375 -1.5625 64.84375 5.46875 
Q 58.203125 12.109375 54.6875 26.171875 
L 51.5625 26.171875 
z
M 71.875 66.40625 
L 71.875 71.875 
L 27.34375 71.875 
L 27.34375 66.40625 
z
M 71.875 55.859375 
L 71.875 60.9375 
L 27.34375 60.9375 
L 27.34375 55.859375 
z
M 60.9375 26.171875 
Q 62.5 16.796875 68.75 9.765625 
Q 73.4375 16.40625 75.78125 26.171875 
L 60.9375 26.171875 
z
M 41.015625 19.53125 
L 41.015625 26.171875 
L 23.828125 26.171875 
L 23.828125 19.53125 
z
M 41.015625 8.984375 
L 41.015625 14.453125 
L 23.828125 14.453125 
L 23.828125 6.640625 
z
M 41.015625 31.640625 
L 41.015625 38.28125 
L 23.828125 38.28125 
L 23.828125 31.640625 
z
" id="SimHei-26368"/>
      <path d="M 72.65625 5.46875 
Q 72.265625 1.5625 75.390625 0.78125 
Q 78.515625 0 81.25 0.1875 
Q 83.984375 0.390625 85.34375 1.953125 
Q 86.71875 3.515625 88.28125 12.5 
Q 91.015625 9.765625 96.875 8.203125 
Q 94.53125 -0.390625 92.375 -3.125 
Q 90.234375 -5.859375 85.546875 -6.25 
L 73.4375 -6.25 
Q 65.234375 -6.25 65.234375 3.125 
L 65.234375 47.65625 
L 60.15625 47.65625 
Q 58.203125 9.375 37.109375 -8.59375 
Q 34.375 -5.078125 29.296875 -3.515625 
Q 49.609375 10.546875 52.34375 47.65625 
L 45.3125 47.65625 
Q 36.71875 47.65625 30.859375 47.265625 
L 30.859375 54.296875 
Q 36.71875 53.90625 45.3125 53.90625 
L 52.734375 53.90625 
Q 52.734375 73.4375 52.34375 80.46875 
Q 55.078125 79.6875 61.328125 79.296875 
Q 60.15625 73.4375 60.15625 53.90625 
L 81.25 53.90625 
Q 85.546875 53.90625 92.578125 54.296875 
L 92.578125 47.265625 
Q 85.9375 47.65625 81.640625 47.65625 
L 72.65625 47.65625 
L 72.65625 5.46875 
z
M 3.125 37.109375 
Q 8.203125 42.1875 15.625 56.4375 
Q 23.046875 70.703125 25 81.25 
Q 28.90625 78.90625 34.765625 76.953125 
Q 31.25 73.4375 26.5625 59.765625 
L 26.5625 9.375 
Q 26.5625 -2.34375 26.953125 -8.203125 
L 18.75 -8.203125 
Q 19.140625 -2.734375 19.140625 8.984375 
L 19.140625 46.484375 
Q 14.0625 37.890625 8.59375 30.859375 
Q 6.640625 34.375 3.125 37.109375 
z
M 75.78125 78.515625 
Q 78.125 75 80.46875 71.671875 
Q 82.8125 68.359375 85.15625 65.625 
Q 82.03125 63.671875 78.515625 60.546875 
Q 76.171875 65.234375 69.53125 73.828125 
Q 72.265625 75.78125 75.78125 78.515625 
z
" id="SimHei-20248"/>
     </defs>
     <g transform="translate(284.445 38.621875)scale(0.1 -0.1)">
      <use xlink:href="#SimHei-31181"/>
      <use x="100" xlink:href="#SimHei-32676"/>
      <use x="200" xlink:href="#SimHei-26368"/>
      <use x="300" xlink:href="#SimHei-20248"/>
      <use x="400" xlink:href="#SimHei-20010"/>
      <use x="500" xlink:href="#SimHei-20307"/>
      <use x="600" xlink:href="#SimHei-30446"/>
      <use x="700" xlink:href="#SimHei-26631"/>
      <use x="800" xlink:href="#SimHei-20989"/>
      <use x="900" xlink:href="#SimHei-25968"/>
      <use x="1000" xlink:href="#SimHei-20540"/>
     </g>
    </g>
   </g>
  </g>
 </g>
 <defs>
  <clipPath id="pd6bcb76cc4">
   <rect height="266.112" width="357.12" x="46.325" y="7.2"/>
  </clipPath>
 </defs>
</svg>
